<svg width="32" height="32" viewBox="0 0 32 32" fill="none" xmlns="http://www.w3.org/2000/svg">
<g clip-path="url(#clip0_800_1496)">
<path d="M14 16.0001C14.9286 15.9999 15.8479 16.1846 16.7045 16.5432C17.561 16.9019 18.3376 17.4273 18.9891 18.089C19.6405 18.7508 20.1538 19.5355 20.4991 20.3975C20.8443 21.2595 21.0146 22.1816 21 23.1101C20.9977 23.2638 21.0308 23.416 21.0968 23.5548C21.1629 23.6937 21.26 23.8154 21.3807 23.9106C21.5015 24.0058 21.6425 24.0719 21.7929 24.1037C21.9434 24.1355 22.0991 24.1322 22.248 24.0941C22.6915 23.9804 23.155 23.9696 23.6033 24.0624C24.0516 24.1552 24.4728 24.3492 24.8347 24.6295C25.1966 24.9098 25.4897 25.2691 25.6917 25.6799C25.8937 26.0907 25.9991 26.5423 26 27.0001C26 27.7957 25.6839 28.5588 25.1213 29.1214C24.5587 29.684 23.7957 30.0001 23 30.0001H6.00002C5.46822 29.9971 4.94237 29.888 4.4532 29.6794C3.96404 29.4707 3.5214 29.1666 3.15116 28.7849C2.78093 28.4031 2.49054 27.9513 2.29697 27.456C2.10341 26.9607 2.01056 26.4317 2.02386 25.9001C2.03716 25.3685 2.15633 24.8448 2.37442 24.3598C2.5925 23.8748 2.90512 23.4381 3.29397 23.0753C3.68283 22.7125 4.14013 22.4309 4.63911 22.247C5.13809 22.0631 5.66874 21.9805 6.20002 22.0041C6.43046 22.0159 6.65792 21.9477 6.84382 21.811C7.02973 21.6743 7.16264 21.4776 7.22002 21.2541C7.60795 19.7507 8.48442 18.4188 9.71168 17.4678C10.9389 16.5168 12.4474 16.0005 14 16.0001ZM22.946 22.0001C22.721 19.9723 21.8137 18.0812 20.3729 16.6368C18.9321 15.1923 17.0433 14.2803 15.0162 14.0501C12.989 13.82 10.9439 14.2854 9.21593 15.3701C7.488 16.4548 6.17987 18.0944 5.50602 20.0201C3.9619 20.1464 2.52652 20.8652 1.50035 22.0259C0.474172 23.1866 -0.0632483 24.6993 0.000582759 26.2473C0.0644138 27.7952 0.724547 29.2585 1.8428 30.3308C2.96105 31.4031 4.45074 32.0012 6.00002 32.0001H23C24.3261 32.0001 25.5979 31.4733 26.5356 30.5356C27.4732 29.5979 28 28.3261 28 27.0001C28 25.674 27.4732 24.4022 26.5356 23.4645C25.5979 22.5268 24.3261 22.0001 23 22.0001H22.946Z" fill="#0039B3"/>
<path d="M21 3C21 2.73478 20.8946 2.48043 20.7071 2.29289C20.5196 2.10536 20.2652 2 20 2C19.7348 2 19.4804 2.10536 19.2929 2.29289C19.1053 2.48043 19 2.73478 19 3V5C19 5.26522 19.1053 5.51957 19.2929 5.70711C19.4804 5.89464 19.7348 6 20 6C20.2652 6 20.5196 5.89464 20.7071 5.70711C20.8946 5.51957 21 5.26522 21 5V3ZM28.486 6.928C28.5815 6.83575 28.6577 6.72541 28.7101 6.6034C28.7625 6.4814 28.7901 6.35018 28.7912 6.2174C28.7924 6.08462 28.7671 5.95294 28.7168 5.83005C28.6665 5.70715 28.5923 5.5955 28.4984 5.50161C28.4045 5.40771 28.2928 5.33346 28.1699 5.28318C28.047 5.2329 27.9154 5.2076 27.7826 5.20875C27.6498 5.2099 27.5186 5.23749 27.3966 5.2899C27.2746 5.34231 27.1642 5.41849 27.072 5.514L25.656 6.928C25.4682 7.11577 25.3627 7.37045 25.3627 7.636C25.3627 7.90155 25.4682 8.15623 25.656 8.344C25.8438 8.53177 26.0984 8.63726 26.364 8.63726C26.6295 8.63726 26.8842 8.53177 27.072 8.344L28.486 6.928ZM12.928 5.514C12.7394 5.33184 12.4868 5.23105 12.2246 5.23333C11.9624 5.2356 11.7116 5.34077 11.5262 5.52618C11.3408 5.71159 11.2356 5.9624 11.2333 6.2246C11.231 6.4868 11.3318 6.7394 11.514 6.928L12.928 8.344C13.021 8.43698 13.1313 8.51073 13.2528 8.56105C13.3743 8.61136 13.5045 8.63726 13.636 8.63726C13.7675 8.63726 13.8977 8.61136 14.0192 8.56105C14.1406 8.51073 14.251 8.43698 14.344 8.344C14.437 8.25102 14.5107 8.14065 14.561 8.01917C14.6114 7.89769 14.6373 7.76749 14.6373 7.636C14.6373 7.50451 14.6114 7.37431 14.561 7.25283C14.5107 7.13135 14.437 7.02098 14.344 6.928L12.928 5.514ZM16.396 12.262C16.6446 11.7469 17.0007 11.2911 17.4404 10.9253C17.8801 10.5595 18.3932 10.2923 18.9449 10.1416C19.4967 9.99098 20.0744 9.96042 20.6389 10.052C21.2035 10.1436 21.7419 10.3552 22.2178 10.6725C22.6936 10.9898 23.0959 11.4055 23.3974 11.8915C23.699 12.3776 23.8928 12.9226 23.9658 13.4899C24.0388 14.0572 23.9893 14.6335 23.8206 15.18C23.6519 15.7265 23.368 16.2305 22.988 16.658C23.386 17.22 23.732 17.822 24.02 18.454C24.6978 17.8416 25.2268 17.0825 25.5667 16.2346C25.9066 15.3868 26.0484 14.4725 25.9813 13.5615C25.9143 12.6505 25.6401 11.7668 25.1796 10.9778C24.7192 10.1889 24.0847 9.51548 23.3245 9.00896C22.5644 8.50244 21.6986 8.17617 20.7932 8.05504C19.8878 7.93391 18.9666 8.02111 18.1001 8.30999C17.2335 8.59887 16.4443 9.08181 15.7927 9.72198C15.141 10.3622 14.6442 11.1427 14.34 12.004C15.044 12.026 15.732 12.114 16.396 12.262ZM25.364 20.41C26.564 20.84 27.614 21.59 28.408 22.554C28.5169 22.4658 28.606 22.3558 28.6696 22.2309C28.7332 22.1061 28.7699 21.9693 28.7773 21.8294C28.7846 21.6894 28.7625 21.5495 28.7123 21.4187C28.6621 21.2879 28.585 21.1691 28.486 21.07L27.072 19.656C26.9294 19.5126 26.7467 19.4158 26.548 19.3783C26.3493 19.3409 26.1439 19.3645 25.9589 19.4462C25.7739 19.5278 25.6181 19.6637 25.5119 19.8357C25.4056 20.0078 25.3541 20.208 25.364 20.41ZM29 13C28.7348 13 28.4804 13.1054 28.2929 13.2929C28.1053 13.4804 28 13.7348 28 14C28 14.2652 28.1053 14.5196 28.2929 14.7071C28.4804 14.8946 28.7348 15 29 15H31C31.2652 15 31.5196 14.8946 31.7071 14.7071C31.8946 14.5196 32 14.2652 32 14C32 13.7348 31.8946 13.4804 31.7071 13.2929C31.5196 13.1054 31.2652 13 31 13H29Z" fill="#FBA94C"/>
</g>
<defs>
<clipPath id="clip0_800_1496">
<rect width="32" height="32" fill="white"/>
</clipPath>
</defs>
</svg>
