<svg width="32" height="32" viewBox="0 0 32 32" fill="none" xmlns="http://www.w3.org/2000/svg">
<g clip-path="url(#clip0_796_823)">
<path d="M14 16.0001C14.9286 15.9999 15.8479 16.1846 16.7045 16.5432C17.561 16.9019 18.3376 17.4273 18.9891 18.089C19.6405 18.7508 20.1538 19.5355 20.4991 20.3975C20.8443 21.2595 21.0146 22.1816 21 23.1101C20.9976 23.264 21.0307 23.4164 21.0969 23.5555C21.163 23.6945 21.2604 23.8164 21.3814 23.9116C21.5023 24.0068 21.6437 24.0728 21.7943 24.1045C21.945 24.1361 22.101 24.1326 22.25 24.0941C22.6934 23.9808 23.1567 23.9703 23.6047 24.0632C24.0527 24.1562 24.4736 24.3502 24.8353 24.6305C25.197 24.9107 25.4899 25.2699 25.6918 25.6805C25.8936 26.0912 25.999 26.5425 26 27.0001C26 27.7957 25.684 28.5588 25.1213 29.1214C24.5587 29.684 23.7957 30.0001 23 30.0001H6.00002C5.46822 29.9971 4.94237 29.888 4.4532 29.6794C3.96404 29.4707 3.5214 29.1666 3.15116 28.7849C2.78093 28.4031 2.49054 27.9513 2.29697 27.456C2.10341 26.9607 2.01056 26.4317 2.02386 25.9001C2.03716 25.3685 2.15634 24.8448 2.37442 24.3598C2.5925 23.8748 2.90512 23.4381 3.29398 23.0753C3.68283 22.7125 4.14013 22.4309 4.63911 22.247C5.13809 22.0631 5.66874 21.9805 6.20002 22.0041C6.43013 22.0154 6.65712 21.947 6.8426 21.8104C7.02809 21.6737 7.1607 21.4772 7.21802 21.2541C7.60604 19.7504 8.4828 18.4182 9.71047 17.4672C10.9381 16.5161 12.4471 16 14 16.0001ZM22.946 22.0001C22.721 19.9723 21.8137 18.0812 20.3729 16.6368C18.9321 15.1923 17.0433 14.2803 15.0162 14.0501C12.989 13.82 10.9439 14.2854 9.21593 15.3701C7.488 16.4548 6.17987 18.0944 5.50602 20.0201C3.9619 20.1464 2.52652 20.8652 1.50035 22.0259C0.474172 23.1866 -0.0632483 24.6993 0.00058276 26.2473C0.0644138 27.7952 0.724547 29.2585 1.8428 30.3308C2.96105 31.4031 4.45074 32.0012 6.00002 32.0001H23C24.3261 32.0001 25.5979 31.4733 26.5356 30.5356C27.4732 29.5979 28 28.3261 28 27.0001C28 25.674 27.4732 24.4022 26.5356 23.4645C25.5979 22.5268 24.3261 22.0001 23 22.0001H22.946Z" fill="#0039B3"/>
<path d="M22.572 3.5561C22.6869 3.38408 22.7457 3.18064 22.7402 2.97382C22.7347 2.767 22.6651 2.56698 22.5412 2.40134C22.4172 2.23569 22.2449 2.11257 22.0481 2.04895C21.8512 1.98532 21.6394 1.98433 21.442 2.0461C19.3712 2.69461 17.5967 4.05498 16.4326 5.88632C15.2686 7.71766 14.7901 9.90184 15.082 12.0521C15.7974 12.1217 16.5041 12.2617 17.192 12.4701C16.8832 11.1539 16.9508 9.77737 17.3872 8.49781C17.8237 7.21825 18.6113 6.08726 19.66 5.2341C19.3136 6.56974 19.2726 7.96626 19.5399 9.31994C19.8073 10.6736 20.3761 11.9497 21.2043 13.0534C22.0324 14.157 23.0985 15.06 24.3235 15.6951C25.5485 16.3302 26.9008 16.6813 28.28 16.7221C26.9693 17.6331 25.3916 18.0794 23.798 17.9901C24.122 18.6241 24.388 19.2941 24.586 19.9901C26.03 19.9286 27.4391 19.527 28.6986 18.8181C29.9581 18.1091 31.0323 17.1127 31.834 15.9101C31.9489 15.7381 32.0077 15.5346 32.0022 15.3278C31.9967 15.121 31.9271 14.921 31.8032 14.7553C31.6792 14.5897 31.5069 14.4666 31.3101 14.4029C31.1132 14.3393 30.9014 14.3383 30.704 14.4001C29.2854 14.8454 27.7636 14.8396 26.3484 14.3837C24.9332 13.9278 23.6943 13.0441 22.8024 11.8545C21.9105 10.6649 21.4096 9.22788 21.3687 7.74161C21.3278 6.25534 21.7469 4.79298 22.572 3.5561Z" fill="#121214"/>
</g>
<defs>
<clipPath id="clip0_796_823">
<rect width="32" height="32" fill="white"/>
</clipPath>
</defs>
</svg>
