<svg width="72" height="72" viewBox="0 0 72 72" fill="none" xmlns="http://www.w3.org/2000/svg">
<path d="M49.4743 18.083C49.2216 15.5353 49.2718 13.1801 49.8758 10.9538C50.1798 9.83953 50.6238 8.75377 51.2503 7.68066C51.8793 6.60502 52.6937 5.54189 53.7493 4.48636L55.4828 2.75273L52.7313 0L50.9965 1.73236C49.3717 3.357 48.176 5.06798 47.3429 6.84267C46.0873 9.5092 45.657 12.312 45.6882 15.1173C45.7145 17.9252 46.1809 20.7481 46.7177 23.5835C47.0679 25.4308 47.3705 27.2081 47.5394 28.9053C47.7932 31.453 47.742 33.8095 47.1366 36.0345C46.834 37.1476 46.3899 38.2344 45.7622 39.3088C45.133 40.3831 44.3187 41.445 43.2632 42.5007V42.5019H43.2645L42.5027 43.2636C42.2989 43.4662 42.0974 43.6601 41.8911 43.8465L29.4262 31.3819C28.8108 32.0597 28.2917 32.7527 27.849 33.4793L39.8212 45.4499C39.2921 45.7876 38.7617 46.0801 38.2277 46.3303C37.6361 46.6093 37.0396 46.8381 36.4316 47.0208L26.3957 36.9851C26.1555 37.992 26.0267 39.0713 26.0029 40.2694L33.3447 47.6099C32.7069 47.6661 32.0565 47.6861 31.3924 47.6824C29.9052 47.6675 28.3544 47.5097 26.7359 47.2635C26.8034 47.6336 26.8685 47.9888 26.9347 48.3353C27.096 49.1745 27.2561 50.0563 27.4037 50.9681C27.9578 51.0458 28.5093 51.1107 29.0609 51.1657C31.8739 51.4447 34.6918 51.4108 37.4384 50.6654C38.8118 50.294 40.1588 49.7423 41.4658 48.9769C42.7716 48.2127 44.0397 47.2334 45.2556 46.0177L46.016 45.2548C47.6408 43.6326 48.8352 41.9205 49.6719 40.1445C50.9264 37.4778 51.3553 34.6776 51.3267 31.871C51.2978 29.0631 50.8325 26.2389 50.2973 23.4048C49.9446 21.5561 49.6431 19.7802 49.4743 18.083Z" fill="white"/>
<path d="M69.2475 16.5184L67.5151 18.2506C67.31 18.4545 67.1087 18.6485 66.9035 18.8335L54.4374 6.36768C53.8233 7.04689 53.3042 7.74102 52.8614 8.4651L64.8322 20.4371C64.3031 20.776 63.7752 21.0673 63.24 21.3175C62.6484 21.5964 62.0506 21.8252 61.444 22.0078L51.4081 11.9734C51.1679 12.9789 51.0391 14.0583 51.0166 15.2564L58.3571 22.5969C57.7192 22.6544 57.0689 22.6733 56.4046 22.6695C54.9176 22.6557 53.3666 22.4969 51.7481 22.2493C51.8156 22.6196 51.8794 22.9773 51.9481 23.3237C52.107 24.1628 52.2672 25.0432 52.416 25.9552C52.9701 26.0327 53.5203 26.0978 54.0719 26.1529C56.8861 26.4316 59.7053 26.3991 62.4495 25.6526C63.8227 25.2812 65.1711 24.7308 66.4781 23.9642C67.7826 23.2013 69.0509 22.2206 70.269 21.0036L72.0001 19.2702L69.2475 16.5184Z" fill="white"/>
<path d="M19.1388 63.5353L7.16908 51.566C7.69573 51.2246 8.22604 50.932 8.76 50.683C9.35289 50.404 9.94943 50.174 10.5561 49.9926L20.592 60.0284C20.8322 59.0228 20.961 57.9421 20.9835 56.744L13.6456 49.406C14.2834 49.3498 14.9326 49.326 15.5966 49.3309C17.0825 49.3447 18.6348 49.506 20.2495 49.7525C20.1845 49.3811 20.1195 49.0221 20.0531 48.6769C19.8931 47.8389 19.7342 46.9559 19.5854 46.0441C19.0325 45.9715 18.4823 45.9053 17.9306 45.8502C15.1151 45.5675 12.2948 45.6 9.54935 46.3467C8.18118 46.7221 6.82904 47.2723 5.52204 48.0365C4.21757 48.7994 2.94925 49.7787 1.73226 50.9969L0 52.7291L2.75293 55.4833L4.48519 53.7498C4.6891 53.5459 4.89301 53.3521 5.09819 53.1669L17.5643 65.6316C18.177 64.9538 18.6985 64.2597 19.1388 63.5353Z" fill="white"/>
<path d="M24.462 43.0961C24.2105 40.5486 24.2593 38.1921 24.8635 35.9684C25.1674 34.8516 25.6102 33.7672 26.2392 32.6928C26.867 31.6184 27.6825 30.5542 28.7382 29.4985L29.4998 28.738L29.4986 28.7356C29.7012 28.5317 29.9051 28.3391 30.1114 28.1551L42.5751 40.6186C43.1893 39.9406 43.7108 39.2452 44.1499 38.5224L32.1802 26.5531C32.708 26.2117 33.2395 25.9189 33.7724 25.67C34.3653 25.3924 34.9618 25.1609 35.5685 24.9795L45.6044 35.0141C45.8459 34.0085 45.9734 32.9303 45.9959 31.7322L38.6578 24.393C39.2944 24.3367 39.9448 24.313 40.6089 24.3193C42.0936 24.3331 43.647 24.4944 45.2617 24.7384C45.1967 24.3681 45.1318 24.0104 45.0654 23.664C44.9053 22.8247 44.7452 21.9442 44.5976 21.0325C44.046 20.9574 43.4946 20.8913 42.9429 20.8362C40.1262 20.5559 37.3071 20.5885 34.5616 21.3351C33.1933 21.709 31.8413 22.2594 30.5343 23.0236C29.2298 23.7877 27.9615 24.7658 26.7445 25.984L26.7458 25.9853L25.9841 26.7469C24.3607 28.3703 23.165 30.0813 22.3306 31.8574C21.0749 34.5239 20.6446 37.3254 20.6758 40.1295C20.7023 42.9386 21.1686 45.7628 21.704 48.5969C22.0554 50.4443 22.358 52.2214 22.5269 53.9175C22.7795 56.4677 22.7296 58.8215 22.1242 61.0477C21.8215 62.1609 21.3774 63.2477 20.7508 64.3222C20.1216 65.3966 19.3049 66.4572 18.2506 67.5141L16.5183 69.2476L19.2701 72.0002L21.0049 70.268C22.6283 68.6446 23.8241 66.9323 24.6595 65.1575C25.9141 62.491 26.3443 59.6907 26.3143 56.8841C26.2855 54.075 25.819 51.2534 25.2837 48.4192C24.9322 46.5705 24.6307 44.7946 24.462 43.0961Z" fill="white"/>
</svg>
