<svg width="378" height="378" viewBox="0 0 378 378" fill="none" xmlns="http://www.w3.org/2000/svg">
<circle cx="191" cy="189" r="135" fill="#FFCA28"/>
<circle cx="191" cy="189" r="122.5" fill="#FFDE7B" stroke="#453C4E" stroke-width="5"/>
<path d="M261.288 75.0166C262.154 73.5613 261.678 71.6764 260.203 70.8432C234.188 56.1382 204.059 50.2957 174.382 54.2507C143.69 58.3409 115.278 72.6704 93.744 94.9189C72.2104 117.168 58.8163 146.033 55.7304 176.842C52.7464 206.632 59.5695 236.554 75.1161 262.076C75.997 263.522 77.8964 263.936 79.3226 263.023C80.7488 262.11 81.1615 260.216 80.282 258.769C65.4791 234.411 58.9856 205.869 61.832 177.453C64.7803 148.018 77.5771 120.44 98.1504 99.1837C118.724 77.9273 145.869 64.237 175.192 60.3292C203.5 56.5565 232.238 62.1146 257.067 76.1144C258.542 76.9461 260.422 76.4718 261.288 75.0166Z" fill="#453C4E"/>
<path d="M119.503 303.931C118.633 305.384 119.103 307.27 120.574 308.108C145.487 322.301 174.241 328.363 202.811 325.401C232.399 322.334 260.194 309.755 282.026 289.55C303.858 269.346 318.549 242.607 323.895 213.345C329.057 185.089 325.237 155.953 313.013 130.017C312.292 128.485 310.447 127.87 308.932 128.626C307.416 129.382 306.804 131.222 307.525 132.755C319.157 157.503 322.787 185.292 317.863 212.243C312.756 240.2 298.72 265.747 277.861 285.05C257.003 304.353 230.447 316.371 202.179 319.302C174.928 322.126 147.503 316.359 123.728 302.848C122.256 302.011 120.374 302.479 119.503 303.931Z" fill="#453C4E"/>
<path d="M276.462 168.067C277.928 169.42 278.341 172.038 277.328 175.558C276.334 179.013 274.035 183.026 270.627 186.733C267.219 190.44 263.415 193.067 260.06 194.343C256.642 195.643 254.004 195.446 252.538 194.092C251.072 192.739 250.659 190.122 251.671 186.602C252.665 183.147 254.966 179.134 258.374 175.427C261.782 171.72 265.585 169.093 268.94 167.817C272.358 166.517 274.995 166.715 276.462 168.067Z" fill="#458FFF" stroke="#453C4E" stroke-width="2"/>
<path d="M266.475 179.708C266.075 179.366 265.747 178.95 265.508 178.481C265.269 178.013 265.125 177.502 265.084 176.977C265.042 176.453 265.104 175.926 265.266 175.425C265.427 174.925 265.686 174.461 266.027 174.061C266.367 173.661 266.783 173.332 267.251 173.093C267.719 172.853 268.229 172.709 268.752 172.667C269.275 172.625 269.802 172.687 270.301 172.85C270.8 173.012 271.263 173.271 271.663 173.612L271.133 174.234C270.815 173.963 270.447 173.757 270.049 173.628C269.652 173.499 269.233 173.449 268.817 173.482C268.4 173.516 267.994 173.631 267.622 173.821C267.25 174.011 266.919 174.273 266.648 174.592C266.377 174.91 266.171 175.279 266.042 175.677C265.913 176.075 265.864 176.495 265.897 176.912C265.93 177.33 266.045 177.736 266.235 178.109C266.425 178.482 266.686 178.814 267.004 179.085L266.475 179.708Z" fill="#453C4E"/>
<path d="M257.147 190.536C256.747 190.195 256.419 189.778 256.18 189.309C255.942 188.841 255.798 188.33 255.756 187.805C255.715 187.28 255.777 186.753 255.939 186.252C256.101 185.751 256.36 185.287 256.701 184.887C257.042 184.486 257.459 184.156 257.927 183.917C258.394 183.677 258.905 183.532 259.428 183.491C259.952 183.449 260.479 183.51 260.978 183.672C261.478 183.834 261.94 184.093 262.34 184.435L261.81 185.058C261.492 184.786 261.124 184.58 260.726 184.451C260.328 184.322 259.909 184.273 259.493 184.306C259.076 184.34 258.67 184.455 258.298 184.645C257.925 184.836 257.594 185.098 257.323 185.417C257.051 185.736 256.845 186.105 256.716 186.504C256.587 186.902 256.538 187.322 256.57 187.74C256.603 188.157 256.718 188.564 256.908 188.937C257.098 189.31 257.359 189.642 257.677 189.913L257.147 190.536Z" fill="#453C4E"/>
<path d="M266.956 179.05C267.353 179.394 267.68 179.813 267.917 180.281C268.154 180.749 268.297 181.258 268.338 181.779C268.38 182.3 268.318 182.823 268.156 183.317C267.995 183.812 267.738 184.269 267.399 184.662C267.06 185.054 266.646 185.376 266.181 185.607C265.715 185.838 265.208 185.975 264.688 186.009C264.167 186.044 263.643 185.975 263.147 185.808C262.65 185.64 262.19 185.377 261.793 185.033L262.32 184.422C262.636 184.696 263.002 184.906 263.398 185.039C263.793 185.172 264.209 185.227 264.624 185.199C265.038 185.172 265.442 185.063 265.812 184.879C266.182 184.695 266.511 184.439 266.781 184.127C267.051 183.814 267.256 183.451 267.384 183.057C267.513 182.663 267.562 182.247 267.529 181.833C267.496 181.418 267.383 181.013 267.194 180.64C267.005 180.268 266.745 179.935 266.429 179.661L266.956 179.05Z" fill="#453C4E"/>
<circle cx="249.5" cy="224.5" r="3.25" fill="#B1B525" stroke="#453C4E" stroke-width="0.5"/>
<circle cx="248.5" cy="223.5" r="0.5" fill="#453C4E"/>
<circle cx="249.5" cy="225.5" r="0.5" fill="#453C4E"/>
<circle cx="250.5" cy="223.5" r="0.5" fill="#453C4E"/>
<path d="M302.172 220.937C301.056 222.591 298.531 223.395 294.898 222.926C291.333 222.466 287.018 220.8 282.838 217.991C278.658 215.183 275.487 211.82 273.718 208.696C271.917 205.514 271.713 202.877 272.829 201.223C273.944 199.569 276.47 198.765 280.102 199.234C283.667 199.694 287.983 201.361 292.162 204.17C296.342 206.978 299.513 210.34 301.282 213.464C303.084 216.646 303.287 219.283 302.172 220.937Z" fill="#458FFF" stroke="#453C4E" stroke-width="2"/>
<path d="M289.155 212.825C289.432 212.378 289.795 211.991 290.222 211.684C290.649 211.377 291.132 211.157 291.644 211.037C292.156 210.916 292.687 210.898 293.206 210.982C293.725 211.066 294.222 211.252 294.669 211.528C295.116 211.804 295.505 212.166 295.812 212.592C296.119 213.018 296.339 213.5 296.459 214.011C296.579 214.522 296.598 215.052 296.513 215.57C296.428 216.088 296.242 216.585 295.965 217.031L295.27 216.602C295.49 216.247 295.638 215.852 295.706 215.439C295.773 215.027 295.759 214.605 295.663 214.198C295.567 213.792 295.392 213.408 295.148 213.069C294.903 212.73 294.594 212.442 294.239 212.222C293.883 212.003 293.487 211.855 293.074 211.788C292.661 211.721 292.238 211.735 291.831 211.831C291.423 211.927 291.039 212.102 290.699 212.346C290.359 212.59 290.071 212.899 289.85 213.254L289.155 212.825Z" fill="#453C4E"/>
<path d="M277.041 205.241C277.318 204.795 277.68 204.407 278.108 204.1C278.535 203.794 279.018 203.574 279.531 203.454C280.043 203.334 280.574 203.315 281.093 203.4C281.613 203.484 282.111 203.67 282.558 203.947C283.006 204.223 283.394 204.585 283.702 205.011C284.01 205.438 284.23 205.92 284.351 206.431C284.471 206.942 284.49 207.472 284.405 207.991C284.32 208.509 284.134 209.006 283.857 209.452L283.162 209.022C283.382 208.667 283.53 208.272 283.597 207.859C283.665 207.447 283.65 207.025 283.554 206.618C283.458 206.211 283.283 205.827 283.038 205.488C282.793 205.149 282.484 204.861 282.128 204.641C281.771 204.421 281.375 204.273 280.962 204.206C280.548 204.138 280.126 204.153 279.718 204.249C279.31 204.344 278.926 204.519 278.586 204.763C278.246 205.007 277.957 205.316 277.737 205.671L277.041 205.241Z" fill="#453C4E"/>
<path d="M289.877 213.201C289.597 213.646 289.234 214.032 288.807 214.337C288.38 214.642 287.898 214.861 287.389 214.98C286.88 215.1 286.354 215.117 285.841 215.033C285.328 214.948 284.837 214.763 284.398 214.487C283.958 214.211 283.578 213.851 283.279 213.426C282.98 213.001 282.768 212.52 282.655 212.011C282.543 211.501 282.531 210.974 282.622 210.457C282.712 209.941 282.903 209.447 283.183 209.002L283.866 209.431C283.644 209.784 283.492 210.178 283.42 210.589C283.348 211 283.357 211.42 283.447 211.825C283.536 212.23 283.705 212.613 283.943 212.951C284.181 213.289 284.483 213.576 284.833 213.796C285.183 214.015 285.573 214.163 285.982 214.23C286.39 214.298 286.809 214.283 287.214 214.188C287.619 214.093 288.002 213.919 288.342 213.676C288.682 213.434 288.971 213.126 289.194 212.773L289.877 213.201Z" fill="#453C4E"/>
<path d="M199.424 294.683C198.765 296.567 196.528 297.986 192.896 298.457C189.331 298.919 184.733 298.405 179.977 296.753C175.22 295.1 171.298 292.654 168.792 290.083C166.241 287.464 165.373 284.966 166.031 283.082C166.689 281.199 168.927 279.779 172.559 279.308C176.124 278.846 180.722 279.361 185.478 281.014C190.235 282.666 194.157 285.111 196.662 287.682C199.214 290.301 200.082 292.8 199.424 294.683Z" fill="#458FFF" stroke="#453C4E" stroke-width="2"/>
<path d="M184.772 290.149C184.927 289.647 185.178 289.18 185.513 288.775C185.848 288.369 186.26 288.034 186.724 287.787C187.189 287.54 187.697 287.388 188.221 287.337C188.744 287.287 189.272 287.339 189.775 287.493C190.278 287.646 190.745 287.897 191.15 288.231C191.556 288.565 191.891 288.975 192.138 289.439C192.384 289.902 192.536 290.41 192.586 290.933C192.636 291.456 192.582 291.983 192.428 292.485L191.647 292.247C191.769 291.847 191.812 291.427 191.772 291.011C191.733 290.595 191.611 290.191 191.415 289.822C191.219 289.453 190.952 289.127 190.63 288.861C190.307 288.595 189.935 288.396 189.535 288.274C189.135 288.152 188.715 288.11 188.298 288.15C187.882 288.19 187.477 288.312 187.107 288.508C186.737 288.704 186.41 288.971 186.144 289.294C185.877 289.617 185.677 289.988 185.554 290.388L184.772 290.149Z" fill="#453C4E"/>
<path d="M171.127 285.897C171.281 285.395 171.533 284.928 171.868 284.522C172.203 284.117 172.615 283.782 173.08 283.535C173.544 283.288 174.053 283.136 174.577 283.085C175.101 283.035 175.63 283.088 176.133 283.242C176.636 283.395 177.104 283.646 177.51 283.98C177.916 284.314 178.252 284.725 178.498 285.188C178.745 285.652 178.898 286.16 178.948 286.683C178.998 287.205 178.944 287.733 178.79 288.235L178.008 287.996C178.13 287.597 178.173 287.177 178.133 286.761C178.094 286.345 177.972 285.941 177.776 285.572C177.579 285.203 177.312 284.876 176.989 284.61C176.666 284.344 176.294 284.145 175.893 284.022C175.493 283.9 175.072 283.858 174.655 283.898C174.238 283.938 173.833 284.06 173.463 284.256C173.093 284.452 172.766 284.719 172.499 285.042C172.232 285.364 172.032 285.736 171.909 286.136L171.127 285.897Z" fill="#453C4E"/>
<path d="M185.567 290.33C185.409 290.831 185.155 291.297 184.82 291.701C184.485 292.104 184.074 292.438 183.613 292.683C183.151 292.928 182.647 293.079 182.129 293.128C181.611 293.177 181.089 293.122 180.594 292.967C180.099 292.812 179.64 292.56 179.242 292.226C178.845 291.891 178.518 291.48 178.279 291.016C178.041 290.552 177.895 290.044 177.851 289.522C177.808 289 177.866 288.473 178.024 287.972L178.794 288.212C178.668 288.611 178.622 289.031 178.657 289.446C178.692 289.862 178.807 290.266 178.997 290.635C179.187 291.004 179.448 291.331 179.764 291.598C180.08 291.864 180.445 292.065 180.839 292.188C181.234 292.311 181.649 292.355 182.061 292.316C182.473 292.277 182.874 292.157 183.242 291.962C183.609 291.767 183.936 291.501 184.202 291.18C184.469 290.859 184.671 290.488 184.797 290.089L185.567 290.33Z" fill="#453C4E"/>
<circle cx="285.5" cy="156.5" r="3.25" fill="#B1B525" stroke="#453C4E" stroke-width="0.5"/>
<circle cx="284.5" cy="155.5" r="0.5" fill="#453C4E"/>
<circle cx="285.5" cy="157.5" r="0.5" fill="#453C4E"/>
<circle cx="286.5" cy="155.5" r="0.5" fill="#453C4E"/>
<circle cx="175.5" cy="144.5" r="46" fill="#4C5584" stroke="#453C4E" stroke-width="3"/>
<circle cx="168.5" cy="123.5" r="11.5" fill="#5361A8" stroke="#453C4E" stroke-width="2"/>
<mask id="path-27-inside-1_736_376" fill="white">
<path d="M206.525 187.598C207.079 188.292 208.091 188.413 208.776 187.847C216.51 181.46 222.426 173.186 225.909 163.864C229.577 154.045 230.399 143.456 228.282 133.294C226.164 123.133 221.192 113.804 213.928 106.364C207.032 99.3011 198.332 94.2079 188.725 91.5928C187.868 91.3596 186.995 91.8812 186.768 92.7396C186.533 93.6244 187.073 94.5267 187.955 94.7698C196.94 97.2451 205.076 102.024 211.532 108.637C218.373 115.643 223.055 124.428 225.049 133.998C227.043 143.567 226.269 153.539 222.815 162.785C219.55 171.524 214.014 179.285 206.78 185.289C206.085 185.865 205.962 186.892 206.525 187.598Z"/>
</mask>
<path d="M206.525 187.598C207.079 188.292 208.091 188.413 208.776 187.847C216.51 181.46 222.426 173.186 225.909 163.864C229.577 154.045 230.399 143.456 228.282 133.294C226.164 123.133 221.192 113.804 213.928 106.364C207.032 99.3011 198.332 94.2079 188.725 91.5928C187.868 91.3596 186.995 91.8812 186.768 92.7396C186.533 93.6244 187.073 94.5267 187.955 94.7698C196.94 97.2451 205.076 102.024 211.532 108.637C218.373 115.643 223.055 124.428 225.049 133.998C227.043 143.567 226.269 153.539 222.815 162.785C219.55 171.524 214.014 179.285 206.78 185.289C206.085 185.865 205.962 186.892 206.525 187.598Z" fill="#BA7300" stroke="#453C4E" mask="url(#path-27-inside-1_736_376)"/>
<mask id="path-28-inside-2_736_376" fill="white">
<path d="M206.525 187.598C207.079 188.292 208.091 188.413 208.776 187.847C216.51 181.46 222.426 173.186 225.909 163.864C229.577 154.045 230.399 143.456 228.282 133.294C226.164 123.133 221.192 113.804 213.928 106.364C207.032 99.3011 198.332 94.2079 188.725 91.5928C187.868 91.3596 186.995 91.8812 186.768 92.7396C186.533 93.6244 187.073 94.5267 187.955 94.7698C196.94 97.2451 205.076 102.024 211.532 108.637C218.373 115.643 223.055 124.428 225.049 133.998C227.043 143.567 226.269 153.539 222.815 162.785C219.55 171.524 214.014 179.285 206.78 185.289C206.085 185.865 205.962 186.892 206.525 187.598Z"/>
</mask>
<path d="M206.525 187.598C207.079 188.292 208.091 188.413 208.776 187.847C216.51 181.46 222.426 173.186 225.909 163.864C229.577 154.045 230.399 143.456 228.282 133.294C226.164 123.133 221.192 113.804 213.928 106.364C207.032 99.3011 198.332 94.2079 188.725 91.5928C187.868 91.3596 186.995 91.8812 186.768 92.7396C186.533 93.6244 187.073 94.5267 187.955 94.7698C196.94 97.2451 205.076 102.024 211.532 108.637C218.373 115.643 223.055 124.428 225.049 133.998C227.043 143.567 226.269 153.539 222.815 162.785C219.55 171.524 214.014 179.285 206.78 185.289C206.085 185.865 205.962 186.892 206.525 187.598Z" fill="#BA7300" stroke="#453C4E" mask="url(#path-28-inside-2_736_376)"/>
<mask id="path-29-inside-3_736_376" fill="white">
<path d="M127.927 178.247C127.071 178.591 126.686 179.592 127.124 180.403C131.56 188.608 138.72 195.412 147.747 199.973C157.326 204.812 168.538 206.887 179.847 205.914C191.156 204.941 202.009 200.967 210.919 194.538C219.314 188.48 225.597 180.52 229.019 171.642C229.354 170.773 228.819 169.826 227.909 169.627C227.135 169.458 226.36 169.897 226.08 170.638C222.878 179.095 216.925 186.678 208.944 192.437C200.553 198.492 190.333 202.234 179.683 203.15C169.033 204.066 158.474 202.112 149.454 197.555C140.91 193.239 134.143 186.788 129.971 179.01C129.577 178.276 128.699 177.937 127.927 178.247Z"/>
</mask>
<path d="M127.927 178.247C127.071 178.591 126.686 179.592 127.124 180.403C131.56 188.608 138.72 195.412 147.747 199.973C157.326 204.812 168.538 206.887 179.847 205.914C191.156 204.941 202.009 200.967 210.919 194.538C219.314 188.48 225.597 180.52 229.019 171.642C229.354 170.773 228.819 169.826 227.909 169.627C227.135 169.458 226.36 169.897 226.08 170.638C222.878 179.095 216.925 186.678 208.944 192.437C200.553 198.492 190.333 202.234 179.683 203.15C169.033 204.066 158.474 202.112 149.454 197.555C140.91 193.239 134.143 186.788 129.971 179.01C129.577 178.276 128.699 177.937 127.927 178.247Z" fill="#BA7300" stroke="#453C4E" mask="url(#path-29-inside-3_736_376)"/>
<mask id="path-30-inside-4_736_376" fill="white">
<path d="M114.33 160.387C113.587 160.514 113.081 161.214 113.211 161.957C114.733 170.656 118.032 178.874 122.835 185.912C127.532 192.792 133.525 198.335 140.322 202.102C141.135 202.553 142.146 202.148 142.458 201.272C142.718 200.539 142.392 199.73 141.71 199.357C135.204 195.808 129.47 190.535 124.989 183.971C120.488 177.377 117.39 169.684 115.947 161.538C115.812 160.777 115.093 160.256 114.33 160.387Z"/>
</mask>
<path d="M114.33 160.387C113.587 160.514 113.081 161.214 113.211 161.957C114.733 170.656 118.032 178.874 122.835 185.912C127.532 192.792 133.525 198.335 140.322 202.102C141.135 202.553 142.146 202.148 142.458 201.272C142.718 200.539 142.392 199.73 141.71 199.357C135.204 195.808 129.47 190.535 124.989 183.971C120.488 177.377 117.39 169.684 115.947 161.538C115.812 160.777 115.093 160.256 114.33 160.387Z" fill="#BA7300" stroke="#453C4E" mask="url(#path-30-inside-4_736_376)"/>
<mask id="path-31-inside-5_736_376" fill="white">
<path d="M230.138 164.327C230.918 164.801 231.94 164.528 232.343 163.708C235.789 156.702 237.277 148.711 236.663 140.431C236.034 131.955 233.224 123.462 228.499 115.733C228.122 115.116 227.333 114.903 226.689 115.232C225.949 115.609 225.698 116.541 226.127 117.252C230.466 124.451 233.049 132.338 233.633 140.211C234.213 148.029 232.802 155.575 229.539 162.185C229.161 162.949 229.41 163.884 230.138 164.327Z"/>
</mask>
<path d="M230.138 164.327C230.918 164.801 231.94 164.528 232.343 163.708C235.789 156.702 237.277 148.711 236.663 140.431C236.034 131.955 233.224 123.462 228.499 115.733C228.122 115.116 227.333 114.903 226.689 115.232C225.949 115.609 225.698 116.541 226.127 117.252C230.466 124.451 233.049 132.338 233.633 140.211C234.213 148.029 232.802 155.575 229.539 162.185C229.161 162.949 229.41 163.884 230.138 164.327Z" fill="#BA7300" stroke="#453C4E" mask="url(#path-31-inside-5_736_376)"/>
<mask id="path-32-inside-6_736_376" fill="white">
<path d="M127.735 123.931C126.923 123.613 126.005 124.019 125.718 124.843C121.872 135.85 121.234 147.729 123.908 158.9C126.703 170.576 132.972 180.871 141.806 188.291C150.64 195.712 161.579 199.873 173.038 200.17C184.012 200.456 194.917 197.183 204.302 190.81C205.002 190.334 205.188 189.389 204.741 188.67C204.249 187.879 203.193 187.672 202.42 188.191C193.638 194.081 183.466 197.102 173.229 196.836C162.438 196.556 152.136 192.637 143.817 185.649C135.499 178.661 129.595 168.967 126.963 157.971C124.449 147.47 125.043 136.303 128.648 125.952C128.931 125.142 128.534 124.245 127.735 123.931Z"/>
</mask>
<path d="M127.735 123.931C126.923 123.613 126.005 124.019 125.718 124.843C121.872 135.85 121.234 147.729 123.908 158.9C126.703 170.576 132.972 180.871 141.806 188.291C150.64 195.712 161.579 199.873 173.038 200.17C184.012 200.456 194.917 197.183 204.302 190.81C205.002 190.334 205.188 189.389 204.741 188.67C204.249 187.879 203.193 187.672 202.42 188.191C193.638 194.081 183.466 197.102 173.229 196.836C162.438 196.556 152.136 192.637 143.817 185.649C135.499 178.661 129.595 168.967 126.963 157.971C124.449 147.47 125.043 136.303 128.648 125.952C128.931 125.142 128.534 124.245 127.735 123.931Z" fill="#BA7300" stroke="#453C4E" mask="url(#path-32-inside-6_736_376)"/>
<circle cx="234" cy="198" r="1.75" fill="#D925C1" stroke="#453C4E" stroke-width="0.5"/>
<circle cx="209.5" cy="82.5" r="3.25" fill="#B1B525" stroke="#453C4E" stroke-width="0.5"/>
<circle cx="208.5" cy="81.5" r="0.5" fill="#453C4E"/>
<circle cx="209.5" cy="83.5" r="0.5" fill="#453C4E"/>
<circle cx="210.5" cy="81.5" r="0.5" fill="#453C4E"/>
<circle cx="113" cy="208" r="5.9" fill="#89227C" stroke="#453C4E" stroke-width="0.2"/>
<circle cx="113" cy="208" r="4.9" fill="#B767AC" stroke="#453C4E" stroke-width="0.2"/>
<circle cx="96" cy="143" r="1.75" fill="#D925C1" stroke="#453C4E" stroke-width="0.5"/>
<circle cx="282" cy="237" r="1.75" fill="#D925C1" stroke="#453C4E" stroke-width="0.5"/>
<mask id="path-42-inside-7_736_376" fill="white">
<path d="M173.155 238.5C175.831 238.5 177.787 240.856 175.82 242.672C175.737 242.748 175.652 242.825 175.564 242.901C173.956 244.296 171.599 245.564 168.627 246.632C165.656 247.7 162.128 248.547 158.246 249.125C154.363 249.703 150.202 250 146 250C141.798 250 137.637 249.703 133.754 249.125C129.872 248.547 126.344 247.7 123.373 246.632C120.401 245.564 118.044 244.296 116.436 242.901C116.348 242.825 116.263 242.748 116.18 242.672C114.213 240.856 116.169 238.5 118.845 238.5H120.073C122.071 238.5 123.88 240.259 125.389 241.568C126.51 242.541 128.153 243.425 130.225 244.169C132.297 244.914 134.756 245.504 137.463 245.907C140.169 246.31 143.07 246.517 146 246.517C148.93 246.517 151.831 246.31 154.537 245.907C157.244 245.504 159.703 244.914 161.775 244.169C163.847 243.425 165.49 242.541 166.611 241.568C168.12 240.259 169.929 238.5 171.927 238.5H173.155Z"/>
</mask>
<path d="M173.155 238.5C175.831 238.5 177.787 240.856 175.82 242.672C175.737 242.748 175.652 242.825 175.564 242.901C173.956 244.296 171.599 245.564 168.627 246.632C165.656 247.7 162.128 248.547 158.246 249.125C154.363 249.703 150.202 250 146 250C141.798 250 137.637 249.703 133.754 249.125C129.872 248.547 126.344 247.7 123.373 246.632C120.401 245.564 118.044 244.296 116.436 242.901C116.348 242.825 116.263 242.748 116.18 242.672C114.213 240.856 116.169 238.5 118.845 238.5H120.073C122.071 238.5 123.88 240.259 125.389 241.568C126.51 242.541 128.153 243.425 130.225 244.169C132.297 244.914 134.756 245.504 137.463 245.907C140.169 246.31 143.07 246.517 146 246.517C148.93 246.517 151.831 246.31 154.537 245.907C157.244 245.504 159.703 244.914 161.775 244.169C163.847 243.425 165.49 242.541 166.611 241.568C168.12 240.259 169.929 238.5 171.927 238.5H173.155Z" fill="#0A7D30" stroke="#453C4E" mask="url(#path-42-inside-7_736_376)"/>
<mask id="path-43-inside-8_736_376" fill="white">
<path d="M117.157 264.174C114.877 264.164 113.096 262.161 114.561 260.416C114.828 260.098 115.13 259.783 115.466 259.473C117.071 257.993 119.423 256.651 122.386 255.526C125.35 254.4 128.867 253.512 132.736 252.913C136.606 252.314 140.753 252.015 144.94 252.034C149.127 252.053 153.273 252.388 157.14 253.022C161.007 253.655 164.52 254.574 167.478 255.726C170.436 256.878 172.782 258.241 174.381 259.736C174.715 260.049 175.015 260.366 175.281 260.686C176.738 262.444 174.948 264.432 172.667 264.422L172.567 264.421C170.342 264.411 168.375 262.439 166.748 260.918C165.563 259.81 163.825 258.8 161.633 257.947C159.441 257.093 156.838 256.412 153.973 255.943C151.107 255.473 148.036 255.224 144.933 255.211C141.831 255.197 138.758 255.418 135.89 255.862C133.023 256.306 130.417 256.964 128.221 257.798C126.025 258.632 124.283 259.626 123.093 260.723C121.459 262.23 119.483 264.185 117.257 264.175L117.157 264.174Z"/>
</mask>
<path d="M117.157 264.174C114.877 264.164 113.096 262.161 114.561 260.416C114.828 260.098 115.13 259.783 115.466 259.473C117.071 257.993 119.423 256.651 122.386 255.526C125.35 254.4 128.867 253.512 132.736 252.913C136.606 252.314 140.753 252.015 144.94 252.034C149.127 252.053 153.273 252.388 157.14 253.022C161.007 253.655 164.52 254.574 167.478 255.726C170.436 256.878 172.782 258.241 174.381 259.736C174.715 260.049 175.015 260.366 175.281 260.686C176.738 262.444 174.948 264.432 172.667 264.422L172.567 264.421C170.342 264.411 168.375 262.439 166.748 260.918C165.563 259.81 163.825 258.8 161.633 257.947C159.441 257.093 156.838 256.412 153.973 255.943C151.107 255.473 148.036 255.224 144.933 255.211C141.831 255.197 138.758 255.418 135.89 255.862C133.023 256.306 130.417 256.964 128.221 257.798C126.025 258.632 124.283 259.626 123.093 260.723C121.459 262.23 119.483 264.185 117.257 264.175L117.157 264.174Z" fill="#0A7D30" stroke="#453C4E" mask="url(#path-43-inside-8_736_376)"/>
<mask id="path-44-inside-9_736_376" fill="white">
<path d="M124.349 270.53C123.004 270.524 121.886 269.405 122.296 268.124C122.649 267.02 123.244 265.944 124.072 264.922C125.489 263.173 127.553 261.626 130.118 260.391C132.683 259.157 135.688 258.264 138.92 257.775C141.592 257.371 144.367 257.251 147.11 257.418C148.004 257.473 148.59 258.358 148.328 259.214C148.13 259.866 147.497 260.28 146.818 260.235C144.596 260.086 142.345 260.176 140.18 260.503C137.634 260.888 135.267 261.592 133.247 262.564C131.227 263.537 129.601 264.755 128.485 266.133C127.955 266.787 127.546 267.469 127.262 268.169C126.757 269.414 125.695 270.536 124.349 270.53Z"/>
</mask>
<path d="M124.349 270.53C123.004 270.524 121.886 269.405 122.296 268.124C122.649 267.02 123.244 265.944 124.072 264.922C125.489 263.173 127.553 261.626 130.118 260.391C132.683 259.157 135.688 258.264 138.92 257.775C141.592 257.371 144.367 257.251 147.11 257.418C148.004 257.473 148.59 258.358 148.328 259.214C148.13 259.866 147.497 260.28 146.818 260.235C144.596 260.086 142.345 260.176 140.18 260.503C137.634 260.888 135.267 261.592 133.247 262.564C131.227 263.537 129.601 264.755 128.485 266.133C127.955 266.787 127.546 267.469 127.262 268.169C126.757 269.414 125.695 270.536 124.349 270.53Z" fill="#0A7D30" stroke="#453C4E" mask="url(#path-44-inside-9_736_376)"/>
<mask id="path-45-inside-10_736_376" fill="white">
<path d="M149.741 258.856C150.027 258.307 150.638 258.004 151.245 258.131C155.068 258.926 158.471 260.293 161.101 262.098C162.995 263.397 164.435 264.886 165.357 266.482C166.075 267.724 165.074 269.094 163.644 269.195C162.483 269.278 161.46 268.472 160.893 267.454C160.167 266.149 159.004 264.931 157.46 263.872C155.63 262.616 153.328 261.628 150.743 260.98C149.811 260.746 149.298 259.707 149.741 258.856Z"/>
</mask>
<path d="M149.741 258.856C150.027 258.307 150.638 258.004 151.245 258.131C155.068 258.926 158.471 260.293 161.101 262.098C162.995 263.397 164.435 264.886 165.357 266.482C166.075 267.724 165.074 269.094 163.644 269.195C162.483 269.278 161.46 268.472 160.893 267.454C160.167 266.149 159.004 264.931 157.46 263.872C155.63 262.616 153.328 261.628 150.743 260.98C149.811 260.746 149.298 259.707 149.741 258.856Z" fill="#0A7D30" stroke="#453C4E" mask="url(#path-45-inside-10_736_376)"/>
<mask id="path-46-inside-11_736_376" fill="white">
<path d="M155.862 240.796C156.773 241.626 156.476 243.113 155.287 243.432C152.481 244.185 149.426 244.603 146.306 244.653C142.201 244.719 138.134 244.145 134.529 242.992C130.924 241.838 127.914 240.148 125.813 238.097C124.46 236.776 123.516 235.337 123.012 233.844C122.561 232.507 123.733 231.335 125.143 231.338C126.544 231.341 127.649 232.516 128.201 233.805C128.621 234.785 129.288 235.729 130.187 236.607C131.821 238.203 134.164 239.518 136.968 240.415C139.773 241.313 142.938 241.759 146.132 241.708C148.961 241.663 151.72 241.229 154.186 240.446C154.768 240.261 155.41 240.384 155.862 240.796Z"/>
</mask>
<path d="M155.862 240.796C156.773 241.626 156.476 243.113 155.287 243.432C152.481 244.185 149.426 244.603 146.306 244.653C142.201 244.719 138.134 244.145 134.529 242.992C130.924 241.838 127.914 240.148 125.813 238.097C124.46 236.776 123.516 235.337 123.012 233.844C122.561 232.507 123.733 231.335 125.143 231.338C126.544 231.341 127.649 232.516 128.201 233.805C128.621 234.785 129.288 235.729 130.187 236.607C131.821 238.203 134.164 239.518 136.968 240.415C139.773 241.313 142.938 241.759 146.132 241.708C148.961 241.663 151.72 241.229 154.186 240.446C154.768 240.261 155.41 240.384 155.862 240.796Z" fill="#0A7D30" stroke="#453C4E" mask="url(#path-46-inside-11_736_376)"/>
<mask id="path-47-inside-12_736_376" fill="white">
<path d="M165.915 231.475C167.32 231.482 168.488 232.653 168.043 233.985C167.666 235.114 167.036 236.211 166.163 237.25C164.828 238.84 162.956 240.254 160.662 241.412C160.111 241.691 159.45 241.618 158.951 241.251C157.898 240.477 158.063 238.843 159.142 238.11C160.107 237.454 160.928 236.728 161.583 235.948C162.125 235.302 162.547 234.628 162.845 233.935C163.399 232.644 164.509 231.469 165.915 231.475Z"/>
</mask>
<path d="M165.915 231.475C167.32 231.482 168.488 232.653 168.043 233.985C167.666 235.114 167.036 236.211 166.163 237.25C164.828 238.84 162.956 240.254 160.662 241.412C160.111 241.691 159.45 241.618 158.951 241.251C157.898 240.477 158.063 238.843 159.142 238.11C160.107 237.454 160.928 236.728 161.583 235.948C162.125 235.302 162.547 234.628 162.845 233.935C163.399 232.644 164.509 231.469 165.915 231.475Z" fill="#0A7D30" stroke="#453C4E" mask="url(#path-47-inside-12_736_376)"/>
<mask id="path-48-inside-13_736_376" fill="white">
<path d="M156.811 228.868C157.957 228.878 158.909 229.844 158.488 230.909C158.267 231.47 157.954 232.017 157.553 232.543C156.68 233.688 155.408 234.703 153.824 235.521C152.24 236.338 150.381 236.939 148.371 237.283C146.828 237.547 145.225 237.655 143.625 237.604C142.858 237.579 142.33 236.845 142.505 236.098C142.649 235.488 143.219 235.083 143.847 235.101C144.977 235.134 146.109 235.056 147.198 234.87C148.639 234.623 149.972 234.193 151.107 233.606C152.242 233.02 153.154 232.293 153.78 231.472C153.939 231.263 154.079 231.049 154.2 230.831C154.753 229.829 155.665 228.858 156.811 228.868Z"/>
</mask>
<path d="M156.811 228.868C157.957 228.878 158.909 229.844 158.488 230.909C158.267 231.47 157.954 232.017 157.553 232.543C156.68 233.688 155.408 234.703 153.824 235.521C152.24 236.338 150.381 236.939 148.371 237.283C146.828 237.547 145.225 237.655 143.625 237.604C142.858 237.579 142.33 236.845 142.505 236.098C142.649 235.488 143.219 235.083 143.847 235.101C144.977 235.134 146.109 235.056 147.198 234.87C148.639 234.623 149.972 234.193 151.107 233.606C152.242 233.02 153.154 232.293 153.78 231.472C153.939 231.263 154.079 231.049 154.2 230.831C154.753 229.829 155.665 228.858 156.811 228.868Z" fill="#0A7D30" stroke="#453C4E" mask="url(#path-48-inside-13_736_376)"/>
<mask id="path-49-inside-14_736_376" fill="white">
<path d="M141.198 236.412C140.98 236.961 140.411 237.291 139.83 237.177C136.995 236.618 134.488 235.552 132.655 234.113C131.299 233.049 130.364 231.824 129.903 230.532C129.522 229.462 130.487 228.537 131.622 228.556C132.779 228.575 133.679 229.587 134.217 230.614C134.589 231.325 135.167 231.997 135.933 232.598C137.058 233.48 138.535 234.167 140.212 234.598C141.009 234.803 141.5 235.649 141.198 236.412Z"/>
</mask>
<path d="M141.198 236.412C140.98 236.961 140.411 237.291 139.83 237.177C136.995 236.618 134.488 235.552 132.655 234.113C131.299 233.049 130.364 231.824 129.903 230.532C129.522 229.462 130.487 228.537 131.622 228.556C132.779 228.575 133.679 229.587 134.217 230.614C134.589 231.325 135.167 231.997 135.933 232.598C137.058 233.48 138.535 234.167 140.212 234.598C141.009 234.803 141.5 235.649 141.198 236.412Z" fill="#0A7D30" stroke="#453C4E" mask="url(#path-49-inside-14_736_376)"/>
<mask id="path-50-inside-15_736_376" fill="white">
<path d="M153.833 266.15C154.315 265.951 154.871 266.008 155.27 266.345C156.412 267.308 157.156 268.388 157.463 269.51C157.741 270.527 156.773 271.307 155.721 271.255L155.235 271.231C154.273 271.184 153.578 270.266 153.201 269.379C153.176 269.32 153.149 269.26 153.12 269.201C152.599 268.132 152.735 266.602 153.833 266.15Z"/>
</mask>
<path d="M153.833 266.15C154.315 265.951 154.871 266.008 155.27 266.345C156.412 267.308 157.156 268.388 157.463 269.51C157.741 270.527 156.773 271.307 155.721 271.255L155.235 271.231C154.273 271.184 153.578 270.266 153.201 269.379C153.176 269.32 153.149 269.26 153.12 269.201C152.599 268.132 152.735 266.602 153.833 266.15Z" fill="#0A7D30" stroke="#453C4E" mask="url(#path-50-inside-15_736_376)"/>
<mask id="path-51-inside-16_736_376" fill="white">
<path d="M131.054 271.469C129.907 271.464 128.954 270.502 129.372 269.435C129.785 268.382 130.517 267.379 131.542 266.479C133.208 265.015 135.569 263.892 138.317 263.256C141.065 262.619 144.072 262.5 146.944 262.912C148.834 263.184 150.607 263.677 152.168 264.358C153.235 264.823 153.2 266.242 152.183 266.804C151.68 267.081 151.068 267.049 150.56 266.778C149.262 266.086 147.699 265.595 146.007 265.352C143.948 265.056 141.793 265.142 139.823 265.598C137.853 266.054 136.161 266.859 134.967 267.908C134.407 268.4 133.968 268.935 133.661 269.496C133.11 270.5 132.2 271.474 131.054 271.469Z"/>
</mask>
<path d="M131.054 271.469C129.907 271.464 128.954 270.502 129.372 269.435C129.785 268.382 130.517 267.379 131.542 266.479C133.208 265.015 135.569 263.892 138.317 263.256C141.065 262.619 144.072 262.5 146.944 262.912C148.834 263.184 150.607 263.677 152.168 264.358C153.235 264.823 153.2 266.242 152.183 266.804C151.68 267.081 151.068 267.049 150.56 266.778C149.262 266.086 147.699 265.595 146.007 265.352C143.948 265.056 141.793 265.142 139.823 265.598C137.853 266.054 136.161 266.859 134.967 267.908C134.407 268.4 133.968 268.935 133.661 269.496C133.11 270.5 132.2 271.474 131.054 271.469Z" fill="#0A7D30" stroke="#453C4E" mask="url(#path-51-inside-16_736_376)"/>
<rect x="0.115318" y="0.33514" width="1.25185" height="24.9626" rx="0.625927" transform="matrix(0.897616 0.440779 -0.436342 0.899781 228.775 261.967)" fill="#4CC05D" stroke="#453C4E" stroke-width="0.5"/>
<rect x="0.115318" y="0.33514" width="1.25185" height="24.9626" rx="0.625927" transform="matrix(0.897616 0.440779 -0.436342 0.899781 229.823 262.482)" fill="#4CC05D" stroke="#453C4E" stroke-width="0.5"/>
<rect x="0.115318" y="0.33514" width="1.25185" height="24.9626" rx="0.625927" transform="matrix(0.897616 0.440779 -0.436342 0.899781 230.871 262.997)" fill="#4CC05D" stroke="#453C4E" stroke-width="0.5"/>
<rect x="0.115318" y="0.33514" width="1.25185" height="24.9626" rx="0.625927" transform="matrix(0.897616 0.440779 -0.436342 0.899781 231.746 263.869)" fill="#4CC05D" stroke="#453C4E" stroke-width="0.5"/>
<rect x="0.115318" y="0.33514" width="1.25185" height="24.9626" rx="0.625927" transform="matrix(0.897616 0.440779 -0.436342 0.899781 227.726 261.452)" fill="#4CC05D" stroke="#453C4E" stroke-width="0.5"/>
<rect x="0.115318" y="0.33514" width="1.25185" height="24.9626" rx="0.625927" transform="matrix(0.897616 0.440779 -0.436342 0.899781 226.678 260.937)" fill="#4CC05D" stroke="#453C4E" stroke-width="0.5"/>
<rect x="0.115318" y="0.33514" width="1.25185" height="24.9626" rx="0.625927" transform="matrix(0.897616 0.440779 -0.436342 0.899781 225.456 260.781)" fill="#4CC05D" stroke="#453C4E" stroke-width="0.5"/>
<rect width="1.75185" height="25.4626" rx="0.875927" transform="matrix(0.897616 0.440779 -0.436342 0.899781 225.825 262.387)" fill="#4CC05D"/>
<rect x="0.115318" y="0.33514" width="1.25185" height="24.9626" rx="0.625927" transform="matrix(0.897616 0.440779 -0.436342 0.899781 225.983 262.369)" fill="#4CC05D" stroke="#453C4E" stroke-width="0.5"/>
<rect x="0.115318" y="0.33514" width="1.25185" height="24.9626" rx="0.625927" transform="matrix(0.897616 0.440779 -0.436342 0.899781 227.032 262.884)" fill="#4CC05D" stroke="#453C4E" stroke-width="0.5"/>
<rect x="0.115318" y="0.33514" width="1.25185" height="24.9626" rx="0.625927" transform="matrix(0.897616 0.440779 -0.436342 0.899781 230.177 264.429)" fill="#4CC05D" stroke="#453C4E" stroke-width="0.5"/>
<rect x="0.115318" y="0.33514" width="1.25185" height="24.9626" rx="0.625927" transform="matrix(0.897616 0.440779 -0.436342 0.899781 229.129 263.914)" fill="#4CC05D" stroke="#453C4E" stroke-width="0.5"/>
<rect x="0.115318" y="0.33514" width="1.25185" height="24.9626" rx="0.625927" transform="matrix(0.897616 0.440779 -0.436342 0.899781 228.08 263.399)" fill="#4CC05D" stroke="#453C4E" stroke-width="0.5"/>
<rect x="0.352016" y="0.0412549" width="1.25185" height="24.9626" rx="0.625927" transform="matrix(0.786135 -0.618055 0.621928 0.783074 195.821 251.617)" fill="#4CC05D" stroke="#453C4E" stroke-width="0.5"/>
<rect x="0.352016" y="0.0412549" width="1.25185" height="24.9626" rx="0.625927" transform="matrix(0.786135 -0.618055 0.621928 0.783074 196.739 250.895)" fill="#4CC05D" stroke="#453C4E" stroke-width="0.5"/>
<rect x="0.352016" y="0.0412549" width="1.25185" height="24.9626" rx="0.625927" transform="matrix(0.786135 -0.618055 0.621928 0.783074 197.658 250.174)" fill="#4CC05D" stroke="#453C4E" stroke-width="0.5"/>
<rect x="0.352016" y="0.0412549" width="1.25185" height="24.9626" rx="0.625927" transform="matrix(0.786135 -0.618055 0.621928 0.783074 198.823 249.763)" fill="#4CC05D" stroke="#453C4E" stroke-width="0.5"/>
<rect x="0.352016" y="0.0412549" width="1.25185" height="24.9626" rx="0.625927" transform="matrix(0.786135 -0.618055 0.621928 0.783074 194.903 252.339)" fill="#4CC05D" stroke="#453C4E" stroke-width="0.5"/>
<rect x="0.352016" y="0.0412549" width="1.25185" height="24.9626" rx="0.625927" transform="matrix(0.786135 -0.618055 0.621928 0.783074 193.985 253.061)" fill="#4CC05D" stroke="#453C4E" stroke-width="0.5"/>
<rect x="0.352016" y="0.0412549" width="1.25185" height="24.9626" rx="0.625927" transform="matrix(0.786135 -0.618055 0.621928 0.783074 193.314 254.094)" fill="#4CC05D" stroke="#453C4E" stroke-width="0.5"/>
<rect width="1.75185" height="25.4626" rx="0.875927" transform="matrix(0.786135 -0.618055 0.621928 0.783074 194.925 254.081)" fill="#4CC05D"/>
<rect x="0.352016" y="0.0412549" width="1.25185" height="24.9626" rx="0.625927" transform="matrix(0.786135 -0.618055 0.621928 0.783074 194.974 254.307)" fill="#4CC05D" stroke="#453C4E" stroke-width="0.5"/>
<rect x="0.352016" y="0.0412549" width="1.25185" height="24.9626" rx="0.625927" transform="matrix(0.786135 -0.618055 0.621928 0.783074 195.892 253.585)" fill="#4CC05D" stroke="#453C4E" stroke-width="0.5"/>
<rect x="0.352016" y="0.0412549" width="1.25185" height="24.9626" rx="0.625927" transform="matrix(0.786135 -0.618055 0.621928 0.783074 198.647 251.42)" fill="#4CC05D" stroke="#453C4E" stroke-width="0.5"/>
<rect x="0.352016" y="0.0412549" width="1.25185" height="24.9626" rx="0.625927" transform="matrix(0.786135 -0.618055 0.621928 0.783074 197.729 252.142)" fill="#4CC05D" stroke="#453C4E" stroke-width="0.5"/>
<rect x="0.352016" y="0.0412549" width="1.25185" height="24.9626" rx="0.625927" transform="matrix(0.786135 -0.618055 0.621928 0.783074 196.811 252.863)" fill="#4CC05D" stroke="#453C4E" stroke-width="0.5"/>
<path d="M269.065 138.237C268.552 138.42 268.214 138.448 268 138.416C267.823 138.39 267.683 138.316 267.539 138.145C267.378 137.954 267.228 137.657 267.091 137.229C266.956 136.808 266.845 136.301 266.733 135.713C266.288 133.387 265.858 129.926 263.722 126.612C261.585 123.296 258.262 120.936 256.137 119.276C255.601 118.856 255.149 118.488 254.801 118.16C254.448 117.826 254.241 117.569 254.149 117.369C254.07 117.197 254.08 117.08 254.165 116.964C254.269 116.822 254.516 116.646 255.032 116.462C257.066 115.74 260.299 115.954 263.574 117.172C266.83 118.383 270.044 120.559 272.04 123.656C274.036 126.754 274.339 130.038 273.602 132.742C272.86 135.462 271.091 137.517 269.065 138.237Z" fill="#0D97B5" stroke="#453C4E"/>
<path d="M269.798 135.111C269.289 135.292 268.95 135.322 268.736 135.293C268.557 135.269 268.433 135.202 268.315 135.065C268.177 134.905 268.053 134.653 267.952 134.286C267.853 133.927 267.787 133.498 267.736 133.011C267.638 132.079 267.593 130.859 267.444 129.755C267.293 128.629 267.022 127.47 266.408 126.517C265.799 125.572 264.685 124.573 263.498 123.613C262.898 123.128 262.264 122.64 261.645 122.164C261.024 121.687 260.419 121.221 259.866 120.771C258.736 119.85 257.92 119.07 257.618 118.463C257.476 118.179 257.471 117.98 257.547 117.826C257.626 117.663 257.834 117.473 258.319 117.3C259.269 116.963 260.407 117.01 261.659 117.36C262.915 117.711 264.252 118.358 265.549 119.173C268.149 120.809 270.473 123.051 271.532 124.695C272.585 126.328 273.177 128.596 272.971 130.64C272.765 132.686 271.774 134.409 269.798 135.111Z" fill="#1BB2D4" stroke="#453C4E"/>
<circle cx="218.5" cy="229.5" r="3.25" fill="#B1B525" stroke="#453C4E" stroke-width="0.5"/>
<circle cx="217.5" cy="228.5" r="0.5" fill="#453C4E"/>
<circle cx="218.5" cy="230.5" r="0.5" fill="#453C4E"/>
<circle cx="219.5" cy="228.5" r="0.5" fill="#453C4E"/>
<rect x="80.9303" y="208.882" width="31.8" height="1.8" transform="rotate(-52.2064 80.9303 208.882)" fill="#D318BA" stroke="#453C4E" stroke-width="0.2"/>
<circle cx="99.7878" cy="184.403" r="1" transform="rotate(-52.2064 99.7878 184.403)" fill="#10F504"/>
<circle cx="81.403" cy="208.11" r="1" transform="rotate(-52.2064 81.403 208.11)" fill="#10F504"/>
<circle cx="83.8542" cy="204.949" r="1" transform="rotate(-52.2064 83.8542 204.949)" fill="#D6F6D4"/>
<circle cx="82.6286" cy="206.529" r="1" transform="rotate(-52.2064 82.6286 206.529)" fill="#00AC9D"/>
<circle cx="96.1106" cy="189.144" r="1" transform="rotate(-52.2064 96.1106 189.144)" fill="#10F504"/>
<circle cx="98.5617" cy="185.983" r="1" transform="rotate(-52.2064 98.5617 185.983)" fill="#D6F6D4"/>
<circle cx="97.3362" cy="187.564" r="1" transform="rotate(-52.2064 97.3362 187.564)" fill="#00AC9D"/>
<circle cx="92.4338" cy="193.886" r="1" transform="rotate(-52.2064 92.4338 193.886)" fill="#10F504"/>
<circle cx="94.885" cy="190.725" r="1" transform="rotate(-52.2064 94.885 190.725)" fill="#D6F6D4"/>
<circle cx="93.6594" cy="192.305" r="1" transform="rotate(-52.2064 93.6594 192.305)" fill="#00AC9D"/>
<circle cx="88.757" cy="198.627" r="1" transform="rotate(-52.2064 88.757 198.627)" fill="#10F504"/>
<circle cx="91.2082" cy="195.466" r="1" transform="rotate(-52.2064 91.2082 195.466)" fill="#D6F6D4"/>
<circle cx="89.9826" cy="197.047" r="1" transform="rotate(-52.2064 89.9826 197.047)" fill="#00AC9D"/>
<circle cx="85.0798" cy="203.368" r="1" transform="rotate(-52.2064 85.0798 203.368)" fill="#10F504"/>
<circle cx="87.5315" cy="200.208" r="1" transform="rotate(-52.2064 87.5315 200.208)" fill="#D6F6D4"/>
<circle cx="86.3054" cy="201.788" r="1" transform="rotate(-52.2064 86.3054 201.788)" fill="#00AC9D"/>
<circle cx="84.032" cy="206.352" r="1" transform="rotate(-52.2064 84.032 206.352)" fill="#10F504"/>
<circle cx="86.4831" cy="203.191" r="1" transform="rotate(-52.2064 86.4831 203.191)" fill="#D6F6D4"/>
<circle cx="82.8059" cy="207.932" r="1" transform="rotate(-52.2064 82.8059 207.932)" fill="#D6F6D4"/>
<circle cx="85.2575" cy="204.771" r="1" transform="rotate(-52.2064 85.2575 204.771)" fill="#00AC9D"/>
<circle cx="98.7395" cy="187.387" r="1" transform="rotate(-52.2064 98.7395 187.387)" fill="#10F504"/>
<circle cx="95.0622" cy="192.128" r="1" transform="rotate(-52.2064 95.0622 192.128)" fill="#10F504"/>
<circle cx="97.5139" cy="188.967" r="1" transform="rotate(-52.2064 97.5139 188.967)" fill="#D6F6D4"/>
<circle cx="96.2883" cy="190.547" r="1" transform="rotate(-52.2064 96.2883 190.547)" fill="#00AC9D"/>
<circle cx="91.3855" cy="196.869" r="1" transform="rotate(-52.2064 91.3855 196.869)" fill="#10F504"/>
<circle cx="93.8366" cy="193.708" r="1" transform="rotate(-52.2064 93.8366 193.708)" fill="#D6F6D4"/>
<circle cx="92.6111" cy="195.289" r="1" transform="rotate(-52.2064 92.6111 195.289)" fill="#00AC9D"/>
<circle cx="87.7087" cy="201.611" r="1" transform="rotate(-52.2064 87.7087 201.611)" fill="#10F504"/>
<circle cx="90.1599" cy="198.45" r="1" transform="rotate(-52.2064 90.1599 198.45)" fill="#D6F6D4"/>
<circle cx="88.9343" cy="200.03" r="1" transform="rotate(-52.2064 88.9343 200.03)" fill="#00AC9D"/>
<circle cx="82.9836" cy="209.335" r="1" transform="rotate(-52.2064 82.9836 209.335)" fill="#10F504"/>
<circle cx="85.4348" cy="206.175" r="1" transform="rotate(-52.2064 85.4348 206.175)" fill="#D6F6D4"/>
<circle cx="84.2092" cy="207.755" r="1" transform="rotate(-52.2064 84.2092 207.755)" fill="#00AC9D"/>
<circle cx="97.6911" cy="190.37" r="1" transform="rotate(-52.2064 97.6911 190.37)" fill="#10F504"/>
<circle cx="94.0144" cy="195.111" r="1" transform="rotate(-52.2064 94.0144 195.111)" fill="#10F504"/>
<circle cx="96.4655" cy="191.95" r="1" transform="rotate(-52.2064 96.4655 191.95)" fill="#D6F6D4"/>
<circle cx="95.24" cy="193.531" r="1" transform="rotate(-52.2064 95.24 193.531)" fill="#00AC9D"/>
<circle cx="98.9167" cy="188.79" r="1" transform="rotate(-52.2064 98.9167 188.79)" fill="#00AC9D"/>
<circle cx="99.9651" cy="185.806" r="1" transform="rotate(-52.2064 99.9651 185.806)" fill="#00AC9D"/>
<circle cx="90.3371" cy="199.853" r="1" transform="rotate(-52.2064 90.3371 199.853)" fill="#10F504"/>
<circle cx="92.7888" cy="196.692" r="1" transform="rotate(-52.2064 92.7888 196.692)" fill="#D6F6D4"/>
<circle cx="91.5627" cy="198.272" r="1" transform="rotate(-52.2064 91.5627 198.272)" fill="#00AC9D"/>
<circle cx="86.6604" cy="204.594" r="1" transform="rotate(-52.2064 86.6604 204.594)" fill="#10F504"/>
<circle cx="89.1115" cy="201.433" r="1" transform="rotate(-52.2064 89.1115 201.433)" fill="#D6F6D4"/>
<circle cx="87.886" cy="203.014" r="1" transform="rotate(-52.2064 87.886 203.014)" fill="#00AC9D"/>
<circle cx="100.142" cy="187.209" r="1" transform="rotate(-52.2064 100.142 187.209)" fill="#D6F6D4"/>
<circle cx="101.368" cy="185.629" r="1" transform="rotate(-52.2064 101.368 185.629)" fill="#10F504"/>
<rect x="80.9303" y="215.882" width="31.8" height="1.8" transform="rotate(-52.2064 80.9303 215.882)" fill="#D318BA" stroke="#453C4E" stroke-width="0.2"/>
<circle cx="99.7878" cy="191.403" r="1" transform="rotate(-52.2064 99.7878 191.403)" fill="#10F504"/>
<circle cx="81.403" cy="215.11" r="1" transform="rotate(-52.2064 81.403 215.11)" fill="#10F504"/>
<circle cx="83.8542" cy="211.949" r="1" transform="rotate(-52.2064 83.8542 211.949)" fill="#D6F6D4"/>
<circle cx="82.6286" cy="213.529" r="1" transform="rotate(-52.2064 82.6286 213.529)" fill="#00AC9D"/>
<circle cx="96.1106" cy="196.144" r="1" transform="rotate(-52.2064 96.1106 196.144)" fill="#10F504"/>
<circle cx="98.5617" cy="192.983" r="1" transform="rotate(-52.2064 98.5617 192.983)" fill="#D6F6D4"/>
<circle cx="97.3362" cy="194.564" r="1" transform="rotate(-52.2064 97.3362 194.564)" fill="#00AC9D"/>
<circle cx="92.4338" cy="200.886" r="1" transform="rotate(-52.2064 92.4338 200.886)" fill="#10F504"/>
<circle cx="94.885" cy="197.725" r="1" transform="rotate(-52.2064 94.885 197.725)" fill="#D6F6D4"/>
<circle cx="93.6594" cy="199.305" r="1" transform="rotate(-52.2064 93.6594 199.305)" fill="#00AC9D"/>
<circle cx="88.757" cy="205.627" r="1" transform="rotate(-52.2064 88.757 205.627)" fill="#10F504"/>
<circle cx="91.2082" cy="202.466" r="1" transform="rotate(-52.2064 91.2082 202.466)" fill="#D6F6D4"/>
<circle cx="89.9826" cy="204.047" r="1" transform="rotate(-52.2064 89.9826 204.047)" fill="#00AC9D"/>
<circle cx="85.0798" cy="210.368" r="1" transform="rotate(-52.2064 85.0798 210.368)" fill="#10F504"/>
<circle cx="87.5315" cy="207.208" r="1" transform="rotate(-52.2064 87.5315 207.208)" fill="#D6F6D4"/>
<circle cx="86.3054" cy="208.788" r="1" transform="rotate(-52.2064 86.3054 208.788)" fill="#00AC9D"/>
<circle cx="84.032" cy="213.352" r="1" transform="rotate(-52.2064 84.032 213.352)" fill="#10F504"/>
<circle cx="86.4831" cy="210.191" r="1" transform="rotate(-52.2064 86.4831 210.191)" fill="#D6F6D4"/>
<circle cx="82.8059" cy="214.932" r="1" transform="rotate(-52.2064 82.8059 214.932)" fill="#D6F6D4"/>
<circle cx="85.2575" cy="211.771" r="1" transform="rotate(-52.2064 85.2575 211.771)" fill="#00AC9D"/>
<circle cx="98.7395" cy="194.387" r="1" transform="rotate(-52.2064 98.7395 194.387)" fill="#10F504"/>
<circle cx="95.0622" cy="199.128" r="1" transform="rotate(-52.2064 95.0622 199.128)" fill="#10F504"/>
<circle cx="97.5139" cy="195.967" r="1" transform="rotate(-52.2064 97.5139 195.967)" fill="#D6F6D4"/>
<circle cx="96.2883" cy="197.547" r="1" transform="rotate(-52.2064 96.2883 197.547)" fill="#00AC9D"/>
<circle cx="91.3855" cy="203.869" r="1" transform="rotate(-52.2064 91.3855 203.869)" fill="#10F504"/>
<circle cx="93.8366" cy="200.708" r="1" transform="rotate(-52.2064 93.8366 200.708)" fill="#D6F6D4"/>
<circle cx="92.6111" cy="202.289" r="1" transform="rotate(-52.2064 92.6111 202.289)" fill="#00AC9D"/>
<circle cx="87.7087" cy="208.611" r="1" transform="rotate(-52.2064 87.7087 208.611)" fill="#10F504"/>
<circle cx="90.1599" cy="205.45" r="1" transform="rotate(-52.2064 90.1599 205.45)" fill="#D6F6D4"/>
<circle cx="88.9343" cy="207.03" r="1" transform="rotate(-52.2064 88.9343 207.03)" fill="#00AC9D"/>
<circle cx="82.9836" cy="216.335" r="1" transform="rotate(-52.2064 82.9836 216.335)" fill="#10F504"/>
<circle cx="85.4348" cy="213.175" r="1" transform="rotate(-52.2064 85.4348 213.175)" fill="#D6F6D4"/>
<circle cx="84.2092" cy="214.755" r="1" transform="rotate(-52.2064 84.2092 214.755)" fill="#00AC9D"/>
<circle cx="97.6911" cy="197.37" r="1" transform="rotate(-52.2064 97.6911 197.37)" fill="#10F504"/>
<circle cx="94.0144" cy="202.111" r="1" transform="rotate(-52.2064 94.0144 202.111)" fill="#10F504"/>
<circle cx="96.4655" cy="198.95" r="1" transform="rotate(-52.2064 96.4655 198.95)" fill="#D6F6D4"/>
<circle cx="95.24" cy="200.531" r="1" transform="rotate(-52.2064 95.24 200.531)" fill="#00AC9D"/>
<circle cx="98.9167" cy="195.79" r="1" transform="rotate(-52.2064 98.9167 195.79)" fill="#00AC9D"/>
<circle cx="99.9651" cy="192.806" r="1" transform="rotate(-52.2064 99.9651 192.806)" fill="#00AC9D"/>
<circle cx="90.3371" cy="206.853" r="1" transform="rotate(-52.2064 90.3371 206.853)" fill="#10F504"/>
<circle cx="92.7888" cy="203.692" r="1" transform="rotate(-52.2064 92.7888 203.692)" fill="#D6F6D4"/>
<circle cx="91.5627" cy="205.272" r="1" transform="rotate(-52.2064 91.5627 205.272)" fill="#00AC9D"/>
<circle cx="86.6604" cy="211.594" r="1" transform="rotate(-52.2064 86.6604 211.594)" fill="#10F504"/>
<circle cx="89.1115" cy="208.433" r="1" transform="rotate(-52.2064 89.1115 208.433)" fill="#D6F6D4"/>
<circle cx="87.886" cy="210.014" r="1" transform="rotate(-52.2064 87.886 210.014)" fill="#00AC9D"/>
<circle cx="100.142" cy="194.209" r="1" transform="rotate(-52.2064 100.142 194.209)" fill="#D6F6D4"/>
<circle cx="101.368" cy="192.629" r="1" transform="rotate(-52.2064 101.368 192.629)" fill="#10F504"/>
<rect x="92.064" y="217.291" width="31.8" height="1.8" transform="rotate(-114.169 92.064 217.291)" fill="#D318BA" stroke="#453C4E" stroke-width="0.2"/>
<circle cx="79.3218" cy="189.141" r="1" transform="rotate(-114.169 79.3218 189.141)" fill="#10F504"/>
<circle cx="91.6045" cy="216.511" r="1" transform="rotate(-114.169 91.6045 216.511)" fill="#10F504"/>
<circle cx="89.9668" cy="212.862" r="1" transform="rotate(-114.169 89.9668 212.862)" fill="#D6F6D4"/>
<circle cx="90.7856" cy="214.686" r="1" transform="rotate(-114.169 90.7856 214.686)" fill="#00AC9D"/>
<circle cx="81.7783" cy="194.615" r="1" transform="rotate(-114.169 81.7783 194.615)" fill="#10F504"/>
<circle cx="80.1406" cy="190.965" r="1" transform="rotate(-114.169 80.1406 190.965)" fill="#D6F6D4"/>
<circle cx="80.9595" cy="192.79" r="1" transform="rotate(-114.169 80.9595 192.79)" fill="#00AC9D"/>
<circle cx="84.2348" cy="200.089" r="1" transform="rotate(-114.169 84.2348 200.089)" fill="#10F504"/>
<circle cx="82.5972" cy="196.439" r="1" transform="rotate(-114.169 82.5972 196.439)" fill="#D6F6D4"/>
<circle cx="83.416" cy="198.264" r="1" transform="rotate(-114.169 83.416 198.264)" fill="#00AC9D"/>
<circle cx="86.6914" cy="205.563" r="1" transform="rotate(-114.169 86.6914 205.563)" fill="#10F504"/>
<circle cx="85.0537" cy="201.913" r="1" transform="rotate(-114.169 85.0537 201.913)" fill="#D6F6D4"/>
<circle cx="85.8725" cy="203.738" r="1" transform="rotate(-114.169 85.8725 203.738)" fill="#00AC9D"/>
<circle cx="89.1479" cy="211.037" r="1" transform="rotate(-114.169 89.1479 211.037)" fill="#10F504"/>
<circle cx="87.5102" cy="207.387" r="1" transform="rotate(-114.169 87.5102 207.387)" fill="#D6F6D4"/>
<circle cx="88.3291" cy="209.212" r="1" transform="rotate(-114.169 88.3291 209.212)" fill="#00AC9D"/>
<circle cx="91.2886" cy="213.364" r="1" transform="rotate(-114.169 91.2886 213.364)" fill="#10F504"/>
<circle cx="89.6509" cy="209.715" r="1" transform="rotate(-114.169 89.6509 209.715)" fill="#D6F6D4"/>
<circle cx="92.1074" cy="215.189" r="1" transform="rotate(-114.169 92.1074 215.189)" fill="#D6F6D4"/>
<circle cx="90.4697" cy="211.54" r="1" transform="rotate(-114.169 90.4697 211.54)" fill="#00AC9D"/>
<circle cx="81.4624" cy="191.468" r="1" transform="rotate(-114.169 81.4624 191.468)" fill="#10F504"/>
<circle cx="83.9189" cy="196.942" r="1" transform="rotate(-114.169 83.9189 196.942)" fill="#10F504"/>
<circle cx="82.2812" cy="193.293" r="1" transform="rotate(-114.169 82.2812 193.293)" fill="#D6F6D4"/>
<circle cx="83.1001" cy="195.118" r="1" transform="rotate(-114.169 83.1001 195.118)" fill="#00AC9D"/>
<circle cx="86.3755" cy="202.416" r="1" transform="rotate(-114.169 86.3755 202.416)" fill="#10F504"/>
<circle cx="84.7378" cy="198.767" r="1" transform="rotate(-114.169 84.7378 198.767)" fill="#D6F6D4"/>
<circle cx="85.5566" cy="200.592" r="1" transform="rotate(-114.169 85.5566 200.592)" fill="#00AC9D"/>
<circle cx="88.832" cy="207.89" r="1" transform="rotate(-114.169 88.832 207.89)" fill="#10F504"/>
<circle cx="87.1943" cy="204.241" r="1" transform="rotate(-114.169 87.1943 204.241)" fill="#D6F6D4"/>
<circle cx="88.0132" cy="206.066" r="1" transform="rotate(-114.169 88.0132 206.066)" fill="#00AC9D"/>
<circle cx="93.4292" cy="215.692" r="1" transform="rotate(-114.169 93.4292 215.692)" fill="#10F504"/>
<circle cx="91.7915" cy="212.043" r="1" transform="rotate(-114.169 91.7915 212.043)" fill="#D6F6D4"/>
<circle cx="92.6103" cy="213.867" r="1" transform="rotate(-114.169 92.6103 213.867)" fill="#00AC9D"/>
<circle cx="83.603" cy="193.796" r="1" transform="rotate(-114.169 83.603 193.796)" fill="#10F504"/>
<circle cx="86.0596" cy="199.27" r="1" transform="rotate(-114.169 86.0596 199.27)" fill="#10F504"/>
<circle cx="84.4219" cy="195.62" r="1" transform="rotate(-114.169 84.4219 195.62)" fill="#D6F6D4"/>
<circle cx="85.2407" cy="197.445" r="1" transform="rotate(-114.169 85.2407 197.445)" fill="#00AC9D"/>
<circle cx="82.7842" cy="191.971" r="1" transform="rotate(-114.169 82.7842 191.971)" fill="#00AC9D"/>
<circle cx="80.6435" cy="189.643" r="1" transform="rotate(-114.169 80.6435 189.643)" fill="#00AC9D"/>
<circle cx="88.5161" cy="204.744" r="1" transform="rotate(-114.169 88.5161 204.744)" fill="#10F504"/>
<circle cx="86.8784" cy="201.095" r="1" transform="rotate(-114.169 86.8784 201.095)" fill="#D6F6D4"/>
<circle cx="87.6973" cy="202.919" r="1" transform="rotate(-114.169 87.6973 202.919)" fill="#00AC9D"/>
<circle cx="90.9726" cy="210.218" r="1" transform="rotate(-114.169 90.9726 210.218)" fill="#10F504"/>
<circle cx="89.3349" cy="206.569" r="1" transform="rotate(-114.169 89.3349 206.569)" fill="#D6F6D4"/>
<circle cx="90.1538" cy="208.393" r="1" transform="rotate(-114.169 90.1538 208.393)" fill="#00AC9D"/>
<circle cx="81.9653" cy="190.146" r="1" transform="rotate(-114.169 81.9653 190.146)" fill="#D6F6D4"/>
<circle cx="81.1465" cy="188.322" r="1" transform="rotate(-114.169 81.1465 188.322)" fill="#10F504"/>
<rect x="261.064" y="269.291" width="31.8" height="1.8" transform="rotate(-114.169 261.064 269.291)" fill="#D318BA" stroke="#453C4E" stroke-width="0.2"/>
<circle cx="248.322" cy="241.141" r="1" transform="rotate(-114.169 248.322 241.141)" fill="#10F504"/>
<circle cx="260.604" cy="268.511" r="1" transform="rotate(-114.169 260.604 268.511)" fill="#10F504"/>
<circle cx="258.967" cy="264.862" r="1" transform="rotate(-114.169 258.967 264.862)" fill="#D6F6D4"/>
<circle cx="259.786" cy="266.686" r="1" transform="rotate(-114.169 259.786 266.686)" fill="#00AC9D"/>
<circle cx="250.778" cy="246.615" r="1" transform="rotate(-114.169 250.778 246.615)" fill="#10F504"/>
<circle cx="249.141" cy="242.965" r="1" transform="rotate(-114.169 249.141 242.965)" fill="#D6F6D4"/>
<circle cx="249.959" cy="244.79" r="1" transform="rotate(-114.169 249.959 244.79)" fill="#00AC9D"/>
<circle cx="253.235" cy="252.089" r="1" transform="rotate(-114.169 253.235 252.089)" fill="#10F504"/>
<circle cx="251.597" cy="248.439" r="1" transform="rotate(-114.169 251.597 248.439)" fill="#D6F6D4"/>
<circle cx="252.416" cy="250.264" r="1" transform="rotate(-114.169 252.416 250.264)" fill="#00AC9D"/>
<circle cx="255.691" cy="257.563" r="1" transform="rotate(-114.169 255.691 257.563)" fill="#10F504"/>
<circle cx="254.054" cy="253.913" r="1" transform="rotate(-114.169 254.054 253.913)" fill="#D6F6D4"/>
<circle cx="254.873" cy="255.738" r="1" transform="rotate(-114.169 254.873 255.738)" fill="#00AC9D"/>
<circle cx="258.148" cy="263.037" r="1" transform="rotate(-114.169 258.148 263.037)" fill="#10F504"/>
<circle cx="256.51" cy="259.387" r="1" transform="rotate(-114.169 256.51 259.387)" fill="#D6F6D4"/>
<circle cx="257.329" cy="261.212" r="1" transform="rotate(-114.169 257.329 261.212)" fill="#00AC9D"/>
<circle cx="260.289" cy="265.364" r="1" transform="rotate(-114.169 260.289 265.364)" fill="#10F504"/>
<circle cx="258.651" cy="261.715" r="1" transform="rotate(-114.169 258.651 261.715)" fill="#D6F6D4"/>
<circle cx="261.107" cy="267.189" r="1" transform="rotate(-114.169 261.107 267.189)" fill="#D6F6D4"/>
<circle cx="259.47" cy="263.54" r="1" transform="rotate(-114.169 259.47 263.54)" fill="#00AC9D"/>
<circle cx="250.462" cy="243.468" r="1" transform="rotate(-114.169 250.462 243.468)" fill="#10F504"/>
<circle cx="252.919" cy="248.942" r="1" transform="rotate(-114.169 252.919 248.942)" fill="#10F504"/>
<circle cx="251.281" cy="245.293" r="1" transform="rotate(-114.169 251.281 245.293)" fill="#D6F6D4"/>
<circle cx="252.1" cy="247.118" r="1" transform="rotate(-114.169 252.1 247.118)" fill="#00AC9D"/>
<circle cx="255.375" cy="254.416" r="1" transform="rotate(-114.169 255.375 254.416)" fill="#10F504"/>
<circle cx="253.738" cy="250.767" r="1" transform="rotate(-114.169 253.738 250.767)" fill="#D6F6D4"/>
<circle cx="254.557" cy="252.592" r="1" transform="rotate(-114.169 254.557 252.592)" fill="#00AC9D"/>
<circle cx="257.832" cy="259.89" r="1" transform="rotate(-114.169 257.832 259.89)" fill="#10F504"/>
<circle cx="256.194" cy="256.241" r="1" transform="rotate(-114.169 256.194 256.241)" fill="#D6F6D4"/>
<circle cx="257.013" cy="258.066" r="1" transform="rotate(-114.169 257.013 258.066)" fill="#00AC9D"/>
<circle cx="262.429" cy="267.692" r="1" transform="rotate(-114.169 262.429 267.692)" fill="#10F504"/>
<circle cx="260.791" cy="264.043" r="1" transform="rotate(-114.169 260.791 264.043)" fill="#D6F6D4"/>
<circle cx="261.61" cy="265.867" r="1" transform="rotate(-114.169 261.61 265.867)" fill="#00AC9D"/>
<circle cx="252.603" cy="245.796" r="1" transform="rotate(-114.169 252.603 245.796)" fill="#10F504"/>
<circle cx="255.06" cy="251.27" r="1" transform="rotate(-114.169 255.06 251.27)" fill="#10F504"/>
<circle cx="253.422" cy="247.62" r="1" transform="rotate(-114.169 253.422 247.62)" fill="#D6F6D4"/>
<circle cx="254.241" cy="249.445" r="1" transform="rotate(-114.169 254.241 249.445)" fill="#00AC9D"/>
<circle cx="251.784" cy="243.971" r="1" transform="rotate(-114.169 251.784 243.971)" fill="#00AC9D"/>
<circle cx="249.644" cy="241.643" r="1" transform="rotate(-114.169 249.644 241.643)" fill="#00AC9D"/>
<circle cx="257.516" cy="256.744" r="1" transform="rotate(-114.169 257.516 256.744)" fill="#10F504"/>
<circle cx="255.878" cy="253.095" r="1" transform="rotate(-114.169 255.878 253.095)" fill="#D6F6D4"/>
<circle cx="256.697" cy="254.919" r="1" transform="rotate(-114.169 256.697 254.919)" fill="#00AC9D"/>
<circle cx="259.973" cy="262.218" r="1" transform="rotate(-114.169 259.973 262.218)" fill="#10F504"/>
<circle cx="258.335" cy="258.569" r="1" transform="rotate(-114.169 258.335 258.569)" fill="#D6F6D4"/>
<circle cx="259.154" cy="260.393" r="1" transform="rotate(-114.169 259.154 260.393)" fill="#00AC9D"/>
<circle cx="250.965" cy="242.146" r="1" transform="rotate(-114.169 250.965 242.146)" fill="#D6F6D4"/>
<circle cx="250.146" cy="240.322" r="1" transform="rotate(-114.169 250.146 240.322)" fill="#10F504"/>
<circle cx="189" cy="221" r="5.9" fill="#89227C" stroke="#453C4E" stroke-width="0.2"/>
<circle cx="189" cy="221" r="4.9" fill="#B767AC" stroke="#453C4E" stroke-width="0.2"/>
</svg>
