<svg width="303" height="322" viewBox="0 0 303 322" fill="none" xmlns="http://www.w3.org/2000/svg">
<path d="M281.703 81.0596V240.939L151.5 320.826L21.2969 240.939V81.0596L151.5 1.17285L281.703 81.0596Z" fill="#95DF98" stroke="#453C4E" stroke-width="2"/>
<path d="M274.408 87.5342V233.465L151.5 306.419L28.5918 233.465V87.5342L151.5 14.5801L274.408 87.5342Z" fill="#04931E" stroke="#453C4E"/>
<path d="M270.944 90.2852V231.714L151.5 302.418L32.0557 231.714V90.2852L151.5 19.5811L270.944 90.2852Z" fill="#CAFFCC" stroke="#453C4E"/>
<circle cx="109.023" cy="109.5" r="46" fill="#4C5584" stroke="#453C4E" stroke-width="3"/>
<circle cx="102.023" cy="88.5" r="11.5" fill="#5361A8" stroke="#453C4E" stroke-width="2"/>
<circle cx="206.5" cy="176.5" r="3.25" fill="#B1B525" stroke="#453C4E" stroke-width="0.5"/>
<circle cx="205.5" cy="175.5" r="0.5" fill="#453C4E"/>
<circle cx="206.5" cy="177.5" r="0.5" fill="#453C4E"/>
<circle cx="207.5" cy="175.5" r="0.5" fill="#453C4E"/>
<circle cx="148.5" cy="181.5" r="3.25" fill="#B1B525" stroke="#453C4E" stroke-width="0.5"/>
<circle cx="147.5" cy="180.5" r="0.5" fill="#453C4E"/>
<circle cx="148.5" cy="182.5" r="0.5" fill="#453C4E"/>
<circle cx="149.5" cy="180.5" r="0.5" fill="#453C4E"/>
<circle cx="159.5" cy="221.5" r="3.25" fill="#B1B525" stroke="#453C4E" stroke-width="0.5"/>
<circle cx="158.5" cy="220.5" r="0.5" fill="#453C4E"/>
<circle cx="159.5" cy="222.5" r="0.5" fill="#453C4E"/>
<circle cx="160.5" cy="220.5" r="0.5" fill="#453C4E"/>
<circle cx="248.5" cy="114.5" r="3.25" fill="#B1B525" stroke="#453C4E" stroke-width="0.5"/>
<circle cx="247.5" cy="113.5" r="0.5" fill="#453C4E"/>
<circle cx="248.5" cy="115.5" r="0.5" fill="#453C4E"/>
<circle cx="249.5" cy="113.5" r="0.5" fill="#453C4E"/>
<circle cx="187" cy="121" r="5.9" fill="#89227C" stroke="#453C4E" stroke-width="0.2"/>
<circle cx="187" cy="121" r="4.9" fill="#B767AC" stroke="#453C4E" stroke-width="0.2"/>
<circle cx="155" cy="44" r="5.9" fill="#89227C" stroke="#453C4E" stroke-width="0.2"/>
<circle cx="155" cy="44" r="4.9" fill="#B767AC" stroke="#453C4E" stroke-width="0.2"/>
<circle cx="48" cy="161" r="5.9" fill="#89227C" stroke="#453C4E" stroke-width="0.2"/>
<circle cx="48" cy="161" r="4.9" fill="#B767AC" stroke="#453C4E" stroke-width="0.2"/>
<mask id="path-28-inside-1_743_141" fill="white">
<path d="M140.048 152.598C140.602 153.292 141.614 153.413 142.3 152.847C150.033 146.46 155.95 138.186 159.432 128.864C163.1 119.045 163.922 108.456 161.805 98.2944C159.688 88.1326 154.715 78.8039 147.451 71.3638C140.555 64.3011 131.855 59.2079 122.248 56.5928C121.391 56.3596 120.518 56.8812 120.291 57.7396C120.057 58.6244 120.596 59.5267 121.479 59.7698C130.464 62.2451 138.599 67.0242 145.055 73.6367C151.896 80.6431 156.579 89.4281 158.573 98.9976C160.567 108.567 159.793 118.539 156.338 127.785C153.073 136.524 147.537 144.285 140.303 150.289C139.609 150.865 139.486 151.892 140.048 152.598Z"/>
</mask>
<path d="M140.048 152.598C140.602 153.292 141.614 153.413 142.3 152.847C150.033 146.46 155.95 138.186 159.432 128.864C163.1 119.045 163.922 108.456 161.805 98.2944C159.688 88.1326 154.715 78.8039 147.451 71.3638C140.555 64.3011 131.855 59.2079 122.248 56.5928C121.391 56.3596 120.518 56.8812 120.291 57.7396C120.057 58.6244 120.596 59.5267 121.479 59.7698C130.464 62.2451 138.599 67.0242 145.055 73.6367C151.896 80.6431 156.579 89.4281 158.573 98.9976C160.567 108.567 159.793 118.539 156.338 127.785C153.073 136.524 147.537 144.285 140.303 150.289C139.609 150.865 139.486 151.892 140.048 152.598Z" fill="#BA7300" stroke="#453C4E" mask="url(#path-28-inside-1_743_141)"/>
<mask id="path-29-inside-2_743_141" fill="white">
<path d="M140.048 152.598C140.602 153.292 141.614 153.413 142.3 152.847C150.033 146.46 155.95 138.186 159.432 128.864C163.1 119.045 163.922 108.456 161.805 98.2944C159.688 88.1326 154.715 78.8039 147.451 71.3638C140.555 64.3011 131.855 59.2079 122.248 56.5928C121.391 56.3596 120.518 56.8812 120.291 57.7396C120.057 58.6244 120.596 59.5267 121.479 59.7698C130.464 62.2451 138.599 67.0242 145.055 73.6367C151.896 80.6431 156.579 89.4281 158.573 98.9976C160.567 108.567 159.793 118.539 156.338 127.785C153.073 136.524 147.537 144.285 140.303 150.289C139.609 150.865 139.486 151.892 140.048 152.598Z"/>
</mask>
<path d="M140.048 152.598C140.602 153.292 141.614 153.413 142.3 152.847C150.033 146.46 155.95 138.186 159.432 128.864C163.1 119.045 163.922 108.456 161.805 98.2944C159.688 88.1326 154.715 78.8039 147.451 71.3638C140.555 64.3011 131.855 59.2079 122.248 56.5928C121.391 56.3596 120.518 56.8812 120.291 57.7396C120.057 58.6244 120.596 59.5267 121.479 59.7698C130.464 62.2451 138.599 67.0242 145.055 73.6367C151.896 80.6431 156.579 89.4281 158.573 98.9976C160.567 108.567 159.793 118.539 156.338 127.785C153.073 136.524 147.537 144.285 140.303 150.289C139.609 150.865 139.486 151.892 140.048 152.598Z" fill="#BA7300" stroke="#453C4E" mask="url(#path-29-inside-2_743_141)"/>
<mask id="path-30-inside-3_743_141" fill="white">
<path d="M61.4509 143.247C60.5948 143.591 60.2091 144.592 60.6479 145.403C65.0832 153.608 72.2433 160.412 81.2704 164.973C90.849 169.812 102.061 171.887 113.37 170.914C124.679 169.941 135.533 165.967 144.442 159.538C152.838 153.48 159.121 145.52 162.543 136.642C162.877 135.773 162.342 134.826 161.433 134.627C160.659 134.458 159.884 134.897 159.603 135.638C156.402 144.095 150.448 151.678 142.467 157.437C134.077 163.492 123.856 167.234 113.206 168.15C102.556 169.066 91.9977 167.112 82.9774 162.555C74.4337 158.239 67.666 151.788 63.4941 144.01C63.1008 143.276 62.2229 142.937 61.4509 143.247Z"/>
</mask>
<path d="M61.4509 143.247C60.5948 143.591 60.2091 144.592 60.6479 145.403C65.0832 153.608 72.2433 160.412 81.2704 164.973C90.849 169.812 102.061 171.887 113.37 170.914C124.679 169.941 135.533 165.967 144.442 159.538C152.838 153.48 159.121 145.52 162.543 136.642C162.877 135.773 162.342 134.826 161.433 134.627C160.659 134.458 159.884 134.897 159.603 135.638C156.402 144.095 150.448 151.678 142.467 157.437C134.077 163.492 123.856 167.234 113.206 168.15C102.556 169.066 91.9977 167.112 82.9774 162.555C74.4337 158.239 67.666 151.788 63.4941 144.01C63.1008 143.276 62.2229 142.937 61.4509 143.247Z" fill="#BA7300" stroke="#453C4E" mask="url(#path-30-inside-3_743_141)"/>
<mask id="path-31-inside-4_743_141" fill="white">
<path d="M47.8538 125.387C47.1102 125.514 46.6041 126.214 46.7341 126.957C48.2561 135.656 51.555 143.874 56.3589 150.912C61.0554 157.792 67.0481 163.335 73.8453 167.102C74.6586 167.553 75.6694 167.148 75.9812 166.272C76.2418 165.539 75.9157 164.73 75.2332 164.357C68.7275 160.808 62.9932 155.535 58.512 148.971C54.0112 142.377 50.9133 134.684 49.4704 126.538C49.3355 125.777 48.616 125.256 47.8538 125.387Z"/>
</mask>
<path d="M47.8538 125.387C47.1102 125.514 46.6041 126.214 46.7341 126.957C48.2561 135.656 51.555 143.874 56.3589 150.912C61.0554 157.792 67.0481 163.335 73.8453 167.102C74.6586 167.553 75.6694 167.148 75.9812 166.272C76.2418 165.539 75.9157 164.73 75.2332 164.357C68.7275 160.808 62.9932 155.535 58.512 148.971C54.0112 142.377 50.9133 134.684 49.4704 126.538C49.3355 125.777 48.616 125.256 47.8538 125.387Z" fill="#BA7300" stroke="#453C4E" mask="url(#path-31-inside-4_743_141)"/>
<mask id="path-32-inside-5_743_141" fill="white">
<path d="M163.662 129.327C164.442 129.801 165.463 129.528 165.866 128.708C169.312 121.702 170.8 113.711 170.186 105.431C169.557 96.9549 166.747 88.4624 162.022 80.7329C161.646 80.1163 160.856 79.9034 160.212 80.2318C159.473 80.609 159.221 81.5411 159.65 82.2519C163.99 89.4506 166.572 97.3385 167.156 105.211C167.736 113.029 166.326 120.575 163.062 127.185C162.685 127.949 162.934 128.884 163.662 129.327Z"/>
</mask>
<path d="M163.662 129.327C164.442 129.801 165.463 129.528 165.866 128.708C169.312 121.702 170.8 113.711 170.186 105.431C169.557 96.9549 166.747 88.4624 162.022 80.7329C161.646 80.1163 160.856 79.9034 160.212 80.2318C159.473 80.609 159.221 81.5411 159.65 82.2519C163.99 89.4506 166.572 97.3385 167.156 105.211C167.736 113.029 166.326 120.575 163.062 127.185C162.685 127.949 162.934 128.884 163.662 129.327Z" fill="#BA7300" stroke="#453C4E" mask="url(#path-32-inside-5_743_141)"/>
<mask id="path-33-inside-6_743_141" fill="white">
<path d="M61.2589 88.9315C60.4466 88.6132 59.5288 89.0192 59.2411 89.8427C55.3953 100.85 54.7573 112.729 57.4314 123.9C60.2267 135.576 66.4956 145.871 75.3293 153.291C84.163 160.712 95.1023 164.873 106.561 165.17C117.536 165.456 128.44 162.183 137.825 155.81C138.526 155.334 138.712 154.389 138.264 153.67C137.773 152.879 136.716 152.672 135.943 153.191C127.162 159.081 116.989 162.102 106.752 161.836C95.9612 161.556 85.6596 157.637 77.3408 150.649C69.022 143.661 63.1184 133.967 60.4861 122.971C57.9721 112.47 58.5667 101.303 62.1718 90.9522C62.4541 90.1418 62.0579 89.2446 61.2589 88.9315Z"/>
</mask>
<path d="M61.2589 88.9315C60.4466 88.6132 59.5288 89.0192 59.2411 89.8427C55.3953 100.85 54.7573 112.729 57.4314 123.9C60.2267 135.576 66.4956 145.871 75.3293 153.291C84.163 160.712 95.1023 164.873 106.561 165.17C117.536 165.456 128.44 162.183 137.825 155.81C138.526 155.334 138.712 154.389 138.264 153.67C137.773 152.879 136.716 152.672 135.943 153.191C127.162 159.081 116.989 162.102 106.752 161.836C95.9612 161.556 85.6596 157.637 77.3408 150.649C69.022 143.661 63.1184 133.967 60.4861 122.971C57.9721 112.47 58.5667 101.303 62.1718 90.9522C62.4541 90.1418 62.0579 89.2446 61.2589 88.9315Z" fill="#BA7300" stroke="#453C4E" mask="url(#path-33-inside-6_743_141)"/>
<circle cx="176.5" cy="61.5" r="3.25" fill="#B1B525" stroke="#453C4E" stroke-width="0.5"/>
<circle cx="175.5" cy="60.5" r="0.5" fill="#453C4E"/>
<circle cx="176.5" cy="62.5" r="0.5" fill="#453C4E"/>
<circle cx="177.5" cy="60.5" r="0.5" fill="#453C4E"/>
<circle cx="175" cy="165" r="1.75" fill="#D925C1" stroke="#453C4E" stroke-width="0.5"/>
<circle cx="203" cy="69" r="1.75" fill="#D925C1" stroke="#453C4E" stroke-width="0.5"/>
<path d="M174.12 237.847C172.221 235.627 171.147 233.757 170.7 232.144C170.264 230.572 170.413 229.206 171.045 227.903C171.692 226.567 172.853 225.287 174.459 223.981C176.058 222.68 178.06 221.384 180.349 219.994C189.479 214.451 203.069 207.511 212.76 193.111C222.451 178.708 225.88 160.356 228.791 148.003C229.521 144.906 230.215 142.197 230.963 140.01C231.714 137.814 232.502 136.203 233.394 135.247C234.262 134.318 235.242 133.992 236.463 134.4C237.716 134.819 239.245 136.019 241.146 138.241C248.727 147.1 254.325 162.96 255.624 180.195C256.921 197.415 253.919 215.92 244.391 230.079C234.862 244.24 221.104 250.638 207.799 251.256C194.482 251.874 181.696 246.701 174.12 237.847Z" fill="#0D97B5" stroke="#453C4E"/>
<path d="M183.246 239.547C181.017 236.933 179.771 234.616 179.266 232.547C178.766 230.495 178.982 228.633 179.765 226.867C180.558 225.08 181.936 223.386 183.766 221.741C185.592 220.1 187.839 218.532 190.336 216.981C192.833 215.431 195.568 213.906 198.368 212.347C201.165 210.789 204.026 209.198 206.763 207.52C212.225 204.172 217.252 200.446 220.325 195.88C223.409 191.297 225.168 184.582 226.373 177.512C227.577 170.453 228.251 162.88 229.1 156.659C229.528 153.53 230 150.733 230.606 148.459C231.214 146.175 231.94 144.487 232.842 143.506C233.715 142.557 234.787 142.232 236.205 142.77C237.654 143.32 239.46 144.772 241.721 147.414C250.711 157.921 253.949 173.004 253.429 187.735C252.909 202.475 248.628 216.773 242.675 225.62C236.715 234.477 226.967 241.933 216.132 245.177C205.315 248.416 193.461 247.444 183.246 239.547Z" fill="#1BB2D4" stroke="#1BB2D4"/>
<path d="M204.5 224C207.469 224 210 226.615 210 230C210 233.385 207.469 236 204.5 236C201.531 236 199 233.385 199 230C199 226.615 201.531 224 204.5 224Z" fill="#8994CA" stroke="#202F4A" stroke-width="2"/>
<rect width="0.88062" height="11.3976" rx="0.44031" transform="matrix(0.990791 -0.135397 0.124827 0.992178 224.627 208.512)" fill="#453C4E"/>
<rect width="0.901841" height="11.138" rx="0.45092" transform="matrix(0.629631 0.776894 -0.750603 0.660754 237.527 208.393)" fill="#453C4E"/>
<rect width="0.894924" height="11.2239" rx="0.447462" transform="matrix(0.763289 0.646058 -0.614664 0.788789 243.4 184.506)" fill="#453C4E"/>
<rect width="0.894924" height="11.2239" rx="0.447462" transform="matrix(0.763289 0.646058 -0.614664 0.788789 243.4 179.729)" fill="#453C4E"/>
<mask id="path-47-inside-7_743_141" fill="white">
<path d="M125.093 198.814C127.365 197.401 130.271 198.368 129.56 200.948C129.53 201.057 129.498 201.167 129.464 201.278C128.836 203.312 127.504 205.634 125.546 208.11C123.587 210.587 121.039 213.17 118.048 215.712C115.058 218.254 111.682 220.705 108.114 222.925C104.546 225.145 100.856 227.091 97.2542 228.652C93.6526 230.213 90.21 231.357 87.1229 232.021C84.0358 232.684 81.3647 232.853 79.2622 232.518C79.1475 232.5 79.0345 232.48 78.9234 232.459C76.295 231.956 76.7108 228.922 78.9828 227.508L80.0252 226.86C81.7215 225.804 84.1864 226.342 86.1595 226.656C87.6253 226.89 89.4875 226.772 91.6397 226.309C93.7919 225.847 96.192 225.049 98.7029 223.961C101.214 222.873 103.786 221.516 106.274 219.968C108.761 218.42 111.115 216.712 113.2 214.94C115.285 213.167 117.061 211.367 118.427 209.64C119.792 207.913 120.72 206.295 121.158 204.877C121.748 202.968 122.354 200.519 124.051 199.463L125.093 198.814Z"/>
</mask>
<path d="M125.093 198.814C127.365 197.401 130.271 198.368 129.56 200.948C129.53 201.057 129.498 201.167 129.464 201.278C128.836 203.312 127.504 205.634 125.546 208.11C123.587 210.587 121.039 213.17 118.048 215.712C115.058 218.254 111.682 220.705 108.114 222.925C104.546 225.145 100.856 227.091 97.2542 228.652C93.6526 230.213 90.21 231.357 87.1229 232.021C84.0358 232.684 81.3647 232.853 79.2622 232.518C79.1475 232.5 79.0345 232.48 78.9234 232.459C76.295 231.956 76.7108 228.922 78.9828 227.508L80.0252 226.86C81.7215 225.804 84.1864 226.342 86.1595 226.656C87.6253 226.89 89.4875 226.772 91.6397 226.309C93.7919 225.847 96.192 225.049 98.7029 223.961C101.214 222.873 103.786 221.516 106.274 219.968C108.761 218.42 111.115 216.712 113.2 214.94C115.285 213.167 117.061 211.367 118.427 209.64C119.792 207.913 120.72 206.295 121.158 204.877C121.748 202.968 122.354 200.519 124.051 199.463L125.093 198.814Z" fill="#0A7D30" stroke="#453C4E" mask="url(#path-47-inside-7_743_141)"/>
<mask id="path-48-inside-8_743_141" fill="white">
<path d="M91.1145 250.199C89.1728 251.395 86.6024 250.635 86.9243 248.38C86.983 247.968 87.0731 247.541 87.1946 247.101C87.7755 244.996 89.0634 242.614 90.9847 240.093C92.9059 237.571 95.4229 234.96 98.392 232.406C101.361 229.853 104.724 227.408 108.289 225.212C111.854 223.016 115.551 221.11 119.169 219.605C122.787 218.1 126.255 217.024 129.375 216.439C132.495 215.855 135.206 215.772 137.354 216.197C137.803 216.285 138.225 216.396 138.621 216.528C140.786 217.251 140.317 219.884 138.375 221.08L138.29 221.132C136.395 222.3 133.683 221.665 131.498 221.233C129.906 220.918 127.897 220.979 125.585 221.413C123.273 221.846 120.704 222.643 118.023 223.758C115.342 224.874 112.603 226.285 109.961 227.913C107.32 229.54 104.828 231.352 102.628 233.244C100.428 235.136 98.5628 237.071 97.1392 238.939C95.7156 240.807 94.7613 242.572 94.3308 244.132C93.7396 246.275 93.0944 248.979 91.1997 250.146L91.1145 250.199Z"/>
</mask>
<path d="M91.1145 250.199C89.1728 251.395 86.6024 250.635 86.9243 248.38C86.983 247.968 87.0731 247.541 87.1946 247.101C87.7755 244.996 89.0634 242.614 90.9847 240.093C92.9059 237.571 95.4229 234.96 98.392 232.406C101.361 229.853 104.724 227.408 108.289 225.212C111.854 223.016 115.551 221.11 119.169 219.605C122.787 218.1 126.255 217.024 129.375 216.439C132.495 215.855 135.206 215.772 137.354 216.197C137.803 216.285 138.225 216.396 138.621 216.528C140.786 217.251 140.317 219.884 138.375 221.08L138.29 221.132C136.395 222.3 133.683 221.665 131.498 221.233C129.906 220.918 127.897 220.979 125.585 221.413C123.273 221.846 120.704 222.643 118.023 223.758C115.342 224.874 112.603 226.285 109.961 227.913C107.32 229.54 104.828 231.352 102.628 233.244C100.428 235.136 98.5628 237.071 97.1392 238.939C95.7156 240.807 94.7613 242.572 94.3308 244.132C93.7396 246.275 93.0944 248.979 91.1997 250.146L91.1145 250.199Z" fill="#0A7D30" stroke="#453C4E" mask="url(#path-48-inside-8_743_141)"/>
<mask id="path-49-inside-9_743_141" fill="white">
<path d="M100.579 251.795C99.4333 252.501 97.8928 252.141 97.564 250.837C97.2804 249.713 97.2174 248.485 97.3802 247.18C97.6592 244.946 98.5942 242.543 100.12 240.139C101.645 237.736 103.724 235.39 106.211 233.267C108.266 231.512 110.558 229.945 112.975 228.637C113.763 228.211 114.728 228.653 114.959 229.518C115.135 230.176 114.817 230.862 114.215 231.183C112.251 232.23 110.387 233.496 108.722 234.918C106.763 236.59 105.126 238.438 103.925 240.331C102.723 242.224 101.987 244.117 101.767 245.876C101.663 246.711 101.676 247.507 101.804 248.251C102.033 249.576 101.724 251.089 100.579 251.795Z"/>
</mask>
<path d="M100.579 251.795C99.4333 252.501 97.8928 252.141 97.564 250.837C97.2804 249.713 97.2174 248.485 97.3802 247.18C97.6592 244.946 98.5942 242.543 100.12 240.139C101.645 237.736 103.724 235.39 106.211 233.267C108.266 231.512 110.558 229.945 112.975 228.637C113.763 228.211 114.728 228.653 114.959 229.518C115.135 230.176 114.817 230.862 114.215 231.183C112.251 232.23 110.387 233.496 108.722 234.918C106.763 236.59 105.126 238.438 103.925 240.331C102.723 242.224 101.987 244.117 101.767 245.876C101.663 246.711 101.676 247.507 101.804 248.251C102.033 249.576 101.724 251.089 100.579 251.795Z" fill="#0A7D30" stroke="#453C4E" mask="url(#path-49-inside-9_743_141)"/>
<mask id="path-50-inside-10_743_141" fill="white">
<path d="M115.969 228.468C115.922 227.85 116.281 227.271 116.863 227.057C120.528 225.713 124.14 225.076 127.327 225.218C129.621 225.32 131.631 225.824 133.256 226.691C134.522 227.367 134.396 229.059 133.236 229.901C132.294 230.584 131 230.44 129.98 229.875C128.674 229.151 127.043 228.731 125.173 228.648C122.956 228.549 120.479 228.926 117.941 229.741C117.026 230.035 116.042 229.425 115.969 228.468Z"/>
</mask>
<path d="M115.969 228.468C115.922 227.85 116.281 227.271 116.863 227.057C120.528 225.713 124.14 225.076 127.327 225.218C129.621 225.32 131.631 225.824 133.256 226.691C134.522 227.367 134.396 229.059 133.236 229.901C132.294 230.584 131 230.44 129.98 229.875C128.674 229.151 127.043 228.731 125.173 228.648C122.956 228.549 120.479 228.926 117.941 229.741C117.026 230.035 116.042 229.425 115.969 228.468Z" fill="#0A7D30" stroke="#453C4E" mask="url(#path-50-inside-10_743_141)"/>
<mask id="path-51-inside-11_743_141" fill="white">
<path d="M111.624 209.9C112.836 210.123 113.369 211.543 112.529 212.442C110.544 214.565 108.171 216.533 105.548 218.224C102.098 220.448 98.3415 222.11 94.6716 223.036C91.0018 223.961 87.5532 224.116 84.686 223.485C82.839 223.078 81.2769 222.355 80.0606 221.354C78.971 220.457 79.347 218.843 80.5459 218.1C81.7366 217.363 83.296 217.776 84.4452 218.579C85.3195 219.189 86.3848 219.639 87.6117 219.909C89.8428 220.4 92.5262 220.28 95.3817 219.559C98.2372 218.839 101.16 217.546 103.845 215.816C106.223 214.283 108.337 212.456 110.016 210.489C110.413 210.024 111.022 209.789 111.624 209.9Z"/>
</mask>
<path d="M111.624 209.9C112.836 210.123 113.369 211.543 112.529 212.442C110.544 214.565 108.171 216.533 105.548 218.224C102.098 220.448 98.3415 222.11 94.6716 223.036C91.0018 223.961 87.5532 224.116 84.686 223.485C82.839 223.078 81.2769 222.355 80.0606 221.354C78.971 220.457 79.347 218.843 80.5459 218.1C81.7366 217.363 83.296 217.776 84.4452 218.579C85.3195 219.189 86.3848 219.639 87.6117 219.909C89.8428 220.4 92.5262 220.28 95.3817 219.559C98.2372 218.839 101.16 217.546 103.845 215.816C106.223 214.283 108.337 212.456 110.016 210.489C110.413 210.024 111.022 209.789 111.624 209.9Z" fill="#0A7D30" stroke="#453C4E" mask="url(#path-51-inside-11_743_141)"/>
<mask id="path-52-inside-12_743_141" fill="white">
<path d="M115.234 196.675C116.431 195.938 118.042 196.316 118.368 197.682C118.644 198.839 118.688 200.104 118.497 201.447C118.203 203.502 117.361 205.692 116.025 207.887C115.704 208.415 115.105 208.702 114.487 208.654C113.184 208.554 112.461 207.079 112.989 205.887C113.462 204.82 113.776 203.77 113.92 202.761C114.039 201.927 114.041 201.131 113.927 200.385C113.716 198.997 114.038 197.413 115.234 196.675Z"/>
</mask>
<path d="M115.234 196.675C116.431 195.938 118.042 196.316 118.368 197.682C118.644 198.839 118.688 200.104 118.497 201.447C118.203 203.502 117.361 205.692 116.025 207.887C115.704 208.415 115.105 208.702 114.487 208.654C113.184 208.554 112.461 207.079 112.989 205.887C113.462 204.82 113.776 203.77 113.92 202.761C114.039 201.927 114.041 201.131 113.927 200.385C113.716 198.997 114.038 197.413 115.234 196.675Z" fill="#0A7D30" stroke="#453C4E" mask="url(#path-52-inside-12_743_141)"/>
<mask id="path-53-inside-13_743_141" fill="white">
<path d="M106.128 199.272C107.106 198.675 108.425 198.992 108.63 200.118C108.738 200.711 108.762 201.342 108.699 202C108.563 203.433 108.02 204.967 107.107 206.498C106.194 208.029 104.933 209.522 103.408 210.876C102.238 211.914 100.933 212.853 99.5481 213.655C98.8836 214.04 98.0476 213.695 97.802 212.969C97.6013 212.375 97.8718 211.729 98.4139 211.413C99.3906 210.844 100.311 210.18 101.137 209.446C102.23 208.476 103.134 207.406 103.788 206.308C104.443 205.211 104.832 204.111 104.93 203.084C104.955 202.822 104.961 202.566 104.948 202.318C104.888 201.175 105.149 199.869 106.128 199.272Z"/>
</mask>
<path d="M106.128 199.272C107.106 198.675 108.425 198.992 108.63 200.118C108.738 200.711 108.762 201.342 108.699 202C108.563 203.433 108.02 204.967 107.107 206.498C106.194 208.029 104.933 209.522 103.408 210.876C102.238 211.914 100.933 212.853 99.5481 213.655C98.8836 214.04 98.0476 213.695 97.802 212.969C97.6013 212.375 97.8718 211.729 98.4139 211.413C99.3906 210.844 100.311 210.18 101.137 209.446C102.23 208.476 103.134 207.406 103.788 206.308C104.443 205.211 104.832 204.111 104.93 203.084C104.955 202.822 104.961 202.566 104.948 202.318C104.888 201.175 105.149 199.869 106.128 199.272Z" fill="#0A7D30" stroke="#453C4E" mask="url(#path-53-inside-13_743_141)"/>
<mask id="path-54-inside-14_743_141" fill="white">
<path d="M96.8577 213.926C96.9631 214.507 96.6544 215.088 96.1005 215.298C93.3978 216.322 90.7066 216.74 88.3897 216.488C86.6763 216.301 85.2356 215.754 84.1618 214.901C83.272 214.194 83.6028 212.899 84.5762 212.315C85.5685 211.72 86.8678 212.104 87.867 212.691C88.5588 213.098 89.4048 213.364 90.372 213.469C91.7932 213.624 93.4108 213.427 95.0619 212.906C95.8469 212.659 96.7112 213.118 96.8577 213.926Z"/>
</mask>
<path d="M96.8577 213.926C96.9631 214.507 96.6544 215.088 96.1005 215.298C93.3978 216.322 90.7066 216.74 88.3897 216.488C86.6763 216.301 85.2356 215.754 84.1618 214.901C83.272 214.194 83.6028 212.899 84.5762 212.315C85.5685 211.72 86.8678 212.104 87.867 212.691C88.5588 213.098 89.4048 213.364 90.372 213.469C91.7932 213.624 93.4108 213.427 95.0619 212.906C95.8469 212.659 96.7112 213.118 96.8577 213.926Z" fill="#0A7D30" stroke="#453C4E" mask="url(#path-54-inside-14_743_141)"/>
<mask id="path-55-inside-15_743_141" fill="white">
<path d="M123.297 232.498C123.601 232.075 124.104 231.83 124.62 231.905C126.098 232.119 127.301 232.643 128.154 233.434C128.927 234.15 128.518 235.324 127.597 235.835L127.171 236.072C126.33 236.54 125.255 236.128 124.467 235.574C124.414 235.537 124.359 235.501 124.303 235.466C123.296 234.833 122.604 233.462 123.297 232.498Z"/>
</mask>
<path d="M123.297 232.498C123.601 232.075 124.104 231.83 124.62 231.905C126.098 232.119 127.301 232.643 128.154 233.434C128.927 234.15 128.518 235.324 127.597 235.835L127.171 236.072C126.33 236.54 125.255 236.128 124.467 235.574C124.414 235.537 124.359 235.501 124.303 235.466C123.296 234.833 122.604 233.462 123.297 232.498Z" fill="#0A7D30" stroke="#453C4E" mask="url(#path-55-inside-15_743_141)"/>
<mask id="path-56-inside-16_743_141" fill="white">
<path d="M106.767 249.05C105.791 249.651 104.473 249.338 104.264 248.212C104.059 247.1 104.151 245.861 104.545 244.555C105.186 242.432 106.597 240.231 108.594 238.239C110.591 236.247 113.081 234.557 115.738 233.389C117.485 232.621 119.252 232.103 120.937 231.857C122.088 231.688 122.808 232.911 122.242 233.925C121.961 234.427 121.424 234.723 120.85 234.761C119.382 234.859 117.796 235.268 116.231 235.955C114.326 236.792 112.542 238.004 111.11 239.432C109.679 240.86 108.667 242.438 108.208 243.959C107.992 244.673 107.903 245.358 107.938 245.997C108 247.141 107.743 248.449 106.767 249.05Z"/>
</mask>
<path d="M106.767 249.05C105.791 249.651 104.473 249.338 104.264 248.212C104.059 247.1 104.151 245.861 104.545 244.555C105.186 242.432 106.597 240.231 108.594 238.239C110.591 236.247 113.081 234.557 115.738 233.389C117.485 232.621 119.252 232.103 120.937 231.857C122.088 231.688 122.808 232.911 122.242 233.925C121.961 234.427 121.424 234.723 120.85 234.761C119.382 234.859 117.796 235.268 116.231 235.955C114.326 236.792 112.542 238.004 111.11 239.432C109.679 240.86 108.667 242.438 108.208 243.959C107.992 244.673 107.903 245.358 107.938 245.997C108 247.141 107.743 248.449 106.767 249.05Z" fill="#0A7D30" stroke="#453C4E" mask="url(#path-56-inside-16_743_141)"/>
<path d="M226.462 82.0674C227.928 83.4204 228.341 86.0381 227.328 89.5575C226.334 93.0126 224.035 97.0263 220.627 100.733C217.219 104.44 213.415 107.067 210.06 108.343C206.642 109.643 204.004 109.446 202.538 108.092C201.072 106.739 200.659 104.122 201.671 100.602C202.665 97.1472 204.966 93.1337 208.374 89.4265C211.782 85.7196 215.585 83.0933 218.94 81.817C222.358 80.517 224.995 80.7145 226.462 82.0674Z" fill="#458FFF" stroke="#453C4E" stroke-width="2"/>
<path d="M216.475 93.7076C216.075 93.3663 215.747 92.9496 215.508 92.4811C215.269 92.0126 215.125 91.5016 215.084 90.9773C215.042 90.453 215.104 89.9256 215.266 89.4252C215.427 88.9248 215.686 88.4613 216.027 88.061C216.367 87.6608 216.783 87.3317 217.251 87.0926C217.719 86.8534 218.229 86.7088 218.752 86.6672C219.275 86.6255 219.802 86.6875 220.301 86.8496C220.8 87.0118 221.263 87.2709 221.663 87.6122L221.133 88.2344C220.815 87.9628 220.447 87.7566 220.049 87.6276C219.652 87.4985 219.233 87.4492 218.817 87.4824C218.4 87.5155 217.994 87.6306 217.622 87.8209C217.25 88.0112 216.919 88.2731 216.648 88.5917C216.377 88.9102 216.171 89.2791 216.042 89.6773C215.913 90.0755 215.864 90.4952 215.897 90.9125C215.93 91.3298 216.045 91.7364 216.235 92.1092C216.425 92.4821 216.686 92.8137 217.004 93.0853L216.475 93.7076Z" fill="#453C4E"/>
<path d="M207.147 104.536C206.747 104.195 206.419 103.778 206.18 103.309C205.942 102.841 205.798 102.33 205.756 101.805C205.715 101.28 205.777 100.753 205.939 100.252C206.101 99.7511 206.36 99.2871 206.701 98.8865C207.042 98.4859 207.459 98.1564 207.927 97.9169C208.394 97.6774 208.905 97.5325 209.428 97.4905C209.952 97.4485 210.479 97.5103 210.978 97.6723C211.478 97.8343 211.94 98.0933 212.34 98.4346L211.81 99.0575C211.492 98.7859 211.124 98.5798 210.726 98.4508C210.328 98.3219 209.909 98.2728 209.493 98.3062C209.076 98.3396 208.67 98.4549 208.298 98.6455C207.925 98.8361 207.594 99.0983 207.323 99.4171C207.051 99.736 206.845 100.105 206.716 100.504C206.587 100.902 206.538 101.322 206.57 101.74C206.603 102.157 206.718 102.564 206.908 102.937C207.098 103.31 207.359 103.642 207.677 103.913L207.147 104.536Z" fill="#453C4E"/>
<path d="M216.956 93.0504C217.353 93.3945 217.68 93.8125 217.917 94.2807C218.154 94.7489 218.297 95.258 218.338 95.779C218.38 96.3001 218.318 96.8228 218.156 97.3174C217.995 97.812 217.738 98.2687 217.399 98.6615C217.06 99.0543 216.646 99.3756 216.181 99.6068C215.715 99.8381 215.208 99.9749 214.688 100.009C214.167 100.044 213.643 99.9754 213.147 99.8079C212.65 99.6404 212.19 99.3771 211.793 99.033L212.32 98.4223C212.636 98.6961 213.002 98.9056 213.398 99.0389C213.793 99.1723 214.209 99.2267 214.624 99.1993C215.038 99.1718 215.442 99.063 215.812 98.8789C216.182 98.6949 216.511 98.4392 216.781 98.1266C217.051 97.814 217.256 97.4505 217.384 97.0569C217.513 96.6633 217.562 96.2473 217.529 95.8327C217.496 95.418 217.383 95.0128 217.194 94.6403C217.005 94.2677 216.745 93.935 216.429 93.6612L216.956 93.0504Z" fill="#453C4E"/>
<path d="M189.462 185.067C190.928 186.42 191.341 189.038 190.328 192.558C189.334 196.013 187.035 200.026 183.627 203.733C180.219 207.44 176.415 210.067 173.06 211.343C169.642 212.643 167.004 212.446 165.538 211.092C164.072 209.739 163.659 207.122 164.671 203.602C165.665 200.147 167.966 196.134 171.374 192.427C174.782 188.72 178.585 186.093 181.94 184.817C185.358 183.517 187.995 183.715 189.462 185.067Z" fill="#458FFF" stroke="#453C4E" stroke-width="2"/>
<path d="M179.475 196.708C179.075 196.366 178.747 195.95 178.508 195.481C178.269 195.013 178.125 194.502 178.084 193.977C178.042 193.453 178.104 192.926 178.266 192.425C178.427 191.925 178.686 191.461 179.027 191.061C179.367 190.661 179.783 190.332 180.251 190.093C180.719 189.853 181.229 189.709 181.752 189.667C182.275 189.625 182.802 189.687 183.301 189.85C183.8 190.012 184.263 190.271 184.663 190.612L184.133 191.234C183.815 190.963 183.447 190.757 183.049 190.628C182.652 190.499 182.233 190.449 181.817 190.482C181.4 190.516 180.994 190.631 180.622 190.821C180.25 191.011 179.919 191.273 179.648 191.592C179.377 191.91 179.171 192.279 179.042 192.677C178.913 193.075 178.864 193.495 178.897 193.912C178.93 194.33 179.045 194.736 179.235 195.109C179.425 195.482 179.686 195.814 180.004 196.085L179.475 196.708Z" fill="#453C4E"/>
<path d="M170.147 207.536C169.747 207.195 169.419 206.778 169.18 206.309C168.942 205.841 168.798 205.33 168.756 204.805C168.715 204.28 168.777 203.753 168.939 203.252C169.101 202.751 169.36 202.287 169.701 201.887C170.042 201.486 170.459 201.156 170.927 200.917C171.394 200.677 171.905 200.532 172.428 200.491C172.952 200.449 173.479 200.51 173.978 200.672C174.478 200.834 174.94 201.093 175.34 201.435L174.81 202.058C174.492 201.786 174.124 201.58 173.726 201.451C173.328 201.322 172.909 201.273 172.493 201.306C172.076 201.34 171.67 201.455 171.298 201.645C170.925 201.836 170.594 202.098 170.323 202.417C170.051 202.736 169.845 203.105 169.716 203.504C169.587 203.902 169.538 204.322 169.57 204.74C169.603 205.157 169.718 205.564 169.908 205.937C170.098 206.31 170.359 206.642 170.677 206.913L170.147 207.536Z" fill="#453C4E"/>
<path d="M179.956 196.05C180.353 196.394 180.68 196.813 180.917 197.281C181.154 197.749 181.297 198.258 181.338 198.779C181.38 199.3 181.318 199.823 181.156 200.317C180.995 200.812 180.738 201.269 180.399 201.662C180.06 202.054 179.646 202.376 179.181 202.607C178.715 202.838 178.208 202.975 177.688 203.009C177.167 203.044 176.643 202.975 176.147 202.808C175.65 202.64 175.19 202.377 174.793 202.033L175.32 201.422C175.636 201.696 176.002 201.906 176.398 202.039C176.793 202.172 177.209 202.227 177.624 202.199C178.038 202.172 178.442 202.063 178.812 201.879C179.182 201.695 179.511 201.439 179.781 201.127C180.051 200.814 180.256 200.451 180.384 200.057C180.513 199.663 180.562 199.247 180.529 198.833C180.496 198.418 180.383 198.013 180.194 197.64C180.005 197.268 179.745 196.935 179.429 196.661L179.956 196.05Z" fill="#453C4E"/>
<path d="M69.4617 183.067C70.928 184.42 71.3409 187.038 70.3283 190.558C69.3342 194.013 67.0347 198.026 63.627 201.733C60.2192 205.44 56.415 208.067 53.0596 209.343C49.6418 210.643 47.004 210.446 45.5377 209.092C44.0716 207.739 43.6586 205.122 44.6712 201.602C45.6653 198.147 47.966 194.134 51.3738 190.427C54.7816 186.72 58.5846 184.093 61.9399 182.817C65.3576 181.517 67.9954 181.715 69.4617 183.067Z" fill="#458FFF" stroke="#453C4E" stroke-width="2"/>
<path d="M59.4748 194.708C59.0753 194.366 58.7468 193.95 58.5081 193.481C58.2694 193.013 58.1251 192.502 58.0835 191.977C58.0419 191.453 58.1038 190.926 58.2657 190.425C58.4275 189.925 58.6861 189.461 59.0268 189.061C59.3674 188.661 59.7834 188.332 60.251 188.093C60.7185 187.853 61.2286 187.709 61.7519 187.667C62.2752 187.625 62.8017 187.687 63.3011 187.85C63.8005 188.012 64.2632 188.271 64.6626 188.612L64.133 189.234C63.8151 188.963 63.4469 188.757 63.0495 188.628C62.652 188.499 62.2331 188.449 61.8166 188.482C61.4001 188.516 60.9942 188.631 60.6221 188.821C60.25 189.011 59.9189 189.273 59.6478 189.592C59.3768 189.91 59.1709 190.279 59.0421 190.677C58.9134 191.075 58.8641 191.495 58.8972 191.912C58.9303 192.33 59.0451 192.736 59.2351 193.109C59.4251 193.482 59.6865 193.814 60.0044 194.085L59.4748 194.708Z" fill="#453C4E"/>
<path d="M50.1469 205.536C49.7474 205.195 49.419 204.778 49.1804 204.309C48.9418 203.841 48.7978 203.33 48.7564 202.805C48.715 202.28 48.7772 201.753 48.9393 201.252C49.1015 200.751 49.3604 200.287 49.7014 199.887C50.0424 199.486 50.4587 199.156 50.9266 198.917C51.3945 198.677 51.9048 198.532 52.4284 198.491C52.9519 198.449 53.4785 198.51 53.9781 198.672C54.4776 198.834 54.9404 199.093 55.3398 199.435L54.8097 200.058C54.4918 199.786 54.1235 199.58 53.726 199.451C53.3284 199.322 52.9094 199.273 52.4927 199.306C52.076 199.34 51.6699 199.455 51.2975 199.645C50.9252 199.836 50.5939 200.098 50.3225 200.417C50.0511 200.736 49.8451 201.105 49.716 201.504C49.587 201.902 49.5375 202.322 49.5704 202.74C49.6034 203.157 49.718 203.564 49.9079 203.937C50.0978 204.31 50.3591 204.642 50.677 204.913L50.1469 205.536Z" fill="#453C4E"/>
<path d="M59.9563 194.05C60.3534 194.394 60.6799 194.813 60.917 195.281C61.1542 195.749 61.2974 196.258 61.3385 196.779C61.3796 197.3 61.3177 197.823 61.1565 198.317C60.9952 198.812 60.7377 199.269 60.3987 199.662C60.0597 200.054 59.6458 200.376 59.1806 200.607C58.7154 200.838 58.208 200.975 57.6875 201.009C57.167 201.044 56.6434 200.975 56.1468 200.808C55.6502 200.64 55.1902 200.377 54.7931 200.033L55.3202 199.422C55.6362 199.696 56.0023 199.906 56.3975 200.039C56.7927 200.172 57.2094 200.227 57.6236 200.199C58.0379 200.172 58.4416 200.063 58.8118 199.879C59.1821 199.695 59.5115 199.439 59.7813 199.127C60.0511 198.814 60.256 198.451 60.3843 198.057C60.5126 197.663 60.5619 197.247 60.5292 196.833C60.4965 196.418 60.3825 196.013 60.1938 195.64C60.005 195.268 59.7452 194.935 59.4292 194.661L59.9563 194.05Z" fill="#453C4E"/>
<path d="M164.083 259.266C165.549 260.619 165.962 263.237 164.949 266.756C163.955 270.211 161.656 274.225 158.248 277.932C154.84 281.639 151.036 284.265 147.681 285.542C144.263 286.842 141.625 286.644 140.159 285.291C138.693 283.938 138.28 281.32 139.292 277.801C140.286 274.346 142.587 270.332 145.995 266.625C149.403 262.918 153.206 260.292 156.561 259.016C159.979 257.716 162.616 257.913 164.083 259.266Z" fill="#8A8E1D" stroke="#453C4E" stroke-width="2"/>
<rect width="0.88062" height="1.73226" rx="0.44031" transform="matrix(0.757512 0.652822 -0.660859 0.75051 158.669 269.426)" fill="#453C4E"/>
<rect width="0.88062" height="1.89259" rx="0.44031" transform="matrix(-0.649558 0.760312 -0.753345 -0.657626 152.646 269.287)" fill="#453C4E"/>
<rect width="0.88062" height="1.9452" rx="0.44031" transform="matrix(-0.990212 0.139569 -0.129006 -0.991644 153.725 273.654)" fill="#453C4E"/>
<rect width="0.88062" height="2.36585" rx="0.44031" transform="matrix(-0.990212 0.139569 -0.129006 -0.991644 149.798 273.545)" fill="#453C4E"/>
<rect width="0.88062" height="1.10095" rx="0.44031" transform="matrix(-0.752561 -0.658523 0.666508 -0.745498 149.284 276.599)" fill="#453C4E"/>
<rect width="0.88062" height="1.73311" rx="0.44031" transform="matrix(0.999215 -0.0396205 0.0289669 0.99958 159.616 265.041)" fill="#453C4E"/>
<circle cx="143.808" cy="276.539" r="1.75" transform="rotate(5.65346 143.808 276.539)" fill="#B1B525" stroke="#453C4E" stroke-width="0.5"/>
<circle cx="149.808" cy="267.386" r="1.75" transform="rotate(5.65346 149.808 267.386)" fill="#B1B525" stroke="#453C4E" stroke-width="0.5"/>
<circle cx="153.808" cy="264.386" r="1.75" transform="rotate(5.65346 153.808 264.386)" fill="#B1B525" stroke="#453C4E" stroke-width="0.5"/>
<circle cx="146.094" cy="273.751" r="1.75" transform="rotate(5.65346 146.094 273.751)" fill="#B1B525" stroke="#453C4E" stroke-width="0.5"/>
<circle cx="148.379" cy="270.963" r="1.75" transform="rotate(5.65346 148.379 270.963)" fill="#B1B525" stroke="#453C4E" stroke-width="0.5"/>
<circle cx="147.808" cy="277.386" r="1.75" transform="rotate(5.65346 147.808 277.386)" fill="#B1B525" stroke="#453C4E" stroke-width="0.5"/>
<circle cx="155.808" cy="267.386" r="1.75" transform="rotate(5.65346 155.808 267.386)" fill="#B1B525" stroke="#453C4E" stroke-width="0.5"/>
<circle cx="159.808" cy="263.386" r="1.75" transform="rotate(5.65346 159.808 263.386)" fill="#B1B525" stroke="#453C4E" stroke-width="0.5"/>
<circle cx="150.808" cy="274.386" r="1.75" transform="rotate(5.65346 150.808 274.386)" fill="#B1B525" stroke="#453C4E" stroke-width="0.5"/>
<circle cx="153.808" cy="270.386" r="1.75" transform="rotate(5.65346 153.808 270.386)" fill="#B1B525" stroke="#453C4E" stroke-width="0.5"/>
<circle cx="149.808" cy="280.539" r="1.75" transform="rotate(5.65346 149.808 280.539)" fill="#B1B525" stroke="#453C4E" stroke-width="0.5"/>
<circle cx="156.665" cy="272.174" r="1.75" transform="rotate(5.65346 156.665 272.174)" fill="#B1B525" stroke="#453C4E" stroke-width="0.5"/>
<circle cx="159.808" cy="268.386" r="1.75" transform="rotate(5.65346 159.808 268.386)" fill="#B1B525" stroke="#453C4E" stroke-width="0.5"/>
<circle cx="152.094" cy="277.751" r="1.75" transform="rotate(5.65346 152.094 277.751)" fill="#B1B525" stroke="#453C4E" stroke-width="0.5"/>
<circle cx="154.379" cy="274.963" r="1.75" transform="rotate(5.65346 154.379 274.963)" fill="#B1B525" stroke="#453C4E" stroke-width="0.5"/>
<path d="M217.083 130.266C218.549 131.619 218.962 134.237 217.949 137.756C216.955 141.211 214.656 145.225 211.248 148.932C207.84 152.639 204.036 155.265 200.681 156.542C197.263 157.842 194.625 157.644 193.159 156.291C191.693 154.938 191.28 152.32 192.292 148.801C193.286 145.346 195.587 141.332 198.995 137.625C202.403 133.918 206.206 131.292 209.561 130.016C212.979 128.716 215.616 128.913 217.083 130.266Z" fill="#8A8E1D" stroke="#453C4E" stroke-width="2"/>
<rect width="0.88062" height="1.73226" rx="0.44031" transform="matrix(0.757512 0.652822 -0.660859 0.75051 211.669 140.426)" fill="#453C4E"/>
<rect width="0.88062" height="1.89259" rx="0.44031" transform="matrix(-0.649558 0.760312 -0.753345 -0.657626 205.646 140.287)" fill="#453C4E"/>
<rect width="0.88062" height="1.9452" rx="0.44031" transform="matrix(-0.990212 0.139569 -0.129006 -0.991644 206.725 144.654)" fill="#453C4E"/>
<rect width="0.88062" height="2.36585" rx="0.44031" transform="matrix(-0.990212 0.139569 -0.129006 -0.991644 202.798 144.545)" fill="#453C4E"/>
<rect width="0.88062" height="1.10095" rx="0.44031" transform="matrix(-0.752561 -0.658523 0.666508 -0.745498 202.284 147.599)" fill="#453C4E"/>
<rect width="0.88062" height="1.73311" rx="0.44031" transform="matrix(0.999215 -0.0396205 0.0289669 0.99958 212.616 136.041)" fill="#453C4E"/>
<circle cx="196.808" cy="147.539" r="1.75" transform="rotate(5.65346 196.808 147.539)" fill="#B1B525" stroke="#453C4E" stroke-width="0.5"/>
<circle cx="202.808" cy="138.386" r="1.75" transform="rotate(5.65346 202.808 138.386)" fill="#B1B525" stroke="#453C4E" stroke-width="0.5"/>
<circle cx="206.808" cy="135.386" r="1.75" transform="rotate(5.65346 206.808 135.386)" fill="#B1B525" stroke="#453C4E" stroke-width="0.5"/>
<circle cx="199.094" cy="144.751" r="1.75" transform="rotate(5.65346 199.094 144.751)" fill="#B1B525" stroke="#453C4E" stroke-width="0.5"/>
<circle cx="201.379" cy="141.963" r="1.75" transform="rotate(5.65346 201.379 141.963)" fill="#B1B525" stroke="#453C4E" stroke-width="0.5"/>
<circle cx="200.808" cy="148.386" r="1.75" transform="rotate(5.65346 200.808 148.386)" fill="#B1B525" stroke="#453C4E" stroke-width="0.5"/>
<circle cx="208.808" cy="138.386" r="1.75" transform="rotate(5.65346 208.808 138.386)" fill="#B1B525" stroke="#453C4E" stroke-width="0.5"/>
<circle cx="212.808" cy="134.386" r="1.75" transform="rotate(5.65346 212.808 134.386)" fill="#B1B525" stroke="#453C4E" stroke-width="0.5"/>
<circle cx="203.808" cy="145.386" r="1.75" transform="rotate(5.65346 203.808 145.386)" fill="#B1B525" stroke="#453C4E" stroke-width="0.5"/>
<circle cx="206.808" cy="141.386" r="1.75" transform="rotate(5.65346 206.808 141.386)" fill="#B1B525" stroke="#453C4E" stroke-width="0.5"/>
<circle cx="202.808" cy="151.539" r="1.75" transform="rotate(5.65346 202.808 151.539)" fill="#B1B525" stroke="#453C4E" stroke-width="0.5"/>
<circle cx="209.665" cy="143.174" r="1.75" transform="rotate(5.65346 209.665 143.174)" fill="#B1B525" stroke="#453C4E" stroke-width="0.5"/>
<circle cx="212.808" cy="139.386" r="1.75" transform="rotate(5.65346 212.808 139.386)" fill="#B1B525" stroke="#453C4E" stroke-width="0.5"/>
<circle cx="205.094" cy="148.751" r="1.75" transform="rotate(5.65346 205.094 148.751)" fill="#B1B525" stroke="#453C4E" stroke-width="0.5"/>
<circle cx="207.379" cy="145.963" r="1.75" transform="rotate(5.65346 207.379 145.963)" fill="#B1B525" stroke="#453C4E" stroke-width="0.5"/>
<circle cx="189" cy="263" r="1.75" fill="#D925C1" stroke="#453C4E" stroke-width="0.5"/>
<circle cx="123" cy="254" r="1.75" fill="#D925C1" stroke="#453C4E" stroke-width="0.5"/>
</svg>
