<svg width="261" height="263" viewBox="0 0 261 263" fill="none" xmlns="http://www.w3.org/2000/svg">
<path d="M131.881 225.428C183.362 225.428 225.095 183.375 225.095 131.5C225.095 79.6245 183.362 37.5713 131.881 37.5713C80.4001 37.5713 38.6667 79.6245 38.6667 131.5C38.6667 183.375 80.4001 225.428 131.881 225.428Z" fill="#F9CC42"/>
<path d="M131.881 216.732C178.595 216.732 216.464 178.572 216.464 131.5C216.464 84.428 178.595 46.2686 131.881 46.2686C85.1669 46.2686 47.2976 84.428 47.2976 131.5C47.2976 178.572 85.1669 216.732 131.881 216.732Z" fill="#FDF1CD" stroke="#453C4E" stroke-width="3"/>
<path d="M180.413 52.194C181.011 51.1814 180.682 49.87 179.664 49.2903C161.701 39.059 140.898 34.994 120.407 37.7458C99.2145 40.5916 79.5967 50.5616 64.728 66.0414C49.8596 81.5216 40.6113 101.605 38.4805 123.041C36.4201 143.768 41.1313 164.586 51.8659 182.344C52.4741 183.35 53.7856 183.638 54.7704 183.003C55.7551 182.367 56.0401 181.05 55.4328 180.043C45.2118 163.095 40.7282 143.237 42.6935 123.466C44.7293 102.986 53.5651 83.7981 67.7705 69.0087C81.9761 54.2192 100.719 44.6939 120.966 41.975C140.512 39.3501 160.355 43.2172 177.499 52.9578C178.517 53.5365 179.815 53.2065 180.413 52.194Z" fill="#DFDFDF"/>
<path d="M82.514 211.465C81.9133 212.476 82.2378 213.788 83.2535 214.371C100.455 224.246 120.309 228.464 140.036 226.403C160.466 224.269 179.658 215.517 194.732 201.459C209.807 187.402 219.95 168.798 223.642 148.438C227.206 128.779 224.568 108.507 216.128 90.4615C215.63 89.3956 214.356 88.9677 213.31 89.4937C212.263 90.0197 211.841 91.2999 212.339 92.3665C220.37 109.585 222.877 128.92 219.477 147.672C215.951 167.123 206.259 184.898 191.856 198.328C177.454 211.759 159.118 220.121 139.6 222.16C120.784 224.125 101.847 220.112 85.4312 210.712C84.4149 210.129 83.1154 210.455 82.514 211.465Z" fill="#DFDFDF"/>
<path d="M190.89 116.936C191.903 117.877 192.188 119.699 191.488 122.148C190.802 124.552 189.215 127.344 186.861 129.923C184.508 132.502 181.882 134.33 179.565 135.218C177.205 136.122 175.384 135.985 174.371 135.043C173.359 134.102 173.074 132.281 173.773 129.832C174.459 127.428 176.048 124.636 178.401 122.057C180.754 119.477 183.38 117.65 185.697 116.762C188.057 115.857 189.877 115.995 190.89 116.936Z" fill="#458FFF" stroke="#453C4E" stroke-width="2"/>
<path d="M183.995 125.035C183.718 124.797 183.492 124.507 183.327 124.181C183.162 123.855 183.063 123.5 183.034 123.135C183.005 122.77 183.048 122.403 183.16 122.055C183.271 121.707 183.45 121.384 183.685 121.106C183.92 120.827 184.207 120.599 184.53 120.432C184.854 120.265 185.206 120.165 185.567 120.136C185.928 120.107 186.292 120.15 186.636 120.263C186.981 120.376 187.301 120.556 187.577 120.793L187.211 121.226C186.991 121.038 186.737 120.894 186.462 120.804C186.188 120.715 185.899 120.68 185.612 120.703C185.324 120.727 185.043 120.807 184.787 120.939C184.53 121.071 184.301 121.253 184.114 121.475C183.927 121.696 183.785 121.953 183.696 122.23C183.607 122.507 183.573 122.799 183.596 123.089C183.618 123.38 183.698 123.663 183.829 123.922C183.96 124.182 184.14 124.413 184.36 124.601L183.995 125.035Z" fill="#453C4E"/>
<path d="M177.554 132.569C177.278 132.332 177.051 132.041 176.886 131.715C176.722 131.39 176.622 131.034 176.593 130.669C176.565 130.303 176.608 129.937 176.72 129.588C176.832 129.24 177.01 128.917 177.246 128.638C177.481 128.359 177.769 128.13 178.092 127.964C178.415 127.797 178.768 127.696 179.129 127.667C179.491 127.638 179.855 127.68 180.199 127.793C180.544 127.906 180.863 128.086 181.14 128.324L180.774 128.757C180.554 128.568 180.3 128.425 180.025 128.335C179.75 128.245 179.461 128.211 179.174 128.234C178.886 128.258 178.605 128.338 178.349 128.47C178.091 128.603 177.863 128.785 177.675 129.007C177.488 129.229 177.345 129.486 177.256 129.763C177.167 130.04 177.133 130.333 177.155 130.623C177.178 130.914 177.258 131.197 177.389 131.456C177.52 131.716 177.7 131.947 177.92 132.135L177.554 132.569Z" fill="#453C4E"/>
<path d="M184.327 124.577C184.601 124.816 184.827 125.108 184.99 125.434C185.154 125.759 185.253 126.113 185.281 126.476C185.31 126.838 185.267 127.202 185.155 127.546C185.044 127.89 184.867 128.208 184.633 128.482C184.399 128.755 184.113 128.979 183.792 129.139C183.47 129.3 183.12 129.395 182.761 129.419C182.401 129.443 182.039 129.395 181.697 129.279C181.354 129.162 181.036 128.979 180.762 128.74L181.126 128.315C181.344 128.505 181.597 128.652 181.87 128.744C182.143 128.837 182.43 128.875 182.717 128.855C183.002 128.837 183.281 128.761 183.537 128.633C183.792 128.505 184.02 128.327 184.206 128.11C184.392 127.892 184.534 127.639 184.622 127.365C184.711 127.091 184.745 126.802 184.722 126.513C184.7 126.225 184.622 125.943 184.491 125.683C184.361 125.425 184.181 125.193 183.963 125.002L184.327 124.577Z" fill="#453C4E"/>
<path d="M172.274 158.461C173.513 158.461 174.518 157.449 174.518 156.2C174.518 154.951 173.513 153.938 172.274 153.938C171.034 153.938 170.03 154.951 170.03 156.2C170.03 157.449 171.034 158.461 172.274 158.461Z" fill="#B1B525" stroke="#453C4E" stroke-width="0.5"/>
<path d="M171.583 155.852C171.774 155.852 171.929 155.696 171.929 155.504C171.929 155.312 171.774 155.156 171.583 155.156C171.393 155.156 171.238 155.312 171.238 155.504C171.238 155.696 171.393 155.852 171.583 155.852Z" fill="#453C4E"/>
<path d="M172.274 157.244C172.464 157.244 172.619 157.088 172.619 156.896C172.619 156.704 172.464 156.548 172.274 156.548C172.083 156.548 171.929 156.704 171.929 156.896C171.929 157.088 172.083 157.244 172.274 157.244Z" fill="#453C4E"/>
<path d="M172.964 155.852C173.155 155.852 173.309 155.696 173.309 155.504C173.309 155.312 173.155 155.156 172.964 155.156C172.774 155.156 172.619 155.312 172.619 155.504C172.619 155.696 172.774 155.852 172.964 155.852Z" fill="#453C4E"/>
<path d="M208.643 153.721C207.872 154.871 206.129 155.431 203.62 155.105C201.158 154.784 198.179 153.625 195.293 151.671C192.407 149.717 190.217 147.377 188.996 145.204C187.752 142.99 187.611 141.155 188.382 140.004C189.152 138.854 190.896 138.294 193.404 138.62C195.865 138.94 198.845 140.1 201.731 142.055C204.617 144.008 206.807 146.348 208.028 148.521C209.272 150.735 209.412 152.57 208.643 153.721Z" fill="#458FFF" stroke="#453C4E" stroke-width="2"/>
<path d="M199.655 148.077C199.846 147.766 200.097 147.496 200.391 147.283C200.686 147.069 201.02 146.916 201.373 146.833C201.727 146.748 202.093 146.736 202.452 146.794C202.81 146.853 203.153 146.982 203.462 147.174C203.771 147.366 204.039 147.618 204.251 147.915C204.463 148.211 204.615 148.546 204.698 148.902C204.781 149.257 204.794 149.626 204.735 149.987C204.676 150.347 204.548 150.693 204.357 151.003L203.877 150.705C204.029 150.458 204.131 150.183 204.178 149.895C204.224 149.609 204.215 149.315 204.148 149.032C204.082 148.749 203.961 148.482 203.793 148.246C203.624 148.011 203.41 147.81 203.165 147.657C202.919 147.505 202.646 147.402 202.361 147.355C202.075 147.309 201.783 147.318 201.502 147.385C201.221 147.452 200.956 147.574 200.721 147.743C200.486 147.913 200.287 148.128 200.135 148.375L199.655 148.077Z" fill="#453C4E"/>
<path d="M191.29 142.8C191.481 142.489 191.731 142.219 192.027 142.006C192.322 141.793 192.655 141.64 193.01 141.556C193.363 141.473 193.73 141.46 194.088 141.519C194.447 141.577 194.791 141.707 195.1 141.899C195.409 142.091 195.677 142.343 195.889 142.64C196.102 142.937 196.254 143.272 196.338 143.628C196.42 143.983 196.434 144.352 196.375 144.713C196.316 145.073 196.188 145.419 195.997 145.73L195.517 145.43C195.669 145.183 195.771 144.909 195.817 144.621C195.864 144.335 195.854 144.041 195.787 143.758C195.721 143.475 195.6 143.207 195.431 142.972C195.262 142.736 195.048 142.535 194.803 142.382C194.556 142.229 194.283 142.126 193.998 142.08C193.712 142.032 193.42 142.043 193.139 142.11C192.857 142.176 192.592 142.297 192.357 142.467C192.122 142.637 191.923 142.852 191.771 143.099L191.29 142.8Z" fill="#453C4E"/>
<path d="M200.153 148.338C199.96 148.648 199.709 148.916 199.414 149.128C199.12 149.341 198.787 149.493 198.435 149.576C198.084 149.659 197.721 149.671 197.366 149.613C197.012 149.554 196.673 149.425 196.37 149.233C196.066 149.041 195.804 148.79 195.597 148.495C195.391 148.199 195.245 147.864 195.167 147.51C195.089 147.155 195.081 146.789 195.144 146.429C195.206 146.07 195.338 145.726 195.531 145.417L196.003 145.715C195.849 145.961 195.744 146.235 195.695 146.521C195.645 146.807 195.651 147.099 195.713 147.381C195.775 147.662 195.892 147.929 196.056 148.164C196.22 148.399 196.429 148.599 196.67 148.752C196.912 148.904 197.181 149.007 197.464 149.054C197.745 149.101 198.035 149.091 198.314 149.025C198.594 148.959 198.859 148.838 199.093 148.669C199.328 148.5 199.528 148.286 199.682 148.04L200.153 148.338Z" fill="#453C4E"/>
<path d="M137.698 205.031C137.242 206.342 135.698 207.329 133.19 207.657C130.729 207.978 127.554 207.62 124.27 206.471C120.985 205.321 118.277 203.619 116.547 201.83C114.785 200.008 114.186 198.27 114.64 196.959C115.095 195.649 116.64 194.661 119.148 194.333C121.609 194.012 124.784 194.37 128.068 195.52C131.353 196.67 134.061 198.371 135.79 200.16C137.553 201.982 138.152 203.721 137.698 205.031Z" fill="#458FFF" stroke="#453C4E" stroke-width="2"/>
<path d="M127.581 201.876C127.688 201.527 127.861 201.202 128.092 200.92C128.324 200.638 128.608 200.404 128.928 200.233C129.25 200.061 129.6 199.955 129.962 199.92C130.323 199.885 130.688 199.921 131.035 200.028C131.382 200.135 131.705 200.309 131.985 200.542C132.265 200.774 132.496 201.059 132.667 201.382C132.837 201.704 132.942 202.058 132.976 202.422C133.011 202.785 132.973 203.152 132.867 203.501L132.328 203.336C132.412 203.057 132.442 202.765 132.414 202.476C132.387 202.186 132.303 201.905 132.168 201.648C132.032 201.392 131.848 201.165 131.625 200.98C131.402 200.795 131.146 200.656 130.869 200.571C130.593 200.487 130.303 200.457 130.015 200.485C129.728 200.513 129.448 200.598 129.193 200.734C128.937 200.871 128.712 201.056 128.528 201.281C128.344 201.506 128.206 201.764 128.121 202.042L127.581 201.876Z" fill="#453C4E"/>
<path d="M118.159 198.918C118.265 198.569 118.439 198.244 118.671 197.961C118.902 197.679 119.187 197.446 119.508 197.275C119.828 197.103 120.179 196.997 120.541 196.961C120.903 196.927 121.268 196.964 121.616 197.071C121.963 197.177 122.286 197.352 122.566 197.584C122.847 197.817 123.079 198.102 123.249 198.425C123.419 198.747 123.525 199.101 123.559 199.465C123.594 199.828 123.557 200.195 123.45 200.545L122.91 200.378C122.995 200.101 123.024 199.808 122.997 199.519C122.97 199.23 122.885 198.949 122.75 198.692C122.614 198.435 122.43 198.208 122.207 198.022C121.984 197.837 121.727 197.699 121.45 197.613C121.174 197.528 120.883 197.499 120.595 197.527C120.307 197.555 120.028 197.64 119.772 197.776C119.517 197.913 119.291 198.098 119.106 198.323C118.922 198.547 118.784 198.806 118.699 199.084L118.159 198.918Z" fill="#453C4E"/>
<path d="M128.13 202.002C128.021 202.351 127.845 202.675 127.614 202.956C127.383 203.236 127.099 203.469 126.78 203.639C126.461 203.81 126.113 203.915 125.756 203.949C125.398 203.983 125.038 203.945 124.696 203.837C124.354 203.729 124.037 203.554 123.762 203.321C123.488 203.088 123.262 202.802 123.097 202.479C122.933 202.156 122.832 201.803 122.802 201.44C122.772 201.077 122.812 200.71 122.921 200.361L123.453 200.528C123.366 200.806 123.334 201.098 123.358 201.387C123.383 201.676 123.462 201.957 123.593 202.214C123.724 202.471 123.905 202.698 124.123 202.884C124.341 203.069 124.593 203.209 124.865 203.295C125.138 203.38 125.424 203.411 125.709 203.384C125.993 203.357 126.27 203.273 126.524 203.137C126.778 203.002 127.003 202.817 127.187 202.593C127.371 202.37 127.511 202.112 127.598 201.834L128.13 202.002Z" fill="#453C4E"/>
<path d="M197.131 111.149C198.37 111.149 199.375 110.137 199.375 108.888C199.375 107.639 198.37 106.626 197.131 106.626C195.892 106.626 194.887 107.639 194.887 108.888C194.887 110.137 195.892 111.149 197.131 111.149Z" fill="#B1B525" stroke="#453C4E" stroke-width="0.5"/>
<path d="M196.44 108.54C196.631 108.54 196.786 108.384 196.786 108.192C196.786 108 196.631 107.844 196.44 107.844C196.25 107.844 196.095 108 196.095 108.192C196.095 108.384 196.25 108.54 196.44 108.54Z" fill="#453C4E"/>
<path d="M197.131 109.931C197.322 109.931 197.476 109.775 197.476 109.583C197.476 109.391 197.322 109.235 197.131 109.235C196.94 109.235 196.786 109.391 196.786 109.583C196.786 109.775 196.94 109.931 197.131 109.931Z" fill="#453C4E"/>
<path d="M197.821 108.54C198.012 108.54 198.167 108.384 198.167 108.192C198.167 108 198.012 107.844 197.821 107.844C197.631 107.844 197.476 108 197.476 108.192C197.476 108.384 197.631 108.54 197.821 108.54Z" fill="#453C4E"/>
<path d="M121.179 132.544C138.72 132.544 152.941 118.215 152.941 100.538C152.941 82.8625 138.72 68.5332 121.179 68.5332C103.637 68.5332 89.4167 82.8625 89.4167 100.538C89.4167 118.215 103.637 132.544 121.179 132.544Z" fill="#4C5584" stroke="#453C4E" stroke-width="3"/>
<path d="M116.345 93.9284C120.731 93.9284 124.286 90.3461 124.286 85.9271C124.286 81.5081 120.731 77.9258 116.345 77.9258C111.96 77.9258 108.405 81.5081 108.405 85.9271C108.405 90.3461 111.96 93.9284 116.345 93.9284Z" fill="#5361A8" stroke="#453C4E" stroke-width="2"/>
<mask id="mask0_799_1173" style="mask-type:luminance" maskUnits="userSpaceOnUse" x="128" y="63" width="31" height="68">
<path d="M142.601 130.524C142.983 131.007 143.682 131.092 144.155 130.698C149.495 126.254 153.58 120.497 155.985 114.011C158.517 107.179 159.085 99.8119 157.623 92.7416C156.161 85.6719 152.728 79.181 147.712 74.0045C142.951 69.0904 136.944 65.5467 130.31 63.7272C129.718 63.565 129.116 63.9279 128.959 64.5251C128.797 65.1407 129.169 65.7685 129.778 65.9377C135.982 67.6599 141.6 70.9849 146.058 75.586C150.781 80.4606 154.014 86.5729 155.391 93.2314C156.768 99.8892 156.233 106.827 153.848 113.26C151.594 119.341 147.772 124.741 142.777 128.918C142.297 129.319 142.212 130.033 142.601 130.524Z" fill="white"/>
</mask>
<g mask="url(#mask0_799_1173)">
<path d="M142.601 130.524C142.983 131.007 143.682 131.092 144.155 130.698C149.495 126.254 153.58 120.497 155.985 114.011C158.517 107.179 159.085 99.8119 157.623 92.7416C156.161 85.6719 152.728 79.181 147.712 74.0045C142.951 69.0904 136.944 65.5467 130.31 63.7272C129.718 63.565 129.116 63.9279 128.959 64.5251C128.797 65.1407 129.169 65.7685 129.778 65.9377C135.982 67.6599 141.6 70.9849 146.058 75.586C150.781 80.4606 154.014 86.5729 155.391 93.2314C156.768 99.8892 156.233 106.827 153.848 113.26C151.594 119.341 147.772 124.741 142.777 128.918C142.297 129.319 142.212 130.033 142.601 130.524Z" fill="#BA7300" stroke="#453C4E"/>
</g>
<mask id="mask1_799_1173" style="mask-type:luminance" maskUnits="userSpaceOnUse" x="128" y="63" width="31" height="68">
<path d="M142.601 130.524C142.983 131.007 143.682 131.092 144.155 130.698C149.495 126.254 153.58 120.497 155.985 114.011C158.517 107.179 159.085 99.8119 157.623 92.7416C156.161 85.6719 152.728 79.181 147.712 74.0045C142.951 69.0904 136.944 65.5467 130.31 63.7272C129.718 63.565 129.116 63.9279 128.959 64.5251C128.797 65.1407 129.169 65.7685 129.778 65.9377C135.982 67.6599 141.6 70.9849 146.058 75.586C150.781 80.4606 154.014 86.5729 155.391 93.2314C156.768 99.8892 156.233 106.827 153.848 113.26C151.594 119.341 147.772 124.741 142.777 128.918C142.297 129.319 142.212 130.033 142.601 130.524Z" fill="white"/>
</mask>
<g mask="url(#mask1_799_1173)">
<path d="M142.601 130.524C142.983 131.007 143.682 131.092 144.155 130.698C149.495 126.254 153.58 120.497 155.985 114.011C158.517 107.179 159.085 99.8119 157.623 92.7416C156.161 85.6719 152.728 79.181 147.712 74.0045C142.951 69.0904 136.944 65.5467 130.31 63.7272C129.718 63.565 129.116 63.9279 128.959 64.5251C128.797 65.1407 129.169 65.7685 129.778 65.9377C135.982 67.6599 141.6 70.9849 146.058 75.586C150.781 80.4606 154.014 86.5729 155.391 93.2314C156.768 99.8892 156.233 106.827 153.848 113.26C151.594 119.341 147.772 124.741 142.777 128.918C142.297 129.319 142.212 130.033 142.601 130.524Z" fill="#BA7300" stroke="#453C4E"/>
</g>
<mask id="mask2_799_1173" style="mask-type:luminance" maskUnits="userSpaceOnUse" x="87" y="117" width="72" height="27">
<path d="M88.3305 124.018C87.7395 124.258 87.4737 124.954 87.7761 125.518C90.839 131.227 95.7829 135.961 102.016 139.134C108.63 142.501 116.371 143.945 124.18 143.268C131.989 142.591 139.482 139.826 145.635 135.353C151.431 131.138 155.769 125.6 158.132 119.423C158.363 118.818 157.994 118.159 157.366 118.021C156.831 117.903 156.296 118.209 156.103 118.724C153.892 124.608 149.782 129.884 144.271 133.891C138.477 138.104 131.42 140.708 124.067 141.345C116.713 141.982 109.423 140.623 103.194 137.452C97.295 134.449 92.6225 129.961 89.7419 124.549C89.4698 124.038 88.8636 123.803 88.3305 124.018Z" fill="white"/>
</mask>
<g mask="url(#mask2_799_1173)">
<path d="M88.3305 124.018C87.7395 124.258 87.4737 124.954 87.7761 125.518C90.839 131.227 95.7829 135.961 102.016 139.134C108.63 142.501 116.371 143.945 124.18 143.268C131.989 142.591 139.482 139.826 145.635 135.353C151.431 131.138 155.769 125.6 158.132 119.423C158.363 118.818 157.994 118.159 157.366 118.021C156.831 117.903 156.296 118.209 156.103 118.724C153.892 124.608 149.782 129.884 144.271 133.891C138.477 138.104 131.42 140.708 124.067 141.345C116.713 141.982 109.423 140.623 103.194 137.452C97.295 134.449 92.6225 129.961 89.7419 124.549C89.4698 124.038 88.8636 123.803 88.3305 124.018Z" fill="#BA7300" stroke="#453C4E"/>
</g>
<mask id="mask3_799_1173" style="mask-type:luminance" maskUnits="userSpaceOnUse" x="78" y="111" width="21" height="30">
<path d="M78.9421 111.592C78.4291 111.681 78.0797 112.168 78.1695 112.685C79.2204 118.737 81.4983 124.455 84.8146 129.352C88.0578 134.139 92.1958 137.995 96.889 140.616C97.4504 140.93 98.1484 140.648 98.3638 140.039C98.5434 139.529 98.3183 138.966 97.8474 138.706C93.3551 136.237 89.3959 132.568 86.3019 128.001C83.1941 123.413 81.055 118.061 80.0586 112.393C79.9654 111.864 79.469 111.501 78.9421 111.592Z" fill="white"/>
</mask>
<g mask="url(#mask3_799_1173)">
<path d="M78.9421 111.592C78.4291 111.681 78.0797 112.168 78.1695 112.685C79.2204 118.737 81.4983 124.455 84.8146 129.352C88.0578 134.139 92.1958 137.995 96.889 140.616C97.4504 140.93 98.1484 140.648 98.3638 140.039C98.5434 139.529 98.3183 138.966 97.8474 138.706C93.3551 136.237 89.3959 132.568 86.3019 128.001C83.1941 123.413 81.055 118.061 80.0586 112.393C79.9654 111.864 79.469 111.501 78.9421 111.592Z" fill="#BA7300" stroke="#453C4E"/>
</g>
<mask id="mask4_799_1173" style="mask-type:luminance" maskUnits="userSpaceOnUse" x="155" y="80" width="9" height="35">
<path d="M158.905 114.333C159.443 114.663 160.149 114.473 160.427 113.902C162.807 109.028 163.834 103.468 163.41 97.7071C162.976 91.8098 161.036 85.9006 157.773 80.523C157.513 80.0937 156.968 79.9455 156.523 80.1744C156.012 80.4368 155.839 81.0852 156.135 81.5799C159.131 86.5887 160.915 92.0762 161.318 97.554C161.719 102.994 160.744 108.244 158.491 112.843C158.23 113.374 158.402 114.025 158.905 114.333Z" fill="white"/>
</mask>
<g mask="url(#mask4_799_1173)">
<path d="M158.905 114.333C159.443 114.663 160.149 114.473 160.427 113.902C162.807 109.028 163.834 103.468 163.41 97.7071C162.976 91.8098 161.036 85.9006 157.773 80.523C157.513 80.0937 156.968 79.9455 156.523 80.1744C156.012 80.4368 155.839 81.0852 156.135 81.5799C159.131 86.5887 160.915 92.0762 161.318 97.554C161.719 102.994 160.744 108.244 158.491 112.843C158.23 113.374 158.402 114.025 158.905 114.333Z" fill="#BA7300" stroke="#453C4E"/>
</g>
<mask id="mask5_799_1173" style="mask-type:luminance" maskUnits="userSpaceOnUse" x="84" y="86" width="58" height="54">
<path d="M88.198 86.2272C87.6373 86.0059 87.0034 86.2884 86.8053 86.8617C84.1497 94.52 83.7092 102.785 85.5555 110.557C87.4854 118.681 91.814 125.844 97.9137 131.007C104.013 136.17 111.566 139.065 119.479 139.272C127.056 139.471 134.586 137.194 141.066 132.759C141.549 132.428 141.677 131.771 141.369 131.27C141.029 130.72 140.3 130.576 139.766 130.937C133.702 135.035 126.679 137.137 119.61 136.952C112.16 136.757 105.046 134.031 99.3022 129.169C93.5588 124.307 89.4822 117.562 87.6649 109.911C85.9291 102.605 86.3392 94.8352 88.8284 87.6333C89.0238 87.0697 88.7497 86.4456 88.198 86.2272Z" fill="white"/>
</mask>
<g mask="url(#mask5_799_1173)">
<path d="M88.198 86.2272C87.6373 86.0059 87.0034 86.2884 86.8053 86.8617C84.1497 94.52 83.7092 102.785 85.5555 110.557C87.4854 118.681 91.814 125.844 97.9137 131.007C104.013 136.17 111.566 139.065 119.479 139.272C127.056 139.471 134.586 137.194 141.066 132.759C141.549 132.428 141.677 131.771 141.369 131.27C141.029 130.72 140.3 130.576 139.766 130.937C133.702 135.035 126.679 137.137 119.61 136.952C112.16 136.757 105.046 134.031 99.3022 129.169C93.5588 124.307 89.4822 117.562 87.6649 109.911C85.9291 102.605 86.3392 94.8352 88.8284 87.6333C89.0238 87.0697 88.7497 86.4456 88.198 86.2272Z" fill="#BA7300" stroke="#453C4E"/>
</g>
<path d="M161.571 138.98C162.239 138.98 162.78 138.434 162.78 137.762C162.78 137.09 162.239 136.544 161.571 136.544C160.904 136.544 160.363 137.09 160.363 137.762C160.363 138.434 160.904 138.98 161.571 138.98Z" fill="#D925C1" stroke="#453C4E" stroke-width="0.5"/>
<path d="M144.655 59.6621C145.894 59.6621 146.899 58.6497 146.899 57.4009C146.899 56.152 145.894 55.1396 144.655 55.1396C143.415 55.1396 142.411 56.152 142.411 57.4009C142.411 58.6497 143.415 59.6621 144.655 59.6621Z" fill="#B1B525" stroke="#453C4E" stroke-width="0.5"/>
<path d="M143.964 57.0527C144.155 57.0527 144.309 56.8969 144.309 56.7048C144.309 56.5127 144.155 56.3569 143.964 56.3569C143.774 56.3569 143.619 56.5127 143.619 56.7048C143.619 56.8969 143.774 57.0527 143.964 57.0527Z" fill="#453C4E"/>
<path d="M144.655 58.4443C144.845 58.4443 145 58.2885 145 58.0964C145 57.9043 144.845 57.7485 144.655 57.7485C144.464 57.7485 144.31 57.9043 144.31 58.0964C144.31 58.2885 144.464 58.4443 144.655 58.4443Z" fill="#453C4E"/>
<path d="M145.345 57.0527C145.536 57.0527 145.69 56.8969 145.69 56.7048C145.69 56.5127 145.536 56.3569 145.345 56.3569C145.155 56.3569 145 56.5127 145 56.7048C145 56.8969 145.155 57.0527 145.345 57.0527Z" fill="#453C4E"/>
<path d="M66.2857 100.713C66.9531 100.713 67.4941 100.167 67.4941 99.4949C67.4941 98.8225 66.9531 98.2773 66.2857 98.2773C65.6184 98.2773 65.0774 98.8225 65.0774 99.4949C65.0774 100.167 65.6184 100.713 66.2857 100.713Z" fill="#D925C1" stroke="#453C4E" stroke-width="0.5"/>
<path d="M194.714 166.114C195.382 166.114 195.923 165.569 195.923 164.897C195.923 164.224 195.382 163.679 194.714 163.679C194.047 163.679 193.506 164.224 193.506 164.897C193.506 165.569 194.047 166.114 194.714 166.114Z" fill="#D925C1" stroke="#453C4E" stroke-width="0.5"/>
<mask id="mask6_799_1173" style="mask-type:luminance" maskUnits="userSpaceOnUse" x="79" y="165" width="43" height="9">
<path d="M119.559 165.94C121.407 165.94 122.758 167.58 121.4 168.843C121.342 168.896 121.284 168.95 121.223 169.003C120.112 169.973 118.485 170.855 116.433 171.598C114.382 172.341 111.946 172.931 109.265 173.333C106.584 173.735 103.711 173.942 100.81 173.942C97.9082 173.942 95.0351 173.735 92.354 173.333C89.6735 172.931 87.2375 172.341 85.1861 171.598C83.134 170.855 81.5066 169.973 80.3963 169.003C80.3355 168.95 80.2768 168.896 80.2195 168.843C78.8614 167.58 80.2119 165.94 82.0597 165.94H82.9076C84.2871 165.94 85.5362 167.164 86.5781 168.075C87.3522 168.752 88.4866 169.367 89.9173 169.885C91.3479 170.403 93.0458 170.814 94.9149 171.094C96.7834 171.374 98.7864 171.518 100.81 171.518C102.833 171.518 104.836 171.374 106.704 171.094C108.573 170.814 110.271 170.403 111.702 169.885C113.132 169.367 114.267 168.752 115.041 168.075C116.083 167.164 117.332 165.94 118.712 165.94H119.559Z" fill="white"/>
</mask>
<g mask="url(#mask6_799_1173)">
<path d="M119.559 165.94C121.407 165.94 122.758 167.58 121.4 168.843C121.342 168.896 121.284 168.95 121.223 169.003C120.112 169.973 118.485 170.855 116.433 171.598C114.382 172.341 111.946 172.931 109.265 173.333C106.584 173.735 103.711 173.942 100.81 173.942C97.9082 173.942 95.0351 173.735 92.354 173.333C89.6735 172.931 87.2375 172.341 85.1861 171.598C83.134 170.855 81.5066 169.973 80.3963 169.003C80.3355 168.95 80.2768 168.896 80.2195 168.843C78.8614 167.58 80.2119 165.94 82.0597 165.94H82.9076C84.2871 165.94 85.5362 167.164 86.5781 168.075C87.3522 168.752 88.4866 169.367 89.9173 169.885C91.3479 170.403 93.0458 170.814 94.9149 171.094C96.7834 171.374 98.7864 171.518 100.81 171.518C102.833 171.518 104.836 171.374 106.704 171.094C108.573 170.814 110.271 170.403 111.702 169.885C113.132 169.367 114.267 168.752 115.041 168.075C116.083 167.164 117.332 165.94 118.712 165.94H119.559Z" fill="#0A7D30" stroke="#453C4E"/>
</g>
<mask id="mask7_799_1173" style="mask-type:luminance" maskUnits="userSpaceOnUse" x="78" y="175" width="44" height="9">
<path d="M80.8941 183.804C79.3198 183.797 78.0901 182.403 79.1016 181.189C79.286 180.968 79.4945 180.749 79.7265 180.533C80.8347 179.503 82.4587 178.569 84.5046 177.787C86.5512 177.003 88.9796 176.385 91.651 175.969C94.3232 175.552 97.1866 175.344 100.078 175.357C102.969 175.37 105.831 175.603 108.501 176.044C111.172 176.485 113.597 177.124 115.64 177.926C117.682 178.727 119.302 179.676 120.406 180.716C120.637 180.934 120.844 181.154 121.027 181.377C122.033 182.6 120.797 183.983 119.222 183.976L119.153 183.976C117.617 183.969 116.259 182.596 115.136 181.538C114.317 180.767 113.117 180.065 111.604 179.471C110.09 178.877 108.293 178.403 106.315 178.077C104.336 177.75 102.215 177.577 100.073 177.567C97.9309 177.558 95.8091 177.712 93.8288 178.02C91.8492 178.329 90.0498 178.787 88.5335 179.367C87.0173 179.948 85.8145 180.639 84.9928 181.403C83.8646 182.451 82.5002 183.811 80.9632 183.804L80.8941 183.804Z" fill="white"/>
</mask>
<g mask="url(#mask7_799_1173)">
<path d="M80.8941 183.804C79.3198 183.797 78.0901 182.403 79.1016 181.189C79.286 180.968 79.4945 180.749 79.7265 180.533C80.8347 179.503 82.4587 178.569 84.5046 177.787C86.5512 177.003 88.9796 176.385 91.651 175.969C94.3232 175.552 97.1866 175.344 100.078 175.357C102.969 175.37 105.831 175.603 108.501 176.044C111.172 176.485 113.597 177.124 115.64 177.926C117.682 178.727 119.302 179.676 120.406 180.716C120.637 180.934 120.844 181.154 121.027 181.377C122.033 182.6 120.797 183.983 119.222 183.976L119.153 183.976C117.617 183.969 116.259 182.596 115.136 181.538C114.317 180.767 113.117 180.065 111.604 179.471C110.09 178.877 108.293 178.403 106.315 178.077C104.336 177.75 102.215 177.577 100.073 177.567C97.9309 177.558 95.8091 177.712 93.8288 178.02C91.8492 178.329 90.0498 178.787 88.5335 179.367C87.0173 179.948 85.8145 180.639 84.9928 181.403C83.8646 182.451 82.5002 183.811 80.9632 183.804L80.8941 183.804Z" fill="#0A7D30" stroke="#453C4E"/>
</g>
<mask id="mask8_799_1173" style="mask-type:luminance" maskUnits="userSpaceOnUse" x="84" y="179" width="19" height="10">
<path d="M85.86 188.226C84.9313 188.222 84.1594 187.443 84.4425 186.552C84.6862 185.784 85.097 185.035 85.6688 184.324C86.6472 183.107 88.0723 182.031 89.8434 181.172C91.6144 180.313 93.6893 179.692 95.9209 179.351C97.7659 179.07 99.682 178.987 101.576 179.103C102.193 179.141 102.598 179.757 102.417 180.353C102.28 180.806 101.843 181.094 101.374 181.063C99.8401 180.959 98.2858 181.022 96.7909 181.249C95.033 181.517 93.3986 182.007 92.0039 182.683C90.6091 183.36 89.4864 184.208 88.7158 185.167C88.3499 185.622 88.0675 186.096 87.8714 186.583C87.5227 187.449 86.7894 188.23 85.86 188.226Z" fill="white"/>
</mask>
<g mask="url(#mask8_799_1173)">
<path d="M85.86 188.226C84.9313 188.222 84.1594 187.443 84.4425 186.552C84.6862 185.784 85.097 185.035 85.6688 184.324C86.6472 183.107 88.0723 182.031 89.8434 181.172C91.6144 180.313 93.6893 179.692 95.9209 179.351C97.7659 179.07 99.682 178.987 101.576 179.103C102.193 179.141 102.598 179.757 102.417 180.353C102.28 180.806 101.843 181.094 101.374 181.063C99.8401 180.959 98.2858 181.022 96.7909 181.249C95.033 181.517 93.3986 182.007 92.0039 182.683C90.6091 183.36 89.4864 184.208 88.7158 185.167C88.3499 185.622 88.0675 186.096 87.8714 186.583C87.5227 187.449 86.7894 188.23 85.86 188.226Z" fill="#0A7D30" stroke="#453C4E"/>
</g>
<mask id="mask9_799_1173" style="mask-type:luminance" maskUnits="userSpaceOnUse" x="103" y="179" width="12" height="9">
<path d="M103.393 180.104C103.59 179.722 104.012 179.511 104.431 179.599C107.071 180.152 109.42 181.103 111.236 182.359C112.544 183.263 113.538 184.299 114.175 185.409C114.671 186.274 113.98 187.227 112.992 187.297C112.191 187.355 111.484 186.794 111.093 186.086C110.592 185.178 109.788 184.33 108.722 183.594C107.459 182.72 105.869 182.032 104.084 181.581C103.441 181.419 103.087 180.696 103.393 180.104Z" fill="white"/>
</mask>
<g mask="url(#mask9_799_1173)">
<path d="M103.393 180.104C103.59 179.722 104.012 179.511 104.431 179.599C107.071 180.152 109.42 181.103 111.236 182.359C112.544 183.263 113.538 184.299 114.175 185.409C114.671 186.274 113.98 187.227 112.992 187.297C112.191 187.355 111.484 186.794 111.093 186.086C110.592 185.178 109.788 184.33 108.722 183.594C107.459 182.72 105.869 182.032 104.084 181.581C103.441 181.419 103.087 180.696 103.393 180.104Z" fill="#0A7D30" stroke="#453C4E"/>
</g>
<mask id="mask10_799_1173" style="mask-type:luminance" maskUnits="userSpaceOnUse" x="84" y="160" width="24" height="11">
<path d="M107.619 167.538C108.248 168.116 108.043 169.15 107.222 169.372C105.285 169.896 103.175 170.187 101.021 170.222C98.1864 170.268 95.3782 169.868 92.8891 169.066C90.3999 168.263 88.3216 167.087 86.8709 165.66C85.9367 164.741 85.2849 163.74 84.9369 162.701C84.6255 161.771 85.4347 160.955 86.4083 160.958C87.3756 160.96 88.1386 161.777 88.5197 162.674C88.8097 163.356 89.2703 164.013 89.891 164.624C91.0193 165.734 92.6371 166.649 94.5732 167.273C96.5099 167.898 98.6953 168.208 100.901 168.173C102.854 168.141 104.759 167.839 106.462 167.295C106.864 167.166 107.307 167.251 107.619 167.538Z" fill="white"/>
</mask>
<g mask="url(#mask10_799_1173)">
<path d="M107.619 167.538C108.248 168.116 108.043 169.15 107.222 169.372C105.285 169.896 103.175 170.187 101.021 170.222C98.1864 170.268 95.3782 169.868 92.8891 169.066C90.3999 168.263 88.3216 167.087 86.8709 165.66C85.9367 164.741 85.2849 163.74 84.9369 162.701C84.6255 161.771 85.4347 160.955 86.4083 160.958C87.3756 160.96 88.1386 161.777 88.5197 162.674C88.8097 163.356 89.2703 164.013 89.891 164.624C91.0193 165.734 92.6371 166.649 94.5732 167.273C96.5099 167.898 98.6953 168.208 100.901 168.173C102.854 168.141 104.759 167.839 106.462 167.295C106.864 167.166 107.307 167.251 107.619 167.538Z" fill="#0A7D30" stroke="#453C4E"/>
</g>
<mask id="mask11_799_1173" style="mask-type:luminance" maskUnits="userSpaceOnUse" x="109" y="161" width="8" height="8">
<path d="M114.56 161.053C115.53 161.058 116.337 161.872 116.03 162.799C115.769 163.585 115.334 164.348 114.732 165.071C113.81 166.177 112.517 167.161 110.933 167.967C110.553 168.161 110.096 168.11 109.752 167.855C109.025 167.316 109.139 166.179 109.884 165.669C110.55 165.213 111.117 164.708 111.569 164.165C111.943 163.715 112.235 163.246 112.441 162.764C112.823 161.866 113.59 161.049 114.56 161.053Z" fill="white"/>
</mask>
<g mask="url(#mask11_799_1173)">
<path d="M114.56 161.053C115.53 161.058 116.337 161.872 116.03 162.799C115.769 163.585 115.334 164.348 114.732 165.071C113.81 166.177 112.517 167.161 110.933 167.967C110.553 168.161 110.096 168.11 109.752 167.855C109.025 167.316 109.139 166.179 109.884 165.669C110.55 165.213 111.117 164.708 111.569 164.165C111.943 163.715 112.235 163.246 112.441 162.764C112.823 161.866 113.59 161.049 114.56 161.053Z" fill="#0A7D30" stroke="#453C4E"/>
</g>
<mask id="mask12_799_1173" style="mask-type:luminance" maskUnits="userSpaceOnUse" x="98" y="159" width="12" height="7">
<path d="M108.274 159.239C109.066 159.246 109.723 159.918 109.432 160.659C109.28 161.049 109.063 161.43 108.787 161.796C108.184 162.592 107.306 163.299 106.212 163.868C105.118 164.436 103.835 164.854 102.447 165.094C101.381 165.277 100.274 165.353 99.1697 165.317C98.6401 165.3 98.2755 164.789 98.3963 164.269C98.4958 163.845 98.8893 163.563 99.3229 163.576C100.103 163.599 100.885 163.544 101.637 163.415C102.632 163.243 103.552 162.944 104.336 162.535C105.119 162.128 105.749 161.622 106.181 161.051C106.291 160.905 106.388 160.756 106.471 160.605C106.853 159.907 107.483 159.232 108.274 159.239Z" fill="white"/>
</mask>
<g mask="url(#mask12_799_1173)">
<path d="M108.274 159.239C109.066 159.246 109.723 159.918 109.432 160.659C109.28 161.049 109.063 161.43 108.787 161.796C108.184 162.592 107.306 163.299 106.212 163.868C105.118 164.436 103.835 164.854 102.447 165.094C101.381 165.277 100.274 165.353 99.1697 165.317C98.6401 165.3 98.2755 164.789 98.3963 164.269C98.4958 163.845 98.8893 163.563 99.3229 163.576C100.103 163.599 100.885 163.544 101.637 163.415C102.632 163.243 103.552 162.944 104.336 162.535C105.119 162.128 105.749 161.622 106.181 161.051C106.291 160.905 106.388 160.756 106.471 160.605C106.853 159.907 107.483 159.232 108.274 159.239Z" fill="#0A7D30" stroke="#453C4E"/>
</g>
<mask id="mask13_799_1173" style="mask-type:luminance" maskUnits="userSpaceOnUse" x="89" y="159" width="9" height="7">
<path d="M97.4939 164.488C97.3433 164.87 96.9505 165.099 96.5493 165.02C94.5918 164.631 92.8608 163.889 91.5951 162.888C90.6588 162.148 90.0132 161.295 89.6949 160.397C89.4319 159.652 90.0982 159.008 90.8819 159.022C91.6807 159.035 92.3022 159.739 92.6736 160.454C92.9305 160.948 93.3296 161.416 93.8585 161.834C94.6353 162.448 95.6551 162.926 96.8131 163.226C97.3634 163.368 97.7024 163.957 97.4939 164.488Z" fill="white"/>
</mask>
<g mask="url(#mask13_799_1173)">
<path d="M97.4939 164.488C97.3433 164.87 96.9505 165.099 96.5493 165.02C94.5918 164.631 92.8608 163.889 91.5951 162.888C90.6588 162.148 90.0132 161.295 89.6949 160.397C89.4319 159.652 90.0982 159.008 90.8819 159.022C91.6807 159.035 92.3022 159.739 92.6736 160.454C92.9305 160.948 93.3296 161.416 93.8585 161.834C94.6353 162.448 95.6551 162.926 96.8131 163.226C97.3634 163.368 97.7024 163.957 97.4939 164.488Z" fill="#0A7D30" stroke="#453C4E"/>
</g>
<mask id="mask14_799_1173" style="mask-type:luminance" maskUnits="userSpaceOnUse" x="105" y="185" width="4" height="4">
<path d="M106.218 185.178C106.551 185.04 106.935 185.08 107.21 185.314C107.999 185.984 108.512 186.736 108.724 187.516C108.916 188.224 108.248 188.766 107.522 188.73L107.186 188.714C106.522 188.681 106.042 188.042 105.782 187.425C105.764 187.384 105.746 187.342 105.726 187.301C105.366 186.557 105.46 185.493 106.218 185.178Z" fill="white"/>
</mask>
<g mask="url(#mask14_799_1173)">
<path d="M106.218 185.178C106.551 185.04 106.935 185.08 107.21 185.314C107.999 185.984 108.512 186.736 108.724 187.516C108.916 188.224 108.248 188.766 107.522 188.73L107.186 188.714C106.522 188.681 106.042 188.042 105.782 187.425C105.764 187.384 105.746 187.342 105.726 187.301C105.366 186.557 105.46 185.493 106.218 185.178Z" fill="#0A7D30" stroke="#453C4E"/>
</g>
<mask id="mask15_799_1173" style="mask-type:luminance" maskUnits="userSpaceOnUse" x="89" y="182" width="17" height="7">
<path d="M90.4897 188.879C89.6977 188.876 89.0397 188.207 89.3283 187.464C89.6135 186.731 90.1189 186.034 90.8266 185.407C91.977 184.389 93.6072 183.608 95.5046 183.165C97.402 182.722 99.4783 182.639 101.461 182.926C102.766 183.115 103.991 183.458 105.068 183.932C105.805 184.255 105.781 185.243 105.079 185.634C104.731 185.826 104.309 185.804 103.958 185.615C103.062 185.134 101.983 184.792 100.814 184.623C99.3927 184.417 97.9047 184.477 96.5445 184.794C95.1842 185.112 94.0159 185.672 93.1915 186.402C92.8048 186.744 92.5017 187.116 92.2897 187.507C91.9093 188.205 91.281 188.883 90.4897 188.879Z" fill="white"/>
</mask>
<g mask="url(#mask15_799_1173)">
<path d="M90.4897 188.879C89.6977 188.876 89.0397 188.207 89.3283 187.464C89.6135 186.731 90.1189 186.034 90.8266 185.407C91.977 184.389 93.6072 183.608 95.5046 183.165C97.402 182.722 99.4783 182.639 101.461 182.926C102.766 183.115 103.991 183.458 105.068 183.932C105.805 184.255 105.781 185.243 105.079 185.634C104.731 185.826 104.309 185.804 103.958 185.615C103.062 185.134 101.983 184.792 100.814 184.623C99.3927 184.417 97.9047 184.477 96.5445 184.794C95.1842 185.112 94.0159 185.672 93.1915 186.402C92.8048 186.744 92.5017 187.116 92.2897 187.507C91.9093 188.205 91.281 188.883 90.4897 188.879Z" fill="#0A7D30" stroke="#453C4E"/>
</g>
<path d="M158.521 183.289C158.626 183.073 158.536 182.811 158.322 182.705C158.108 182.599 157.85 182.689 157.746 182.905L150.602 197.749C150.498 197.965 150.587 198.227 150.801 198.333C151.016 198.439 151.274 198.349 151.378 198.133L158.521 183.289Z" fill="#4CC05D" stroke="#453C4E" stroke-width="0.5"/>
<path d="M159.245 183.647C159.349 183.431 159.26 183.17 159.046 183.064C158.832 182.958 158.573 183.047 158.469 183.263L151.326 198.107C151.221 198.324 151.311 198.585 151.525 198.691C151.739 198.797 151.997 198.708 152.101 198.491L159.245 183.647Z" fill="#4CC05D" stroke="#453C4E" stroke-width="0.5"/>
<path d="M159.969 184.006C160.073 183.789 159.984 183.528 159.769 183.422C159.555 183.316 159.297 183.405 159.193 183.622L152.049 198.466C151.945 198.682 152.034 198.943 152.249 199.049C152.463 199.155 152.721 199.066 152.825 198.85L159.969 184.006Z" fill="#4CC05D" stroke="#453C4E" stroke-width="0.5"/>
<path d="M160.573 184.612C160.677 184.396 160.588 184.134 160.374 184.028C160.159 183.922 159.901 184.012 159.797 184.228L152.653 199.072C152.549 199.289 152.638 199.55 152.853 199.656C153.067 199.762 153.325 199.672 153.429 199.456L160.573 184.612Z" fill="#4CC05D" stroke="#453C4E" stroke-width="0.5"/>
<path d="M157.797 182.931C157.901 182.714 157.812 182.453 157.598 182.347C157.384 182.241 157.125 182.33 157.021 182.547L149.878 197.39C149.774 197.607 149.863 197.868 150.077 197.974C150.291 198.08 150.549 197.991 150.654 197.774L157.797 182.931Z" fill="#4CC05D" stroke="#453C4E" stroke-width="0.5"/>
<path d="M157.074 182.572C157.178 182.356 157.088 182.094 156.874 181.988C156.66 181.882 156.402 181.972 156.298 182.188L149.154 197.032C149.05 197.248 149.139 197.51 149.353 197.616C149.568 197.722 149.826 197.632 149.93 197.416L157.074 182.572Z" fill="#4CC05D" stroke="#453C4E" stroke-width="0.5"/>
<path d="M156.23 182.464C156.334 182.247 156.245 181.986 156.03 181.88C155.816 181.774 155.558 181.863 155.454 182.08L148.31 196.924C148.206 197.14 148.295 197.401 148.51 197.507C148.724 197.614 148.982 197.524 149.086 197.308L156.23 182.464Z" fill="#4CC05D" stroke="#453C4E" stroke-width="0.5"/>
<path d="M156.749 183.646C156.894 183.343 156.769 182.977 156.47 182.829C156.17 182.68 155.809 182.806 155.663 183.108L148.519 197.952C148.373 198.255 148.498 198.621 148.798 198.769C149.098 198.918 149.459 198.792 149.605 198.49L156.749 183.646Z" fill="#4CC05D"/>
<path d="M156.594 183.569C156.698 183.352 156.609 183.091 156.394 182.985C156.18 182.879 155.922 182.968 155.818 183.185L148.674 198.029C148.57 198.245 148.659 198.506 148.873 198.612C149.088 198.718 149.346 198.629 149.45 198.413L156.594 183.569Z" fill="#4CC05D" stroke="#453C4E" stroke-width="0.5"/>
<path d="M157.318 183.927C157.422 183.711 157.333 183.449 157.119 183.343C156.904 183.237 156.646 183.327 156.542 183.543L149.398 198.387C149.294 198.603 149.384 198.865 149.598 198.971C149.812 199.077 150.07 198.987 150.174 198.771L157.318 183.927Z" fill="#4CC05D" stroke="#453C4E" stroke-width="0.5"/>
<path d="M159.49 185.002C159.594 184.785 159.504 184.524 159.29 184.418C159.076 184.312 158.818 184.402 158.714 184.618L151.57 199.462C151.466 199.678 151.555 199.94 151.769 200.046C151.984 200.152 152.242 200.062 152.346 199.846L159.49 185.002Z" fill="#4CC05D" stroke="#453C4E" stroke-width="0.5"/>
<path d="M158.766 184.643C158.87 184.427 158.781 184.166 158.567 184.06C158.352 183.954 158.094 184.043 157.99 184.26L150.846 199.103C150.742 199.32 150.831 199.581 151.046 199.687C151.26 199.793 151.518 199.704 151.622 199.487L158.766 184.643Z" fill="#4CC05D" stroke="#453C4E" stroke-width="0.5"/>
<path d="M158.042 184.286C158.146 184.069 158.056 183.808 157.842 183.702C157.628 183.596 157.37 183.685 157.266 183.902L150.122 198.745C150.018 198.962 150.107 199.223 150.321 199.329C150.536 199.435 150.794 199.346 150.898 199.129L158.042 184.286Z" fill="#4CC05D" stroke="#453C4E" stroke-width="0.5"/>
<path d="M136.367 174.741C136.218 174.552 135.946 174.52 135.758 174.669C135.571 174.817 135.539 175.091 135.687 175.279L145.869 188.198C146.018 188.386 146.29 188.418 146.478 188.269C146.666 188.121 146.697 187.848 146.549 187.659L136.367 174.741Z" fill="#4CC05D" stroke="#453C4E" stroke-width="0.5"/>
<path d="M137.001 174.238C136.852 174.05 136.58 174.018 136.392 174.166C136.204 174.315 136.173 174.588 136.321 174.777L146.503 187.695C146.652 187.883 146.924 187.916 147.112 187.767C147.299 187.618 147.331 187.345 147.183 187.157L137.001 174.238Z" fill="#4CC05D" stroke="#453C4E" stroke-width="0.5"/>
<path d="M137.635 173.737C137.487 173.548 137.214 173.516 137.027 173.665C136.839 173.814 136.807 174.087 136.956 174.275L147.138 187.194C147.286 187.382 147.559 187.414 147.746 187.265C147.934 187.117 147.966 186.844 147.817 186.655L137.635 173.737Z" fill="#4CC05D" stroke="#453C4E" stroke-width="0.5"/>
<path d="M138.44 173.451C138.291 173.262 138.019 173.23 137.831 173.379C137.643 173.527 137.612 173.801 137.76 173.989L147.942 186.907C148.091 187.096 148.363 187.128 148.551 186.979C148.738 186.831 148.77 186.557 148.622 186.369L138.44 173.451Z" fill="#4CC05D" stroke="#453C4E" stroke-width="0.5"/>
<path d="M135.733 175.243C135.585 175.055 135.312 175.023 135.124 175.171C134.937 175.32 134.905 175.593 135.053 175.781L145.235 188.7C145.384 188.888 145.656 188.92 145.844 188.772C146.032 188.623 146.063 188.35 145.915 188.162L135.733 175.243Z" fill="#4CC05D" stroke="#453C4E" stroke-width="0.5"/>
<path d="M135.099 175.746C134.951 175.557 134.678 175.525 134.491 175.674C134.303 175.822 134.271 176.096 134.42 176.284L144.602 189.202C144.75 189.391 145.023 189.423 145.21 189.274C145.398 189.126 145.43 188.852 145.281 188.664L135.099 175.746Z" fill="#4CC05D" stroke="#453C4E" stroke-width="0.5"/>
<path d="M134.636 176.464C134.487 176.275 134.215 176.243 134.027 176.392C133.84 176.541 133.808 176.814 133.956 177.002L144.138 189.921C144.287 190.109 144.559 190.141 144.747 189.993C144.935 189.844 144.966 189.571 144.818 189.382L134.636 176.464Z" fill="#4CC05D" stroke="#453C4E" stroke-width="0.5"/>
<path d="M135.918 176.505C135.71 176.242 135.329 176.197 135.067 176.405C134.804 176.613 134.759 176.995 134.967 177.258L145.149 190.177C145.357 190.441 145.738 190.486 146.001 190.278C146.263 190.07 146.308 189.687 146.1 189.424L135.918 176.505Z" fill="#4CC05D"/>
<path d="M135.782 176.612C135.634 176.424 135.361 176.392 135.173 176.54C134.986 176.689 134.954 176.962 135.102 177.151L145.284 190.069C145.433 190.257 145.705 190.29 145.893 190.141C146.081 189.992 146.112 189.719 145.964 189.531L135.782 176.612Z" fill="#4CC05D" stroke="#453C4E" stroke-width="0.5"/>
<path d="M136.416 176.11C136.267 175.921 135.995 175.889 135.807 176.038C135.62 176.187 135.588 176.46 135.736 176.648L145.918 189.567C146.067 189.755 146.339 189.787 146.527 189.639C146.715 189.49 146.746 189.217 146.598 189.028L136.416 176.11Z" fill="#4CC05D" stroke="#453C4E" stroke-width="0.5"/>
<path d="M138.318 174.603C138.17 174.415 137.897 174.383 137.71 174.532C137.522 174.68 137.49 174.953 137.639 175.142L147.821 188.06C147.969 188.249 148.242 188.281 148.429 188.132C148.617 187.984 148.649 187.71 148.5 187.522L138.318 174.603Z" fill="#4CC05D" stroke="#453C4E" stroke-width="0.5"/>
<path d="M137.684 175.106C137.536 174.918 137.263 174.885 137.076 175.034C136.888 175.183 136.856 175.456 137.005 175.644L147.187 188.563C147.335 188.751 147.608 188.783 147.795 188.635C147.983 188.486 148.015 188.213 147.866 188.024L137.684 175.106Z" fill="#4CC05D" stroke="#453C4E" stroke-width="0.5"/>
<path d="M137.05 175.607C136.902 175.419 136.63 175.387 136.442 175.536C136.254 175.684 136.222 175.957 136.371 176.146L146.553 189.064C146.701 189.253 146.974 189.285 147.161 189.136C147.349 188.987 147.381 188.714 147.232 188.526L137.05 175.607Z" fill="#4CC05D" stroke="#453C4E" stroke-width="0.5"/>
<path d="M185.783 96.181C185.429 96.3083 185.195 96.3278 185.048 96.3055C184.925 96.2874 184.829 96.2359 184.729 96.117C184.618 95.9841 184.515 95.7774 184.42 95.4796C184.327 95.1867 184.25 94.834 184.173 94.4248C183.866 92.8065 183.569 90.3984 182.094 88.0927C180.618 85.7855 178.324 84.1435 176.857 82.9885C176.486 82.6963 176.174 82.4403 175.934 82.2121C175.69 81.9797 175.547 81.8009 175.484 81.6617C175.429 81.542 175.436 81.4606 175.495 81.3799C175.567 81.2811 175.737 81.1587 176.094 81.0306C177.498 80.5283 179.73 80.6772 181.992 81.5246C184.24 82.3672 186.459 83.8812 187.837 86.036C189.215 88.1915 189.425 90.4764 188.916 92.3577C188.403 94.2502 187.182 95.68 185.783 96.181Z" fill="#0D97B5" stroke="#453C4E"/>
<path d="M186.289 94.0059C185.938 94.1318 185.704 94.1527 185.556 94.1325C185.432 94.1158 185.347 94.0692 185.265 93.9739C185.17 93.8625 185.084 93.6872 185.014 93.4319C184.946 93.1821 184.901 92.8836 184.865 92.5448C184.798 91.8963 184.767 91.0475 184.664 90.2793C184.559 89.4959 184.372 88.6895 183.948 88.0264C183.528 87.3689 182.759 86.6739 181.939 86.0059C181.525 85.6685 181.087 85.329 180.66 84.9978C180.231 84.6659 179.813 84.3417 179.431 84.0286C178.651 83.3878 178.088 82.8451 177.879 82.4227C177.781 82.2251 177.778 82.0867 177.83 81.9795C177.885 81.8661 178.028 81.7339 178.363 81.6136C179.019 81.3791 179.805 81.4118 180.669 81.6553C181.537 81.8995 182.46 82.3497 183.355 82.9167C185.15 84.055 186.755 85.6149 187.486 86.7588C188.213 87.8949 188.622 89.4729 188.48 90.8951C188.338 92.3186 187.653 93.5174 186.289 94.0059Z" fill="#1BB2D4" stroke="#453C4E"/>
<path d="M150.869 161.94C152.108 161.94 153.113 160.928 153.113 159.679C153.113 158.43 152.108 157.417 150.869 157.417C149.63 157.417 148.625 158.43 148.625 159.679C148.625 160.928 149.63 161.94 150.869 161.94Z" fill="#B1B525" stroke="#453C4E" stroke-width="0.5"/>
<path d="M150.179 159.331C150.369 159.331 150.524 159.175 150.524 158.983C150.524 158.791 150.369 158.635 150.179 158.635C149.988 158.635 149.833 158.791 149.833 158.983C149.833 159.175 149.988 159.331 150.179 159.331Z" fill="#453C4E"/>
<path d="M150.869 160.722C151.06 160.722 151.214 160.566 151.214 160.374C151.214 160.182 151.06 160.026 150.869 160.026C150.678 160.026 150.524 160.182 150.524 160.374C150.524 160.566 150.678 160.722 150.869 160.722Z" fill="#453C4E"/>
<path d="M151.56 159.331C151.75 159.331 151.905 159.175 151.905 158.983C151.905 158.791 151.75 158.635 151.56 158.635C151.369 158.635 151.214 158.791 151.214 158.983C151.214 159.175 151.369 159.331 151.56 159.331Z" fill="#453C4E"/>
<path d="M69.3362 127.849L55.8804 145.333L56.8626 146.1L70.3183 128.616L69.3362 127.849Z" fill="#D318BA" stroke="#453C4E" stroke-width="0.2"/>
<path d="M69.4467 128.728C69.6804 128.424 69.6256 127.987 69.3242 127.752C69.0229 127.516 68.5892 127.571 68.3555 127.875C68.1218 128.179 68.1766 128.616 68.478 128.851C68.7793 129.087 69.213 129.031 69.4467 128.728Z" fill="#10F504"/>
<path d="M56.7525 145.222C56.9862 144.919 56.9313 144.482 56.63 144.246C56.3286 144.011 55.8949 144.066 55.6612 144.37C55.4275 144.673 55.4824 145.11 55.7837 145.346C56.085 145.581 56.5188 145.526 56.7525 145.222Z" fill="#10F504"/>
<path d="M58.445 143.023C58.6787 142.72 58.6238 142.282 58.3225 142.047C58.0211 141.811 57.5874 141.867 57.3537 142.17C57.12 142.474 57.1749 142.911 57.4762 143.147C57.7775 143.382 58.2113 143.327 58.445 143.023Z" fill="#D6F6D4"/>
<path d="M57.5987 144.122C57.8324 143.819 57.7776 143.382 57.4762 143.146C57.1749 142.911 56.7411 142.966 56.5075 143.27C56.2738 143.573 56.3286 144.01 56.63 144.246C56.9313 144.481 57.365 144.426 57.5987 144.122Z" fill="#00AC9D"/>
<path d="M66.9077 132.027C67.1414 131.723 67.0866 131.286 66.7852 131.05C66.4839 130.815 66.0501 130.87 65.8164 131.174C65.5828 131.477 65.6376 131.915 65.9389 132.15C66.2403 132.385 66.674 132.33 66.9077 132.027Z" fill="#10F504"/>
<path d="M68.6002 129.827C68.8338 129.524 68.779 129.087 68.4777 128.851C68.1763 128.616 67.7426 128.671 67.5089 128.975C67.2752 129.278 67.33 129.715 67.6314 129.951C67.9327 130.186 68.3665 130.131 68.6002 129.827Z" fill="#D6F6D4"/>
<path d="M67.754 130.927C67.9877 130.624 67.9328 130.187 67.6315 129.951C67.3301 129.716 66.8964 129.771 66.6627 130.075C66.429 130.378 66.4839 130.815 66.7852 131.051C67.0865 131.286 67.5203 131.231 67.754 130.927Z" fill="#00AC9D"/>
<path d="M64.369 135.326C64.6027 135.022 64.5478 134.585 64.2465 134.35C63.9451 134.114 63.5114 134.169 63.2777 134.473C63.044 134.777 63.0989 135.214 63.4002 135.449C63.7016 135.685 64.1353 135.63 64.369 135.326Z" fill="#10F504"/>
<path d="M66.0615 133.127C66.2951 132.823 66.2403 132.386 65.939 132.15C65.6376 131.915 65.2039 131.97 64.9702 132.274C64.7365 132.578 64.7913 133.015 65.0927 133.25C65.394 133.486 65.8278 133.43 66.0615 133.127Z" fill="#D6F6D4"/>
<path d="M65.2152 134.226C65.4489 133.922 65.3941 133.485 65.0927 133.25C64.7914 133.014 64.3576 133.069 64.1239 133.373C63.8903 133.677 63.9451 134.114 64.2464 134.349C64.5478 134.585 64.9815 134.529 65.2152 134.226Z" fill="#00AC9D"/>
<path d="M61.8302 138.625C62.0639 138.321 62.0091 137.884 61.7077 137.649C61.4064 137.413 60.9727 137.468 60.739 137.772C60.5053 138.076 60.5601 138.513 60.8615 138.748C61.1628 138.984 61.5965 138.928 61.8302 138.625Z" fill="#10F504"/>
<path d="M63.5227 136.425C63.7564 136.121 63.7016 135.684 63.4002 135.449C63.0989 135.213 62.6652 135.269 62.4315 135.572C62.1978 135.876 62.2526 136.313 62.554 136.548C62.8553 136.784 63.289 136.729 63.5227 136.425Z" fill="#D6F6D4"/>
<path d="M62.6765 137.525C62.9102 137.221 62.8553 136.784 62.554 136.549C62.2526 136.313 61.8189 136.369 61.5852 136.672C61.3515 136.976 61.4064 137.413 61.7077 137.649C62.0091 137.884 62.4428 137.829 62.6765 137.525Z" fill="#00AC9D"/>
<path d="M59.2912 141.923C59.5249 141.619 59.47 141.182 59.1687 140.947C58.8674 140.711 58.4336 140.767 58.1999 141.07C57.9662 141.374 58.0211 141.811 58.3224 142.046C58.6238 142.282 59.0575 142.227 59.2912 141.923Z" fill="#10F504"/>
<path d="M60.984 139.724C61.2177 139.421 61.1629 138.984 60.8615 138.748C60.5602 138.513 60.1265 138.568 59.8928 138.872C59.6591 139.175 59.7139 139.612 60.0153 139.848C60.3166 140.083 60.7503 140.028 60.984 139.724Z" fill="#D6F6D4"/>
<path d="M60.1374 140.824C60.3711 140.52 60.3163 140.083 60.015 139.848C59.7136 139.612 59.2799 139.668 59.0462 139.971C58.8125 140.275 58.8673 140.712 59.1687 140.947C59.47 141.183 59.9038 141.128 60.1374 140.824Z" fill="#00AC9D"/>
<path d="M58.5677 143.999C58.8014 143.696 58.7466 143.259 58.4452 143.023C58.1439 142.788 57.7101 142.843 57.4765 143.146C57.2428 143.45 57.2976 143.887 57.5989 144.123C57.9003 144.358 58.334 144.303 58.5677 143.999Z" fill="#10F504"/>
<path d="M60.2602 141.8C60.4938 141.496 60.439 141.059 60.1377 140.824C59.8363 140.588 59.4026 140.644 59.1689 140.947C58.9352 141.251 58.99 141.688 59.2914 141.923C59.5927 142.159 60.0265 142.104 60.2602 141.8Z" fill="#D6F6D4"/>
<path d="M57.7211 145.099C57.9548 144.795 57.9 144.358 57.5986 144.123C57.2973 143.887 56.8636 143.942 56.6299 144.246C56.3962 144.55 56.451 144.987 56.7524 145.222C57.0537 145.458 57.4874 145.402 57.7211 145.099Z" fill="#D6F6D4"/>
<path d="M59.4139 142.899C59.6476 142.595 59.5928 142.158 59.2914 141.923C58.9901 141.687 58.5563 141.743 58.3226 142.046C58.089 142.35 58.1438 142.787 58.4451 143.023C58.7465 143.258 59.1802 143.203 59.4139 142.899Z" fill="#00AC9D"/>
<path d="M68.7229 130.804C68.9566 130.5 68.9017 130.063 68.6004 129.828C68.2991 129.592 67.8653 129.648 67.6316 129.951C67.3979 130.255 67.4528 130.692 67.7541 130.927C68.0555 131.163 68.4892 131.108 68.7229 130.804Z" fill="#10F504"/>
<path d="M66.1838 134.103C66.4175 133.799 66.3627 133.362 66.0613 133.127C65.76 132.891 65.3263 132.946 65.0926 133.25C64.8589 133.554 64.9137 133.991 65.2151 134.226C65.5164 134.462 65.9501 134.406 66.1838 134.103Z" fill="#10F504"/>
<path d="M67.8766 131.904C68.1103 131.6 68.0555 131.163 67.7541 130.927C67.4528 130.692 67.0191 130.747 66.7854 131.051C66.5517 131.354 66.6065 131.791 66.9079 132.027C67.2092 132.262 67.6429 132.207 67.8766 131.904Z" fill="#D6F6D4"/>
<path d="M67.0304 133.003C67.2641 132.699 67.2092 132.262 66.9079 132.026C66.6066 131.791 66.1728 131.846 65.9391 132.15C65.7054 132.454 65.7603 132.891 66.0616 133.126C66.363 133.362 66.7967 133.306 67.0304 133.003Z" fill="#00AC9D"/>
<path d="M63.6451 137.402C63.8788 137.098 63.824 136.661 63.5226 136.425C63.2213 136.19 62.7876 136.245 62.5539 136.549C62.3202 136.852 62.375 137.29 62.6764 137.525C62.9777 137.76 63.4114 137.705 63.6451 137.402Z" fill="#10F504"/>
<path d="M65.3376 135.202C65.5713 134.898 65.5164 134.461 65.2151 134.226C64.9137 133.99 64.48 134.045 64.2463 134.349C64.0126 134.653 64.0675 135.09 64.3688 135.325C64.6702 135.561 65.1039 135.506 65.3376 135.202Z" fill="#D6F6D4"/>
<path d="M64.4914 136.302C64.7251 135.998 64.6702 135.561 64.3689 135.326C64.0676 135.09 63.6338 135.146 63.4001 135.449C63.1664 135.753 63.2213 136.19 63.5226 136.425C63.824 136.661 64.2577 136.606 64.4914 136.302Z" fill="#00AC9D"/>
<path d="M61.1064 140.701C61.3401 140.397 61.2853 139.96 60.9839 139.725C60.6826 139.489 60.2488 139.544 60.0151 139.848C59.7815 140.152 59.8363 140.589 60.1376 140.824C60.439 141.06 60.8727 141.005 61.1064 140.701Z" fill="#10F504"/>
<path d="M62.7989 138.501C63.0326 138.198 62.9777 137.76 62.6764 137.525C62.375 137.29 61.9413 137.345 61.7076 137.648C61.4739 137.952 61.5288 138.389 61.8301 138.625C62.1315 138.86 62.5652 138.805 62.7989 138.501Z" fill="#D6F6D4"/>
<path d="M61.9527 139.601C62.1864 139.297 62.1315 138.86 61.8302 138.625C61.5288 138.389 61.0951 138.444 60.8614 138.748C60.6277 139.052 60.6826 139.489 60.9839 139.724C61.2852 139.96 61.719 139.904 61.9527 139.601Z" fill="#00AC9D"/>
<path d="M57.8438 146.075C58.0775 145.771 58.0227 145.334 57.7213 145.099C57.42 144.863 56.9863 144.919 56.7526 145.222C56.5189 145.526 56.5737 145.963 56.8751 146.198C57.1764 146.434 57.6101 146.379 57.8438 146.075Z" fill="#10F504"/>
<path d="M59.5363 143.876C59.77 143.573 59.7152 143.135 59.4138 142.9C59.1125 142.665 58.6788 142.72 58.4451 143.023C58.2114 143.327 58.2662 143.764 58.5676 144C58.8689 144.235 59.3026 144.18 59.5363 143.876Z" fill="#D6F6D4"/>
<path d="M58.6901 144.975C58.9238 144.672 58.8689 144.235 58.5676 143.999C58.2663 143.764 57.8325 143.819 57.5988 144.123C57.3651 144.426 57.42 144.863 57.7213 145.099C58.0227 145.334 58.4564 145.279 58.6901 144.975Z" fill="#00AC9D"/>
<path d="M67.999 132.88C68.2327 132.576 68.1779 132.139 67.8765 131.903C67.5752 131.668 67.1414 131.723 66.9078 132.027C66.6741 132.331 66.7289 132.768 67.0302 133.003C67.3316 133.239 67.7653 133.183 67.999 132.88Z" fill="#10F504"/>
<path d="M65.4603 136.178C65.694 135.875 65.6392 135.438 65.3378 135.202C65.0365 134.967 64.6028 135.022 64.3691 135.326C64.1354 135.629 64.1902 136.066 64.4916 136.302C64.7929 136.537 65.2266 136.482 65.4603 136.178Z" fill="#10F504"/>
<path d="M67.1528 133.979C67.3865 133.675 67.3316 133.238 67.0303 133.003C66.7289 132.767 66.2952 132.822 66.0615 133.126C65.8278 133.43 65.8827 133.867 66.184 134.102C66.4853 134.338 66.9191 134.282 67.1528 133.979Z" fill="#D6F6D4"/>
<path d="M66.3066 135.079C66.5403 134.775 66.4854 134.338 66.1841 134.103C65.8827 133.867 65.449 133.922 65.2153 134.226C64.9816 134.53 65.0365 134.967 65.3378 135.202C65.6391 135.438 66.0729 135.382 66.3066 135.079Z" fill="#00AC9D"/>
<path d="M68.8453 131.78C69.079 131.477 69.0241 131.04 68.7228 130.804C68.4214 130.569 67.9877 130.624 67.754 130.928C67.5203 131.231 67.5752 131.668 67.8765 131.904C68.1778 132.139 68.6116 132.084 68.8453 131.78Z" fill="#00AC9D"/>
<path d="M69.5691 129.704C69.8028 129.401 69.748 128.964 69.4467 128.728C69.1453 128.493 68.7116 128.548 68.4779 128.852C68.2442 129.155 68.299 129.592 68.6004 129.828C68.9017 130.063 69.3355 130.008 69.5691 129.704Z" fill="#00AC9D"/>
<path d="M62.9213 139.478C63.155 139.174 63.1001 138.737 62.7988 138.502C62.4974 138.266 62.0637 138.321 61.83 138.625C61.5963 138.929 61.6511 139.366 61.9525 139.601C62.2538 139.837 62.6876 139.781 62.9213 139.478Z" fill="#10F504"/>
<path d="M64.6141 137.278C64.8478 136.974 64.7929 136.537 64.4916 136.302C64.1903 136.066 63.7565 136.122 63.5228 136.425C63.2891 136.729 63.344 137.166 63.6453 137.401C63.9467 137.637 64.3804 137.582 64.6141 137.278Z" fill="#D6F6D4"/>
<path d="M63.7675 138.378C64.0012 138.074 63.9464 137.637 63.645 137.401C63.3437 137.166 62.9099 137.221 62.6762 137.525C62.4426 137.829 62.4974 138.266 62.7987 138.501C63.1001 138.737 63.5338 138.681 63.7675 138.378Z" fill="#00AC9D"/>
<path d="M60.3826 142.776C60.6163 142.472 60.5614 142.035 60.2601 141.8C59.9587 141.564 59.525 141.62 59.2913 141.923C59.0576 142.227 59.1125 142.664 59.4138 142.9C59.7151 143.135 60.1489 143.08 60.3826 142.776Z" fill="#10F504"/>
<path d="M62.075 140.577C62.3087 140.273 62.2539 139.836 61.9525 139.601C61.6512 139.365 61.2174 139.42 60.9837 139.724C60.7501 140.028 60.8049 140.465 61.1062 140.7C61.4076 140.936 61.8413 140.881 62.075 140.577Z" fill="#D6F6D4"/>
<path d="M61.2288 141.677C61.4625 141.373 61.4077 140.936 61.1063 140.701C60.805 140.465 60.3712 140.521 60.1376 140.824C59.9039 141.128 59.9587 141.565 60.26 141.8C60.5614 142.036 60.9951 141.981 61.2288 141.677Z" fill="#00AC9D"/>
<path d="M69.6913 130.68C69.925 130.377 69.8701 129.94 69.5688 129.704C69.2674 129.469 68.8337 129.524 68.6 129.828C68.3663 130.131 68.4212 130.568 68.7225 130.804C69.0239 131.039 69.4576 130.984 69.6913 130.68Z" fill="#D6F6D4"/>
<path d="M70.5378 129.581C70.7715 129.277 70.7167 128.84 70.4153 128.605C70.114 128.369 69.6803 128.424 69.4466 128.728C69.2129 129.032 69.2677 129.469 69.5691 129.704C69.8704 129.94 70.3041 129.884 70.5378 129.581Z" fill="#10F504"/>
<path d="M69.3362 132.72L55.8804 150.204L56.8626 150.971L70.3183 133.487L69.3362 132.72Z" fill="#D318BA" stroke="#453C4E" stroke-width="0.2"/>
<path d="M69.4467 133.598C69.6804 133.295 69.6256 132.858 69.3242 132.622C69.0229 132.387 68.5892 132.442 68.3555 132.746C68.1218 133.049 68.1766 133.486 68.478 133.722C68.7793 133.957 69.213 133.902 69.4467 133.598Z" fill="#10F504"/>
<path d="M56.7525 150.093C56.9862 149.789 56.9313 149.352 56.63 149.117C56.3286 148.881 55.8949 148.937 55.6612 149.24C55.4275 149.544 55.4824 149.981 55.7837 150.216C56.085 150.452 56.5188 150.397 56.7525 150.093Z" fill="#10F504"/>
<path d="M58.445 147.894C58.6787 147.59 58.6238 147.153 58.3225 146.918C58.0211 146.682 57.5874 146.737 57.3537 147.041C57.12 147.345 57.1749 147.782 57.4762 148.017C57.7775 148.253 58.2113 148.197 58.445 147.894Z" fill="#D6F6D4"/>
<path d="M57.5987 148.993C57.8324 148.689 57.7776 148.252 57.4762 148.017C57.1749 147.781 56.7411 147.836 56.5075 148.14C56.2738 148.444 56.3286 148.881 56.63 149.116C56.9313 149.352 57.365 149.297 57.5987 148.993Z" fill="#00AC9D"/>
<path d="M66.9077 136.897C67.1414 136.593 67.0866 136.156 66.7852 135.921C66.4839 135.685 66.0501 135.74 65.8164 136.044C65.5828 136.348 65.6376 136.785 65.9389 137.02C66.2403 137.256 66.674 137.2 66.9077 136.897Z" fill="#10F504"/>
<path d="M68.6002 134.697C68.8338 134.394 68.779 133.957 68.4777 133.721C68.1763 133.486 67.7426 133.541 67.5089 133.845C67.2752 134.148 67.33 134.585 67.6314 134.821C67.9327 135.056 68.3665 135.001 68.6002 134.697Z" fill="#D6F6D4"/>
<path d="M67.754 135.798C67.9877 135.494 67.9328 135.057 67.6315 134.821C67.3301 134.586 66.8964 134.641 66.6627 134.945C66.429 135.248 66.4839 135.686 66.7852 135.921C67.0865 136.156 67.5203 136.101 67.754 135.798Z" fill="#00AC9D"/>
<path d="M64.369 140.197C64.6027 139.893 64.5478 139.456 64.2465 139.22C63.9451 138.985 63.5114 139.04 63.2777 139.344C63.044 139.647 63.0989 140.084 63.4002 140.32C63.7016 140.555 64.1353 140.5 64.369 140.197Z" fill="#10F504"/>
<path d="M66.0615 137.997C66.2951 137.693 66.2403 137.256 65.939 137.021C65.6376 136.785 65.2039 136.84 64.9702 137.144C64.7365 137.448 64.7913 137.885 65.0927 138.12C65.394 138.356 65.8278 138.3 66.0615 137.997Z" fill="#D6F6D4"/>
<path d="M65.2152 139.096C65.4489 138.793 65.3941 138.356 65.0927 138.12C64.7914 137.885 64.3576 137.94 64.1239 138.244C63.8903 138.547 63.9451 138.984 64.2464 139.22C64.5478 139.455 64.9815 139.4 65.2152 139.096Z" fill="#00AC9D"/>
<path d="M61.8302 143.495C62.0639 143.191 62.0091 142.754 61.7077 142.519C61.4064 142.283 60.9727 142.338 60.739 142.642C60.5053 142.946 60.5601 143.383 60.8615 143.618C61.1628 143.854 61.5965 143.798 61.8302 143.495Z" fill="#10F504"/>
<path d="M63.5227 141.296C63.7564 140.992 63.7016 140.555 63.4002 140.319C63.0989 140.084 62.6652 140.139 62.4315 140.443C62.1978 140.747 62.2526 141.184 62.554 141.419C62.8553 141.655 63.289 141.599 63.5227 141.296Z" fill="#D6F6D4"/>
<path d="M62.6765 142.396C62.9102 142.092 62.8553 141.655 62.554 141.42C62.2526 141.184 61.8189 141.239 61.5852 141.543C61.3515 141.847 61.4064 142.284 61.7077 142.519C62.0091 142.755 62.4428 142.699 62.6765 142.396Z" fill="#00AC9D"/>
<path d="M59.2912 146.794C59.5249 146.49 59.47 146.053 59.1687 145.817C58.8674 145.582 58.4336 145.637 58.1999 145.941C57.9662 146.245 58.0211 146.682 58.3224 146.917C58.6238 147.153 59.0575 147.097 59.2912 146.794Z" fill="#10F504"/>
<path d="M60.984 144.595C61.2177 144.291 61.1629 143.854 60.8615 143.619C60.5602 143.383 60.1265 143.439 59.8928 143.742C59.6591 144.046 59.7139 144.483 60.0153 144.718C60.3166 144.954 60.7503 144.899 60.984 144.595Z" fill="#D6F6D4"/>
<path d="M60.1374 145.694C60.3711 145.39 60.3163 144.953 60.015 144.718C59.7136 144.482 59.2799 144.538 59.0462 144.841C58.8125 145.145 58.8673 145.582 59.1687 145.817C59.47 146.053 59.9038 145.998 60.1374 145.694Z" fill="#00AC9D"/>
<path d="M58.5677 148.87C58.8014 148.566 58.7466 148.129 58.4452 147.894C58.1439 147.658 57.7101 147.713 57.4765 148.017C57.2428 148.321 57.2976 148.758 57.5989 148.993C57.9003 149.229 58.334 149.173 58.5677 148.87Z" fill="#10F504"/>
<path d="M60.2602 146.67C60.4938 146.366 60.439 145.929 60.1377 145.694C59.8363 145.458 59.4026 145.514 59.1689 145.817C58.9352 146.121 58.99 146.558 59.2914 146.794C59.5927 147.029 60.0265 146.974 60.2602 146.67Z" fill="#D6F6D4"/>
<path d="M57.7211 149.969C57.9548 149.665 57.9 149.228 57.5986 148.993C57.2973 148.757 56.8636 148.813 56.6299 149.116C56.3962 149.42 56.451 149.857 56.7524 150.092C57.0537 150.328 57.4874 150.273 57.7211 149.969Z" fill="#D6F6D4"/>
<path d="M59.4139 147.77C59.6476 147.466 59.5928 147.029 59.2914 146.794C58.9901 146.558 58.5563 146.613 58.3226 146.917C58.089 147.221 58.1438 147.658 58.4451 147.893C58.7465 148.129 59.1802 148.073 59.4139 147.77Z" fill="#00AC9D"/>
<path d="M68.7229 135.675C68.9566 135.371 68.9017 134.934 68.6004 134.698C68.2991 134.463 67.8653 134.518 67.6316 134.822C67.3979 135.125 67.4528 135.562 67.7541 135.798C68.0555 136.033 68.4892 135.978 68.7229 135.675Z" fill="#10F504"/>
<path d="M66.1838 138.973C66.4175 138.669 66.3627 138.232 66.0613 137.997C65.76 137.761 65.3263 137.816 65.0926 138.12C64.8589 138.424 64.9137 138.861 65.2151 139.096C65.5164 139.332 65.9501 139.277 66.1838 138.973Z" fill="#10F504"/>
<path d="M67.8766 136.774C68.1103 136.47 68.0555 136.033 67.7541 135.797C67.4528 135.562 67.0191 135.617 66.7854 135.921C66.5517 136.225 66.6065 136.662 66.9079 136.897C67.2092 137.133 67.6429 137.077 67.8766 136.774Z" fill="#D6F6D4"/>
<path d="M67.0304 137.873C67.2641 137.57 67.2092 137.133 66.9079 136.897C66.6066 136.662 66.1728 136.717 65.9391 137.021C65.7054 137.324 65.7603 137.761 66.0616 137.997C66.363 138.232 66.7967 138.177 67.0304 137.873Z" fill="#00AC9D"/>
<path d="M63.6451 142.272C63.8788 141.968 63.824 141.531 63.5226 141.296C63.2213 141.06 62.7876 141.115 62.5539 141.419C62.3202 141.723 62.375 142.16 62.6764 142.395C62.9777 142.631 63.4114 142.575 63.6451 142.272Z" fill="#10F504"/>
<path d="M65.3376 140.072C65.5713 139.769 65.5164 139.332 65.2151 139.096C64.9137 138.861 64.48 138.916 64.2463 139.22C64.0126 139.523 64.0675 139.96 64.3688 140.196C64.6702 140.431 65.1039 140.376 65.3376 140.072Z" fill="#D6F6D4"/>
<path d="M64.4914 141.173C64.7251 140.869 64.6702 140.432 64.3689 140.196C64.0676 139.961 63.6338 140.016 63.4001 140.32C63.1664 140.623 63.2213 141.061 63.5226 141.296C63.824 141.531 64.2577 141.476 64.4914 141.173Z" fill="#00AC9D"/>
<path d="M61.1064 145.571C61.3401 145.267 61.2853 144.83 60.9839 144.595C60.6826 144.359 60.2488 144.415 60.0151 144.718C59.7815 145.022 59.8363 145.459 60.1376 145.694C60.439 145.93 60.8727 145.875 61.1064 145.571Z" fill="#10F504"/>
<path d="M62.7989 143.372C63.0326 143.068 62.9777 142.631 62.6764 142.396C62.375 142.16 61.9413 142.215 61.7076 142.519C61.4739 142.823 61.5288 143.26 61.8301 143.495C62.1315 143.731 62.5652 143.675 62.7989 143.372Z" fill="#D6F6D4"/>
<path d="M61.9527 144.471C62.1864 144.167 62.1315 143.73 61.8302 143.495C61.5288 143.259 61.0951 143.315 60.8614 143.618C60.6277 143.922 60.6826 144.359 60.9839 144.594C61.2852 144.83 61.719 144.775 61.9527 144.471Z" fill="#00AC9D"/>
<path d="M57.8438 150.945C58.0775 150.641 58.0227 150.204 57.7213 149.969C57.42 149.733 56.9863 149.789 56.7526 150.092C56.5189 150.396 56.5737 150.833 56.8751 151.068C57.1764 151.304 57.6101 151.249 57.8438 150.945Z" fill="#10F504"/>
<path d="M59.5363 148.746C59.77 148.443 59.7152 148.006 59.4138 147.77C59.1125 147.535 58.6788 147.59 58.4451 147.894C58.2114 148.197 58.2662 148.634 58.5676 148.87C58.8689 149.105 59.3026 149.05 59.5363 148.746Z" fill="#D6F6D4"/>
<path d="M58.6901 149.846C58.9238 149.542 58.8689 149.105 58.5676 148.87C58.2663 148.634 57.8325 148.69 57.5988 148.993C57.3651 149.297 57.42 149.734 57.7213 149.969C58.0227 150.205 58.4564 150.15 58.6901 149.846Z" fill="#00AC9D"/>
<path d="M67.999 137.75C68.2327 137.446 68.1779 137.009 67.8765 136.774C67.5752 136.538 67.1414 136.593 66.9078 136.897C66.6741 137.201 66.7289 137.638 67.0302 137.873C67.3316 138.109 67.7653 138.053 67.999 137.75Z" fill="#10F504"/>
<path d="M65.4603 141.049C65.694 140.745 65.6392 140.308 65.3378 140.072C65.0365 139.837 64.6028 139.892 64.3691 140.196C64.1354 140.499 64.1902 140.937 64.4916 141.172C64.7929 141.407 65.2266 141.352 65.4603 141.049Z" fill="#10F504"/>
<path d="M67.1528 138.849C67.3865 138.546 67.3316 138.109 67.0303 137.873C66.7289 137.638 66.2952 137.693 66.0615 137.997C65.8278 138.3 65.8827 138.737 66.184 138.973C66.4853 139.208 66.9191 139.153 67.1528 138.849Z" fill="#D6F6D4"/>
<path d="M66.3066 139.949C66.5403 139.646 66.4854 139.209 66.1841 138.973C65.8827 138.738 65.449 138.793 65.2153 139.097C64.9816 139.4 65.0365 139.837 65.3378 140.073C65.6391 140.308 66.0729 140.253 66.3066 139.949Z" fill="#00AC9D"/>
<path d="M68.8453 136.651C69.079 136.347 69.0241 135.91 68.7228 135.674C68.4214 135.439 67.9877 135.494 67.754 135.798C67.5203 136.101 67.5752 136.539 67.8765 136.774C68.1778 137.01 68.6116 136.954 68.8453 136.651Z" fill="#00AC9D"/>
<path d="M69.5691 134.574C69.8028 134.271 69.748 133.834 69.4467 133.598C69.1453 133.363 68.7116 133.418 68.4779 133.722C68.2442 134.025 68.299 134.462 68.6004 134.698C68.9017 134.933 69.3355 134.878 69.5691 134.574Z" fill="#00AC9D"/>
<path d="M62.9213 144.348C63.155 144.044 63.1001 143.607 62.7988 143.372C62.4974 143.136 62.0637 143.191 61.83 143.495C61.5963 143.799 61.6511 144.236 61.9525 144.471C62.2538 144.707 62.6876 144.652 62.9213 144.348Z" fill="#10F504"/>
<path d="M64.6141 142.149C64.8478 141.845 64.7929 141.408 64.4916 141.172C64.1903 140.937 63.7565 140.992 63.5228 141.296C63.2891 141.6 63.344 142.037 63.6453 142.272C63.9467 142.508 64.3804 142.452 64.6141 142.149Z" fill="#D6F6D4"/>
<path d="M63.7675 143.248C64.0012 142.944 63.9464 142.507 63.645 142.272C63.3437 142.036 62.9099 142.091 62.6762 142.395C62.4426 142.699 62.4974 143.136 62.7987 143.371C63.1001 143.607 63.5338 143.551 63.7675 143.248Z" fill="#00AC9D"/>
<path d="M60.3826 147.647C60.6163 147.343 60.5614 146.906 60.2601 146.671C59.9587 146.435 59.525 146.49 59.2913 146.794C59.0576 147.098 59.1125 147.535 59.4138 147.77C59.7151 148.006 60.1489 147.95 60.3826 147.647Z" fill="#10F504"/>
<path d="M62.075 145.447C62.3087 145.143 62.2539 144.706 61.9525 144.471C61.6512 144.235 61.2174 144.291 60.9837 144.594C60.7501 144.898 60.8049 145.335 61.1062 145.57C61.4076 145.806 61.8413 145.751 62.075 145.447Z" fill="#D6F6D4"/>
<path d="M61.2288 146.547C61.4625 146.243 61.4077 145.806 61.1063 145.571C60.805 145.335 60.3712 145.391 60.1376 145.694C59.9039 145.998 59.9587 146.435 60.26 146.671C60.5614 146.906 60.9951 146.851 61.2288 146.547Z" fill="#00AC9D"/>
<path d="M69.6913 135.551C69.925 135.247 69.8701 134.81 69.5688 134.574C69.2674 134.339 68.8337 134.394 68.6 134.698C68.3663 135.001 68.4212 135.438 68.7225 135.674C69.0239 135.909 69.4576 135.854 69.6913 135.551Z" fill="#D6F6D4"/>
<path d="M70.5378 134.451C70.7715 134.148 70.7167 133.711 70.4153 133.475C70.114 133.24 69.6803 133.295 69.4466 133.599C69.2129 133.902 69.2677 134.339 69.5691 134.575C69.8704 134.81 70.3041 134.755 70.5378 134.451Z" fill="#10F504"/>
<path d="M54.5781 130.998L63.568 151.184L64.7019 150.671L55.712 130.485L54.5781 130.998Z" fill="#D318BA" stroke="#453C4E" stroke-width="0.2"/>
<path d="M55.3998 131.313C55.2436 130.962 54.835 130.806 54.4871 130.963C54.1392 131.12 53.9837 131.532 54.1399 131.883C54.296 132.233 54.7046 132.39 55.0525 132.233C55.4004 132.075 55.5559 131.664 55.3998 131.313Z" fill="#10F504"/>
<path d="M63.8807 150.357C63.7245 150.006 63.3159 149.849 62.968 150.007C62.6201 150.164 62.4646 150.576 62.6208 150.926C62.7769 151.277 63.1855 151.433 63.5334 151.276C63.8813 151.119 64.0368 150.707 63.8807 150.357Z" fill="#10F504"/>
<path d="M62.7499 147.817C62.5937 147.467 62.1851 147.31 61.8372 147.468C61.4893 147.625 61.3338 148.037 61.49 148.387C61.6461 148.738 62.0547 148.894 62.4026 148.737C62.7505 148.58 62.906 148.168 62.7499 147.817Z" fill="#D6F6D4"/>
<path d="M63.3152 149.087C63.1591 148.736 62.7505 148.579 62.4026 148.737C62.0547 148.894 61.8992 149.306 62.0553 149.656C62.2115 150.007 62.6201 150.163 62.968 150.006C63.3159 149.849 63.4714 149.437 63.3152 149.087Z" fill="#00AC9D"/>
<path d="M57.0959 135.122C56.9398 134.771 56.5312 134.614 56.1833 134.772C55.8353 134.929 55.6799 135.341 55.836 135.691C55.9921 136.042 56.4008 136.199 56.7487 136.041C57.0966 135.884 57.252 135.472 57.0959 135.122Z" fill="#10F504"/>
<path d="M55.9651 132.582C55.809 132.232 55.4004 132.075 55.0525 132.232C54.7046 132.39 54.5491 132.801 54.7052 133.152C54.8613 133.502 55.27 133.659 55.6179 133.502C55.9658 133.344 56.1212 132.933 55.9651 132.582Z" fill="#D6F6D4"/>
<path d="M56.5305 133.852C56.3744 133.502 55.9658 133.345 55.6179 133.502C55.27 133.66 55.1145 134.071 55.2706 134.422C55.4268 134.772 55.8354 134.929 56.1833 134.772C56.5312 134.614 56.6867 134.203 56.5305 133.852Z" fill="#00AC9D"/>
<path d="M58.7921 138.93C58.6359 138.58 58.2273 138.423 57.8794 138.58C57.5315 138.738 57.376 139.149 57.5322 139.5C57.6883 139.851 58.0969 140.007 58.4448 139.85C58.7927 139.693 58.9482 139.281 58.7921 138.93Z" fill="#10F504"/>
<path d="M57.6613 136.391C57.5052 136.041 57.0966 135.884 56.7487 136.041C56.4008 136.199 56.2453 136.61 56.4014 136.961C56.5576 137.312 56.9662 137.468 57.3141 137.311C57.662 137.154 57.8175 136.742 57.6613 136.391Z" fill="#D6F6D4"/>
<path d="M58.2267 137.661C58.0706 137.31 57.662 137.153 57.3141 137.311C56.9661 137.468 56.8107 137.88 56.9668 138.23C57.1229 138.581 57.5316 138.738 57.8795 138.58C58.2274 138.423 58.3828 138.011 58.2267 137.661Z" fill="#00AC9D"/>
<path d="M60.4883 142.739C60.3322 142.389 59.9236 142.232 59.5757 142.389C59.2277 142.547 59.0723 142.958 59.2284 143.309C59.3845 143.66 59.7931 143.816 60.1411 143.659C60.489 143.502 60.6444 143.09 60.4883 142.739Z" fill="#10F504"/>
<path d="M59.3575 140.2C59.2014 139.849 58.7928 139.693 58.4449 139.85C58.0969 140.007 57.9415 140.419 58.0976 140.77C58.2537 141.12 58.6623 141.277 59.0103 141.119C59.3582 140.962 59.5136 140.55 59.3575 140.2Z" fill="#D6F6D4"/>
<path d="M59.9229 141.469C59.7667 141.119 59.3581 140.962 59.0102 141.119C58.6623 141.277 58.5068 141.688 58.663 142.039C58.8191 142.39 59.2277 142.546 59.5756 142.389C59.9235 142.232 60.079 141.82 59.9229 141.469Z" fill="#00AC9D"/>
<path d="M62.1844 146.548C62.0283 146.197 61.6197 146.041 61.2718 146.198C60.9239 146.355 60.7684 146.767 60.9245 147.118C61.0807 147.468 61.4893 147.625 61.8372 147.468C62.1851 147.31 62.3406 146.899 62.1844 146.548Z" fill="#10F504"/>
<path d="M61.0536 144.008C60.8975 143.658 60.4889 143.501 60.141 143.658C59.7931 143.816 59.6376 144.228 59.7937 144.578C59.9499 144.929 60.3585 145.085 60.7064 144.928C61.0543 144.771 61.2098 144.359 61.0536 144.008Z" fill="#D6F6D4"/>
<path d="M61.6191 145.278C61.463 144.927 61.0544 144.771 60.7065 144.928C60.3585 145.085 60.2031 145.497 60.3592 145.848C60.5153 146.198 60.9239 146.355 61.2719 146.198C61.6198 146.04 61.7752 145.628 61.6191 145.278Z" fill="#00AC9D"/>
<path d="M63.6626 148.167C63.5064 147.816 63.0978 147.659 62.7499 147.817C62.402 147.974 62.2465 148.386 62.4027 148.736C62.5588 149.087 62.9674 149.244 63.3153 149.086C63.6632 148.929 63.8187 148.517 63.6626 148.167Z" fill="#10F504"/>
<path d="M62.5318 145.628C62.3756 145.277 61.967 145.121 61.6191 145.278C61.2712 145.435 61.1157 145.847 61.2719 146.198C61.428 146.548 61.8366 146.705 62.1845 146.548C62.5324 146.39 62.6879 145.979 62.5318 145.628Z" fill="#D6F6D4"/>
<path d="M64.2279 149.437C64.0718 149.086 63.6632 148.929 63.3153 149.087C62.9674 149.244 62.8119 149.656 62.968 150.006C63.1242 150.357 63.5328 150.514 63.8807 150.356C64.2286 150.199 64.3841 149.787 64.2279 149.437Z" fill="#D6F6D4"/>
<path d="M63.0971 146.898C62.941 146.547 62.5324 146.39 62.1845 146.548C61.8366 146.705 61.6811 147.117 61.8372 147.467C61.9934 147.818 62.402 147.975 62.7499 147.817C63.0978 147.66 63.2533 147.248 63.0971 146.898Z" fill="#00AC9D"/>
<path d="M56.8778 132.932C56.7217 132.582 56.3131 132.425 55.9652 132.582C55.6172 132.74 55.4618 133.151 55.6179 133.502C55.774 133.853 56.1826 134.009 56.5306 133.852C56.8785 133.695 57.0339 133.283 56.8778 132.932Z" fill="#10F504"/>
<path d="M58.574 136.741C58.4178 136.39 58.0092 136.234 57.6613 136.391C57.3134 136.548 57.1579 136.96 57.3141 137.311C57.4702 137.661 57.8788 137.818 58.2267 137.66C58.5746 137.503 58.7301 137.091 58.574 136.741Z" fill="#10F504"/>
<path d="M57.4432 134.202C57.287 133.852 56.8784 133.695 56.5305 133.852C56.1826 134.01 56.0271 134.421 56.1833 134.772C56.3394 135.123 56.748 135.279 57.0959 135.122C57.4438 134.965 57.5993 134.553 57.4432 134.202Z" fill="#D6F6D4"/>
<path d="M58.0086 135.472C57.8525 135.121 57.4439 134.965 57.096 135.122C56.748 135.279 56.5926 135.691 56.7487 136.041C56.9048 136.392 57.3134 136.549 57.6614 136.391C58.0093 136.234 58.1647 135.822 58.0086 135.472Z" fill="#00AC9D"/>
<path d="M60.2702 140.549C60.114 140.199 59.7054 140.042 59.3575 140.199C59.0096 140.357 58.8541 140.769 59.0103 141.119C59.1664 141.47 59.575 141.626 59.9229 141.469C60.2708 141.312 60.4263 140.9 60.2702 140.549Z" fill="#10F504"/>
<path d="M59.1394 138.011C58.9832 137.66 58.5746 137.504 58.2267 137.661C57.8788 137.818 57.7233 138.23 57.8795 138.581C58.0356 138.931 58.4442 139.088 58.7921 138.93C59.14 138.773 59.2955 138.361 59.1394 138.011Z" fill="#D6F6D4"/>
<path d="M59.7047 139.28C59.5486 138.93 59.14 138.773 58.7921 138.93C58.4442 139.088 58.2887 139.5 58.4448 139.85C58.601 140.201 59.0096 140.357 59.3575 140.2C59.7054 140.043 59.8609 139.631 59.7047 139.28Z" fill="#00AC9D"/>
<path d="M61.9663 144.358C61.8102 144.007 61.4016 143.851 61.0537 144.008C60.7058 144.165 60.5503 144.577 60.7064 144.928C60.8626 145.278 61.2712 145.435 61.6191 145.278C61.967 145.12 62.1225 144.709 61.9663 144.358Z" fill="#10F504"/>
<path d="M60.8355 141.819C60.6794 141.469 60.2708 141.312 59.9229 141.47C59.575 141.627 59.4195 142.039 59.5756 142.389C59.7318 142.74 60.1404 142.896 60.4883 142.739C60.8362 142.582 60.9917 142.17 60.8355 141.819Z" fill="#D6F6D4"/>
<path d="M61.401 143.089C61.2448 142.738 60.8362 142.582 60.4883 142.739C60.1404 142.896 59.9849 143.308 60.1411 143.659C60.2972 144.009 60.7058 144.166 61.0537 144.009C61.4016 143.851 61.5571 143.44 61.401 143.089Z" fill="#00AC9D"/>
<path d="M65.1406 149.787C64.9845 149.436 64.5759 149.279 64.2279 149.437C63.88 149.594 63.7246 150.006 63.8807 150.356C64.0368 150.707 64.4454 150.864 64.7933 150.706C65.1413 150.549 65.2967 150.137 65.1406 149.787Z" fill="#10F504"/>
<path d="M64.0098 147.248C63.8537 146.897 63.4451 146.74 63.0971 146.898C62.7492 147.055 62.5938 147.467 62.7499 147.817C62.906 148.168 63.3146 148.325 63.6625 148.167C64.0105 148.01 64.1659 147.598 64.0098 147.248Z" fill="#D6F6D4"/>
<path d="M64.5752 148.517C64.419 148.166 64.0104 148.009 63.6625 148.167C63.3146 148.324 63.1591 148.736 63.3153 149.086C63.4714 149.437 63.88 149.594 64.2279 149.436C64.5758 149.279 64.7313 148.867 64.5752 148.517Z" fill="#00AC9D"/>
<path d="M58.3558 134.552C58.1997 134.201 57.7911 134.045 57.4432 134.202C57.0953 134.359 56.9398 134.771 57.0959 135.122C57.2521 135.472 57.6607 135.629 58.0086 135.471C58.3565 135.314 58.512 134.902 58.3558 134.552Z" fill="#10F504"/>
<path d="M60.0521 138.36C59.8959 138.01 59.4873 137.853 59.1394 138.011C58.7915 138.168 58.636 138.58 58.7922 138.93C58.9483 139.281 59.3569 139.437 59.7048 139.28C60.0527 139.123 60.2082 138.711 60.0521 138.36Z" fill="#10F504"/>
<path d="M58.9213 135.821C58.7651 135.47 58.3565 135.314 58.0086 135.471C57.6607 135.628 57.5052 136.04 57.6614 136.391C57.8175 136.741 58.2261 136.898 58.574 136.741C58.9219 136.583 59.0774 136.171 58.9213 135.821Z" fill="#D6F6D4"/>
<path d="M59.4866 137.091C59.3305 136.74 58.9219 136.584 58.574 136.741C58.2261 136.898 58.0706 137.31 58.2267 137.661C58.3829 138.011 58.7915 138.168 59.1394 138.011C59.4873 137.853 59.6428 137.441 59.4866 137.091Z" fill="#00AC9D"/>
<path d="M57.7905 133.282C57.6343 132.932 57.2257 132.775 56.8778 132.932C56.5299 133.09 56.3744 133.501 56.5306 133.852C56.6867 134.203 57.0953 134.359 57.4432 134.202C57.7911 134.045 57.9466 133.633 57.7905 133.282Z" fill="#00AC9D"/>
<path d="M56.3124 131.663C56.1562 131.312 55.7476 131.155 55.3997 131.313C55.0518 131.47 54.8963 131.882 55.0525 132.232C55.2086 132.583 55.6172 132.74 55.9651 132.582C56.313 132.425 56.4685 132.013 56.3124 131.663Z" fill="#00AC9D"/>
<path d="M61.7482 142.17C61.5921 141.819 61.1835 141.662 60.8355 141.82C60.4876 141.977 60.3322 142.389 60.4883 142.739C60.6444 143.09 61.053 143.246 61.4009 143.089C61.7489 142.932 61.9043 142.52 61.7482 142.17Z" fill="#10F504"/>
<path d="M60.6174 139.63C60.4613 139.28 60.0527 139.123 59.7048 139.281C59.3569 139.438 59.2014 139.85 59.3575 140.2C59.5137 140.551 59.9223 140.707 60.2702 140.55C60.6181 140.393 60.7736 139.981 60.6174 139.63Z" fill="#D6F6D4"/>
<path d="M61.1829 140.899C61.0267 140.549 60.6181 140.392 60.2702 140.55C59.9223 140.707 59.7668 141.119 59.923 141.469C60.0791 141.82 60.4877 141.976 60.8356 141.819C61.1835 141.662 61.339 141.25 61.1829 140.899Z" fill="#00AC9D"/>
<path d="M63.4444 145.978C63.2882 145.628 62.8796 145.471 62.5317 145.628C62.1838 145.786 62.0283 146.197 62.1845 146.548C62.3406 146.898 62.7492 147.055 63.0971 146.898C63.445 146.74 63.6005 146.329 63.4444 145.978Z" fill="#10F504"/>
<path d="M62.3136 143.439C62.1574 143.088 61.7488 142.932 61.4009 143.089C61.053 143.246 60.8975 143.658 61.0537 144.009C61.2098 144.359 61.6184 144.516 61.9663 144.359C62.3142 144.201 62.4697 143.79 62.3136 143.439Z" fill="#D6F6D4"/>
<path d="M62.879 144.708C62.7229 144.358 62.3143 144.201 61.9663 144.358C61.6184 144.516 61.463 144.927 61.6191 145.278C61.7752 145.628 62.1838 145.785 62.5317 145.628C62.8797 145.47 63.0351 145.059 62.879 144.708Z" fill="#00AC9D"/>
<path d="M57.225 132.012C57.0689 131.662 56.6603 131.505 56.3124 131.662C55.9645 131.82 55.809 132.231 55.9651 132.582C56.1213 132.933 56.5299 133.089 56.8778 132.932C57.2257 132.775 57.3812 132.363 57.225 132.012Z" fill="#D6F6D4"/>
<path d="M56.6597 130.743C56.5036 130.393 56.095 130.236 55.747 130.393C55.3991 130.551 55.2437 130.962 55.3998 131.313C55.5559 131.664 55.9645 131.82 56.3124 131.663C56.6604 131.506 56.8158 131.094 56.6597 130.743Z" fill="#10F504"/>
<path d="M171.269 167.178L180.258 187.364L181.392 186.851L172.402 166.665L171.269 167.178Z" fill="#D318BA" stroke="#453C4E" stroke-width="0.2"/>
<path d="M172.09 167.493C171.934 167.143 171.526 166.986 171.178 167.143C170.83 167.301 170.674 167.712 170.83 168.063C170.987 168.414 171.395 168.57 171.743 168.413C172.091 168.256 172.246 167.844 172.09 167.493Z" fill="#10F504"/>
<path d="M180.571 186.536C180.415 186.186 180.006 186.029 179.658 186.186C179.31 186.344 179.155 186.755 179.311 187.106C179.467 187.457 179.876 187.613 180.224 187.456C180.571 187.299 180.727 186.887 180.571 186.536Z" fill="#10F504"/>
<path d="M179.44 183.998C179.284 183.647 178.876 183.49 178.528 183.648C178.18 183.805 178.024 184.217 178.181 184.567C178.337 184.918 178.745 185.075 179.093 184.917C179.441 184.76 179.597 184.348 179.44 183.998Z" fill="#D6F6D4"/>
<path d="M180.006 185.267C179.85 184.916 179.441 184.759 179.093 184.917C178.745 185.074 178.59 185.486 178.746 185.836C178.902 186.187 179.311 186.344 179.659 186.186C180.007 186.029 180.162 185.617 180.006 185.267Z" fill="#00AC9D"/>
<path d="M173.786 171.302C173.63 170.951 173.221 170.795 172.874 170.952C172.526 171.109 172.37 171.521 172.526 171.872C172.682 172.222 173.091 172.379 173.439 172.221C173.787 172.064 173.942 171.652 173.786 171.302Z" fill="#10F504"/>
<path d="M172.656 168.762C172.5 168.412 172.091 168.255 171.743 168.412C171.395 168.57 171.24 168.981 171.396 169.332C171.552 169.683 171.961 169.839 172.309 169.682C172.657 169.525 172.812 169.113 172.656 168.762Z" fill="#D6F6D4"/>
<path d="M173.221 170.032C173.065 169.681 172.656 169.525 172.308 169.682C171.96 169.839 171.805 170.251 171.961 170.602C172.117 170.952 172.526 171.109 172.873 170.951C173.221 170.794 173.377 170.382 173.221 170.032Z" fill="#00AC9D"/>
<path d="M175.483 175.11C175.327 174.76 174.918 174.603 174.57 174.761C174.222 174.918 174.067 175.33 174.223 175.68C174.379 176.031 174.788 176.187 175.135 176.03C175.483 175.873 175.639 175.461 175.483 175.11Z" fill="#10F504"/>
<path d="M174.352 172.571C174.196 172.22 173.787 172.064 173.439 172.221C173.091 172.378 172.936 172.79 173.092 173.141C173.248 173.491 173.657 173.648 174.004 173.491C174.352 173.333 174.508 172.921 174.352 172.571Z" fill="#D6F6D4"/>
<path d="M174.917 173.84C174.761 173.49 174.352 173.333 174.005 173.49C173.657 173.648 173.501 174.06 173.657 174.41C173.813 174.761 174.222 174.917 174.57 174.76C174.918 174.603 175.073 174.191 174.917 173.84Z" fill="#00AC9D"/>
<path d="M177.178 178.919C177.022 178.568 176.614 178.412 176.266 178.569C175.918 178.726 175.762 179.138 175.919 179.489C176.075 179.839 176.483 179.996 176.831 179.839C177.179 179.681 177.335 179.27 177.178 178.919Z" fill="#10F504"/>
<path d="M176.048 176.379C175.892 176.029 175.483 175.872 175.136 176.03C174.788 176.187 174.632 176.599 174.788 176.949C174.944 177.3 175.353 177.456 175.701 177.299C176.049 177.142 176.204 176.73 176.048 176.379Z" fill="#D6F6D4"/>
<path d="M176.614 177.649C176.458 177.298 176.049 177.142 175.701 177.299C175.353 177.456 175.198 177.868 175.354 178.219C175.51 178.569 175.919 178.726 176.266 178.569C176.614 178.411 176.77 178 176.614 177.649Z" fill="#00AC9D"/>
<path d="M178.875 182.728C178.719 182.377 178.31 182.22 177.962 182.378C177.614 182.535 177.459 182.947 177.615 183.297C177.771 183.648 178.18 183.805 178.528 183.647C178.876 183.49 179.031 183.078 178.875 182.728Z" fill="#10F504"/>
<path d="M177.744 180.188C177.588 179.837 177.179 179.681 176.831 179.838C176.483 179.995 176.328 180.407 176.484 180.758C176.64 181.108 177.049 181.265 177.397 181.108C177.745 180.95 177.9 180.539 177.744 180.188Z" fill="#D6F6D4"/>
<path d="M178.309 181.458C178.153 181.108 177.745 180.951 177.397 181.108C177.049 181.266 176.893 181.677 177.05 182.028C177.206 182.378 177.614 182.535 177.962 182.378C178.31 182.22 178.466 181.809 178.309 181.458Z" fill="#00AC9D"/>
<path d="M180.353 184.347C180.197 183.996 179.789 183.84 179.441 183.997C179.093 184.154 178.937 184.566 179.093 184.916C179.25 185.267 179.658 185.424 180.006 185.266C180.354 185.109 180.509 184.697 180.353 184.347Z" fill="#10F504"/>
<path d="M179.222 181.808C179.066 181.457 178.658 181.3 178.31 181.458C177.962 181.615 177.806 182.027 177.962 182.377C178.119 182.728 178.527 182.885 178.875 182.727C179.223 182.57 179.378 182.158 179.222 181.808Z" fill="#D6F6D4"/>
<path d="M180.918 185.616C180.762 185.266 180.353 185.109 180.005 185.266C179.658 185.424 179.502 185.835 179.658 186.186C179.814 186.537 180.223 186.693 180.571 186.536C180.919 186.379 181.074 185.967 180.918 185.616Z" fill="#D6F6D4"/>
<path d="M179.788 183.078C179.632 182.727 179.223 182.57 178.875 182.728C178.527 182.885 178.372 183.297 178.528 183.647C178.684 183.998 179.093 184.155 179.441 183.997C179.788 183.84 179.944 183.428 179.788 183.078Z" fill="#00AC9D"/>
<path d="M173.568 169.112C173.412 168.762 173.003 168.605 172.655 168.762C172.307 168.92 172.152 169.332 172.308 169.682C172.464 170.033 172.873 170.189 173.221 170.032C173.569 169.875 173.724 169.463 173.568 169.112Z" fill="#10F504"/>
<path d="M175.264 172.921C175.108 172.57 174.7 172.414 174.352 172.571C174.004 172.728 173.848 173.14 174.005 173.491C174.161 173.841 174.569 173.998 174.917 173.841C175.265 173.683 175.421 173.272 175.264 172.921Z" fill="#10F504"/>
<path d="M174.134 170.382C173.977 170.031 173.569 169.875 173.221 170.032C172.873 170.189 172.717 170.601 172.874 170.952C173.03 171.302 173.438 171.459 173.786 171.302C174.134 171.144 174.29 170.732 174.134 170.382Z" fill="#D6F6D4"/>
<path d="M174.699 171.652C174.543 171.301 174.134 171.145 173.786 171.302C173.438 171.459 173.283 171.871 173.439 172.222C173.595 172.572 174.004 172.729 174.352 172.572C174.7 172.414 174.855 172.003 174.699 171.652Z" fill="#00AC9D"/>
<path d="M176.96 176.73C176.804 176.379 176.396 176.222 176.048 176.38C175.7 176.537 175.544 176.949 175.7 177.299C175.857 177.65 176.265 177.807 176.613 177.649C176.961 177.492 177.116 177.08 176.96 176.73Z" fill="#10F504"/>
<path d="M175.83 174.191C175.674 173.84 175.265 173.683 174.917 173.841C174.569 173.998 174.414 174.41 174.57 174.76C174.726 175.111 175.135 175.267 175.483 175.11C175.831 174.953 175.986 174.541 175.83 174.191Z" fill="#D6F6D4"/>
<path d="M176.395 175.461C176.239 175.11 175.831 174.953 175.483 175.111C175.135 175.268 174.979 175.68 175.136 176.03C175.292 176.381 175.7 176.537 176.048 176.38C176.396 176.223 176.552 175.811 176.395 175.461Z" fill="#00AC9D"/>
<path d="M178.657 180.538C178.501 180.188 178.092 180.031 177.744 180.188C177.396 180.346 177.241 180.757 177.397 181.108C177.553 181.458 177.962 181.615 178.31 181.458C178.657 181.3 178.813 180.889 178.657 180.538Z" fill="#10F504"/>
<path d="M177.526 177.999C177.37 177.649 176.961 177.492 176.613 177.649C176.265 177.807 176.11 178.218 176.266 178.569C176.422 178.919 176.831 179.076 177.179 178.919C177.526 178.761 177.682 178.35 177.526 177.999Z" fill="#D6F6D4"/>
<path d="M178.091 179.269C177.935 178.919 177.527 178.762 177.179 178.919C176.831 179.077 176.675 179.488 176.831 179.839C176.988 180.189 177.396 180.346 177.744 180.189C178.092 180.031 178.247 179.62 178.091 179.269Z" fill="#00AC9D"/>
<path d="M181.831 185.966C181.675 185.616 181.266 185.459 180.918 185.616C180.57 185.774 180.415 186.186 180.571 186.536C180.727 186.887 181.136 187.043 181.484 186.886C181.832 186.729 181.987 186.317 181.831 185.966Z" fill="#10F504"/>
<path d="M180.7 183.428C180.544 183.077 180.135 182.921 179.787 183.078C179.439 183.235 179.284 183.647 179.44 183.998C179.596 184.348 180.005 184.505 180.353 184.347C180.701 184.19 180.856 183.778 180.7 183.428Z" fill="#D6F6D4"/>
<path d="M181.265 184.697C181.109 184.346 180.701 184.19 180.353 184.347C180.005 184.504 179.849 184.916 180.006 185.267C180.162 185.617 180.57 185.774 180.918 185.616C181.266 185.459 181.422 185.047 181.265 184.697Z" fill="#00AC9D"/>
<path d="M175.046 170.732C174.89 170.381 174.482 170.225 174.134 170.382C173.786 170.539 173.63 170.951 173.786 171.302C173.943 171.652 174.351 171.809 174.699 171.652C175.047 171.494 175.202 171.083 175.046 170.732Z" fill="#10F504"/>
<path d="M176.743 174.541C176.587 174.19 176.178 174.033 175.83 174.191C175.482 174.348 175.327 174.76 175.483 175.11C175.639 175.461 176.048 175.618 176.396 175.46C176.743 175.303 176.899 174.891 176.743 174.541Z" fill="#10F504"/>
<path d="M175.612 172.001C175.456 171.65 175.047 171.494 174.699 171.651C174.351 171.808 174.196 172.22 174.352 172.571C174.508 172.921 174.917 173.078 175.265 172.921C175.612 172.763 175.768 172.352 175.612 172.001Z" fill="#D6F6D4"/>
<path d="M176.177 173.271C176.021 172.92 175.613 172.763 175.265 172.921C174.917 173.078 174.761 173.49 174.917 173.84C175.074 174.191 175.482 174.348 175.83 174.19C176.178 174.033 176.333 173.621 176.177 173.271Z" fill="#00AC9D"/>
<path d="M174.481 169.462C174.325 169.111 173.916 168.955 173.568 169.112C173.22 169.269 173.065 169.681 173.221 170.032C173.377 170.382 173.786 170.539 174.134 170.382C174.481 170.224 174.637 169.813 174.481 169.462Z" fill="#00AC9D"/>
<path d="M173.003 167.842C172.847 167.492 172.438 167.335 172.091 167.492C171.743 167.65 171.587 168.062 171.743 168.412C171.899 168.763 172.308 168.919 172.656 168.762C173.004 168.605 173.159 168.193 173.003 167.842Z" fill="#00AC9D"/>
<path d="M178.439 178.349C178.282 177.999 177.874 177.842 177.526 177.999C177.178 178.157 177.023 178.568 177.179 178.919C177.335 179.27 177.743 179.426 178.091 179.269C178.439 179.112 178.595 178.7 178.439 178.349Z" fill="#10F504"/>
<path d="M177.308 175.81C177.152 175.46 176.743 175.303 176.395 175.46C176.047 175.618 175.892 176.029 176.048 176.38C176.204 176.73 176.612 176.887 176.96 176.73C177.308 176.572 177.464 176.161 177.308 175.81Z" fill="#D6F6D4"/>
<path d="M177.873 177.079C177.717 176.729 177.308 176.572 176.96 176.729C176.613 176.887 176.457 177.298 176.613 177.649C176.769 178 177.178 178.156 177.526 177.999C177.874 177.841 178.029 177.43 177.873 177.079Z" fill="#00AC9D"/>
<path d="M180.135 182.158C179.979 181.807 179.57 181.651 179.222 181.808C178.875 181.965 178.719 182.377 178.875 182.728C179.031 183.078 179.44 183.235 179.788 183.077C180.136 182.92 180.291 182.508 180.135 182.158Z" fill="#10F504"/>
<path d="M179.004 179.619C178.848 179.268 178.439 179.111 178.091 179.269C177.744 179.426 177.588 179.838 177.744 180.188C177.9 180.539 178.309 180.696 178.657 180.538C179.005 180.381 179.16 179.969 179.004 179.619Z" fill="#D6F6D4"/>
<path d="M179.57 180.888C179.413 180.538 179.005 180.381 178.657 180.538C178.309 180.696 178.154 181.107 178.31 181.458C178.466 181.809 178.874 181.965 179.222 181.808C179.57 181.651 179.726 181.239 179.57 180.888Z" fill="#00AC9D"/>
<path d="M173.915 168.192C173.759 167.842 173.351 167.685 173.003 167.843C172.655 168 172.499 168.412 172.655 168.762C172.812 169.113 173.22 169.269 173.568 169.112C173.916 168.955 174.071 168.543 173.915 168.192Z" fill="#D6F6D4"/>
<path d="M173.35 166.923C173.194 166.573 172.785 166.416 172.437 166.574C172.089 166.731 171.934 167.143 172.09 167.493C172.246 167.844 172.655 168 173.003 167.843C173.35 167.686 173.506 167.274 173.35 166.923Z" fill="#10F504"/>
</svg>
