<svg width="50" height="50" viewBox="0 0 50 50" fill="none" xmlns="http://www.w3.org/2000/svg">
<path d="M25 3.125C30.8016 3.125 36.3656 5.42968 40.468 9.53204C44.5703 13.6344 46.875 19.1984 46.875 25C46.875 30.8016 44.5703 36.3656 40.468 40.468C36.3656 44.5703 30.8016 46.875 25 46.875C19.1984 46.875 13.6344 44.5703 9.53204 40.468C5.42968 36.3656 3.125 30.8016 3.125 25C3.125 19.1984 5.42968 13.6344 9.53204 9.53204C13.6344 5.42968 19.1984 3.125 25 3.125ZM26.1594 12.475C23.6156 12.475 21.6219 13.1969 20.1438 14.6406C18.6313 16.0844 17.9094 18.0781 17.9094 20.6219H21.8281C21.8281 19.1781 22.1031 18.0437 22.6875 17.2531C23.3406 16.2906 24.4062 15.8438 25.9187 15.8438C27.0875 15.8438 28.0156 16.1531 28.6687 16.8062C29.2875 17.4594 29.6313 18.3531 29.6313 19.4875C29.6313 20.3469 29.3219 21.1719 28.7031 21.9281L28.2906 22.4094C26.0563 24.4031 24.7156 25.8469 24.2687 26.775C23.7875 27.7031 23.5813 28.8375 23.5813 30.1437V30.625H27.5344V30.1437C27.5344 29.3187 27.7062 28.5969 28.05 27.9094C28.3594 27.2906 28.8063 26.7062 29.425 26.1906C31.075 24.7469 32.0719 23.8188 32.3813 23.475C33.2063 22.375 33.6531 20.9656 33.6531 19.2469C33.6531 17.15 32.9656 15.5 31.5906 14.2969C30.2156 13.0594 28.3938 12.475 26.1594 12.475ZM25.5406 32.3094C24.8397 32.2904 24.1599 32.55 23.65 33.0312C23.3983 33.2684 23.2005 33.5568 23.07 33.8771C22.9395 34.1974 22.8794 34.542 22.8938 34.8875C22.8938 35.6437 23.1344 36.2625 23.65 36.7438C24.1561 37.2349 24.8354 37.5067 25.5406 37.5C26.2969 37.5 26.9156 37.2594 27.4312 36.7781C27.6883 36.5361 27.8916 36.2427 28.0278 35.917C28.164 35.5912 28.2301 35.2405 28.2219 34.8875C28.2285 34.543 28.1648 34.2007 28.0348 33.8815C27.9048 33.5624 27.7111 33.2731 27.4656 33.0312C26.9425 32.5491 26.2518 32.2901 25.5406 32.3094Z" fill="#FD4F3E"/>
</svg>
